<svg xmlns="http://www.w3.org/2000/svg" xmlns:xlink="http://www.w3.org/1999/xlink" width="1111" height="694" version="1.1">
<style type="text/css">
.l0{
  fill: #000000;
  stroke: #000000;
  stroke-linecap:round;
  stroke-linejoin:round;
  stroke-width: 0.483662;
}
.l1{
  fill: #00ddff;
  stroke: #00ddff;
  stroke-linecap:round;
  stroke-linejoin:round;
  stroke-width: 0.483662;
}
.l2{
  fill: #4f4f4f; fill-opacity: 0.2;
  stroke: #4f4f4f;
  stroke-linecap:round;
  stroke-linejoin:round;
  stroke-width: 0.483662;
}
.l3{
  fill: #cccccc; fill-opacity: 0.5;
  stroke: #cccccc;
  stroke-linecap:round;
  stroke-linejoin:round;
  stroke-width: 0.483662;
}
.l4{
  fill: #88dd00;
  stroke: #88dd00;
  stroke-linecap:round;
  stroke-linejoin:round;
  stroke-width: 0.483662;
}
.l5{
  fill: #bb2200;
  stroke: #bb2200;
  stroke-linecap:round;
  stroke-linejoin:round;
  stroke-width: 0.483662;
}
.l6{
  fill: #00aaff; fill-opacity: 0.5;
  stroke: #00aaff;
  stroke-linecap:round;
  stroke-linejoin:round;
  stroke-width: 0.483662;
}
.l7{
  fill: #ff0000; fill-opacity: 0.5;
  stroke: #ff0000;
  stroke-linecap:round;
  stroke-linejoin:round;
  stroke-width: 0.483662;
}
.l8{
  fill: #ffff00; fill-opacity: 0.5;
  stroke: #ffff00;
  stroke-linecap:round;
  stroke-linejoin:round;
  stroke-width: 0.483662;
}
.l9{
  fill: #ffffff; fill-opacity: 0.5;
  stroke: #ffffff;
  stroke-linecap:round;
  stroke-linejoin:round;
  stroke-width: 0.483662;
}
.l10{
  fill: #ff00ff;
  stroke: #ff00ff;
  stroke-linecap:round;
  stroke-linejoin:round;
  stroke-width: 0.483662;
}
.l11{
  fill: #00ff00; fill-opacity: 0.5;
  stroke: #00ff00;
  stroke-linecap:round;
  stroke-linejoin:round;
  stroke-width: 0.483662;
}
.l12{
  fill: #0044ff; fill-opacity: 0.5;
  stroke: #0044ff;
  stroke-linecap:round;
  stroke-linejoin:round;
  stroke-width: 0.483662;
}
.l13{
  fill: #aaaa00; fill-opacity: 0.5;
  stroke: #aaaa00;
  stroke-linecap:round;
  stroke-linejoin:round;
  stroke-width: 0.483662;
}
.l14{
  fill: #aaccaa; fill-opacity: 0.2;
  stroke: #aaccaa;
  stroke-linecap:round;
  stroke-linejoin:round;
  stroke-width: 0.483662;
}
.l15{
  fill: #ff7777; fill-opacity: 0.5;
  stroke: #ff7777;
  stroke-linecap:round;
  stroke-linejoin:round;
  stroke-width: 0.483662;
}
.l16{
  fill: #bfff81; fill-opacity: 0.5;
  stroke: #bfff81;
  stroke-linecap:round;
  stroke-linejoin:round;
  stroke-width: 0.483662;
}
.l17{
  fill: #00ffcc; fill-opacity: 0.2;
  stroke: #00ffcc;
  stroke-linecap:round;
  stroke-linejoin:round;
  stroke-width: 0.483662;
}
.l18{
  fill: #ce0097; fill-opacity: 0.5;
  stroke: #ce0097;
  stroke-linecap:round;
  stroke-linejoin:round;
  stroke-width: 0.483662;
}
.l19{
  fill: #d2d46b; fill-opacity: 0.2;
  stroke: #d2d46b;
  stroke-linecap:round;
  stroke-linejoin:round;
  stroke-width: 0.483662;
}
.l20{
  fill: #ef6158; fill-opacity: 0.2;
  stroke: #ef6158;
  stroke-linecap:round;
  stroke-linejoin:round;
  stroke-width: 0.483662;
}
.l21{
  fill: #fdb200; fill-opacity: 0.2;
  stroke: #fdb200;
  stroke-linecap:round;
  stroke-linejoin:round;
  stroke-width: 0.483662;
}
text {font-family: Sans-Serif;}
</style>
<rect class="l0" x="0" y="0" width="1111" height="694"/>
<path class="l4" d="M33.6827 457.881L35.4741 457.881"/>
<path class="l4" d="M34.5784 456.986L34.5784 458.777"/>
<path class="l4" d="M32.7871 455.194L32.7871 476.69"/>
<circle class="l4" cx="32.7871" cy="465.942" r="5.37402" style="fill:none;" />
<path class="l4" d="M22.9347 533.117L24.726 533.117"/>
<path class="l4" d="M23.8304 532.222L23.8304 534.013"/>
<path class="l4" d="M22.039 530.43L22.039 551.927"/>
<circle class="l4" cx="22.039" cy="541.178" r="5.37402" style="fill:none;" />
<path class="l4" d="M399.116 536.7L400.907 536.7"/>
<path class="l4" d="M400.012 535.804L400.012 537.596"/>
<path class="l4" d="M398.22 534.013L398.22 555.509"/>
<circle class="l4" cx="398.22" cy="544.761" r="5.37402" style="fill:none;" />
<path class="l4" d="M615.868 525.952L615.868 542.074"/>
<path class="l4" d="M620.346 523.265L620.346 527.743"/>
<path class="l4" d="M620.346 540.283L620.346 544.761"/>
<path class="l4" d="M614.077 528.639L614.077 539.387"/>
<path class="l4" d="M615.868 540.283L620.346 540.283"/>
<path class="l4" d="M617.659 527.743L620.346 527.743"/>
<path class="l4" d="M606.016 534.013L610.494 534.013"/>
<path class="l4" d="M617.659 526.848L615.868 527.743L617.659 528.639L617.659 526.848"/>
<circle class="l4" cx="612.285" cy="534.013" r="1.79134" style="fill:none;" />
<path class="l4" d="M841.577 543.865L841.577 559.988"/>
<path class="l4" d="M831.725 551.927L839.786 551.927"/>
<path class="l4" d="M846.055 541.178L846.055 545.657"/>
<path class="l4" d="M846.055 558.196L846.055 562.675"/>
<path class="l4" d="M839.786 546.553L839.786 557.301"/>
<path class="l4" d="M841.577 545.657L846.055 545.657"/>
<path class="l4" d="M841.577 558.196L844.264 558.196"/>
<path class="l4" d="M844.264 557.301L846.055 558.196L844.264 559.092L844.264 557.301"/>
<path class="l4" d="M538.841 540.283L538.841 556.405"/>
<path class="l4" d="M540.632 548.344L548.693 548.344"/>
<path class="l4" d="M534.362 537.596L534.362 542.074"/>
<path class="l4" d="M534.362 554.614L534.362 559.092"/>
<path class="l4" d="M540.632 542.97L540.632 553.718"/>
<path class="l4" d="M534.362 542.074L538.841 542.074"/>
<path class="l4" d="M536.154 554.614L538.841 554.614"/>
<path class="l4" d="M536.154 553.718L534.362 554.614L536.154 555.509L536.154 553.718"/>
<path class="l4" d="M1078.93 428.324L1078.93 437.281"/>
<path class="l4" d="M1078.93 415.785L1078.93 424.741"/>
<path class="l4" d="M1075.35 424.741L1082.51 424.741"/>
<path class="l4" d="M1075.35 428.324L1082.51 428.324"/>
<path class="l4" d="M1079.83 418.472L1081.62 418.472"/>
<path class="l4" d="M1080.72 417.576L1080.72 419.367"/>
<path class="l4" d="M682.148 508.039L682.148 524.161"/>
<path class="l4" d="M677.669 505.352L677.669 509.83"/>
<path class="l4" d="M677.669 522.369L677.669 526.848"/>
<path class="l4" d="M683.939 510.726L683.939 521.474"/>
<path class="l4" d="M677.669 522.369L682.148 522.369"/>
<path class="l4" d="M677.669 509.83L680.356 509.83"/>
<path class="l4" d="M687.522 516.1L692 516.1"/>
<path class="l4" d="M680.356 508.934L682.148 509.83L680.356 510.726L680.356 508.934"/>
<circle class="l4" cx="685.73" cy="516.1" r="1.79134" style="fill:none;" />
<path class="l4" d="M880.986 443.55L880.986 459.673"/>
<path class="l4" d="M871.134 451.612L879.195 451.612"/>
<path class="l4" d="M885.465 440.863L885.465 445.342"/>
<path class="l4" d="M885.465 457.881L885.465 462.36"/>
<path class="l4" d="M879.195 446.237L879.195 456.986"/>
<path class="l4" d="M880.986 445.342L885.465 445.342"/>
<path class="l4" d="M880.986 457.881L883.673 457.881"/>
<path class="l4" d="M883.673 456.986L885.465 457.881L883.673 458.777L883.673 456.986"/>
<path class="l4" d="M737.679 454.299L737.679 470.421"/>
<path class="l4" d="M727.827 462.36L735.888 462.36"/>
<path class="l4" d="M742.158 451.612L742.158 456.09"/>
<path class="l4" d="M742.158 468.629L742.158 473.108"/>
<path class="l4" d="M735.888 456.986L735.888 467.734"/>
<path class="l4" d="M737.679 456.09L742.158 456.09"/>
<path class="l4" d="M737.679 468.629L740.366 468.629"/>
<path class="l4" d="M740.366 467.734L742.158 468.629L740.366 469.525L740.366 467.734"/>
<path class="l4" d="M1078.93 482.064L1078.93 491.021"/>
<path class="l4" d="M1078.93 469.525L1078.93 478.482"/>
<path class="l4" d="M1075.35 478.482L1082.51 478.482"/>
<path class="l4" d="M1075.35 482.064L1082.51 482.064"/>
<path class="l4" d="M1079.83 472.212L1081.62 472.212"/>
<path class="l4" d="M1080.72 471.316L1080.72 473.108"/>
<path class="l4" d="M759.175 500.873L759.175 516.995"/>
<path class="l4" d="M763.654 498.186L763.654 502.665"/>
<path class="l4" d="M763.654 515.204L763.654 519.682"/>
<path class="l4" d="M757.384 503.56L757.384 514.308"/>
<path class="l4" d="M759.175 515.204L763.654 515.204"/>
<path class="l4" d="M760.967 502.665L763.654 502.665"/>
<path class="l4" d="M749.323 508.934L753.801 508.934"/>
<path class="l4" d="M760.967 501.769L759.175 502.665L760.967 503.56L760.967 501.769"/>
<circle class="l4" cx="755.593" cy="508.934" r="1.79134" style="fill:none;" />
<path class="l4" d="M927.561 493.708L927.561 509.83"/>
<path class="l4" d="M917.709 501.769L925.77 501.769"/>
<path class="l4" d="M932.04 491.021L932.04 495.499"/>
<path class="l4" d="M932.04 508.039L932.04 512.517"/>
<path class="l4" d="M925.77 496.395L925.77 507.143"/>
<path class="l4" d="M927.561 495.499L932.04 495.499"/>
<path class="l4" d="M927.561 508.039L930.248 508.039"/>
<path class="l4" d="M930.248 507.143L932.04 508.039L930.248 508.934L930.248 507.143"/>
<path class="l4" d="M791.419 572.527L791.419 588.649"/>
<path class="l4" d="M781.567 580.588L789.628 580.588"/>
<path class="l4" d="M795.898 569.84L795.898 574.318"/>
<path class="l4" d="M795.898 586.858L795.898 591.336"/>
<path class="l4" d="M789.628 575.214L789.628 585.962"/>
<path class="l4" d="M791.419 574.318L795.898 574.318"/>
<path class="l4" d="M791.419 586.858L794.106 586.858"/>
<path class="l4" d="M794.106 585.962L795.898 586.858L794.106 587.753L794.106 585.962"/>
<path class="l4" d="M1078.93 507.143L1078.93 516.1"/>
<path class="l4" d="M1078.93 494.604L1078.93 503.56"/>
<path class="l4" d="M1075.35 503.56L1082.51 503.56"/>
<path class="l4" d="M1075.35 507.143L1082.51 507.143"/>
<path class="l4" d="M1079.83 497.291L1081.62 497.291"/>
<path class="l4" d="M1080.72 496.395L1080.72 498.186"/>
<path class="l4" d="M818.29 475.795L818.29 491.917"/>
<path class="l4" d="M813.811 473.108L813.811 477.586"/>
<path class="l4" d="M813.811 490.125L813.811 494.604"/>
<path class="l4" d="M820.081 478.482L820.081 489.23"/>
<path class="l4" d="M813.811 490.125L818.29 490.125"/>
<path class="l4" d="M813.811 477.586L816.498 477.586"/>
<path class="l4" d="M823.664 483.856L828.142 483.856"/>
<path class="l4" d="M816.498 476.69L818.29 477.586L816.498 478.482L816.498 476.69"/>
<circle class="l4" cx="821.872" cy="483.856" r="1.79134" style="fill:none;" />
<path class="l4" d="M977.719 497.291L977.719 513.413"/>
<path class="l4" d="M967.866 505.352L975.927 505.352"/>
<path class="l4" d="M982.197 494.604L982.197 499.082"/>
<path class="l4" d="M982.197 511.621L982.197 516.1"/>
<path class="l4" d="M975.927 499.978L975.927 510.726"/>
<path class="l4" d="M977.719 499.082L982.197 499.082"/>
<path class="l4" d="M977.719 511.621L980.406 511.621"/>
<path class="l4" d="M980.406 510.726L982.197 511.621L980.406 512.517L980.406 510.726"/>
<path class="l4" d="M823.664 597.606L823.664 613.728"/>
<path class="l4" d="M813.811 605.667L821.872 605.667"/>
<path class="l4" d="M828.142 594.919L828.142 599.397"/>
<path class="l4" d="M828.142 611.936L828.142 616.415"/>
<path class="l4" d="M821.872 600.293L821.872 611.041"/>
<path class="l4" d="M823.664 599.397L828.142 599.397"/>
<path class="l4" d="M823.664 611.936L826.351 611.936"/>
<path class="l4" d="M826.351 611.041L828.142 611.936L826.351 612.832L826.351 611.041"/>
<path class="l4" d="M1078.93 550.135L1078.93 559.092"/>
<path class="l4" d="M1078.93 537.596L1078.93 546.553"/>
<path class="l4" d="M1075.35 546.553L1082.51 546.553"/>
<path class="l4" d="M1075.35 550.135L1082.51 550.135"/>
<path class="l4" d="M1079.83 540.283L1081.62 540.283"/>
<path class="l4" d="M1080.72 539.387L1080.72 541.178"/>
<path class="l4" d="M859.49 493.708L859.49 509.83"/>
<path class="l4" d="M863.969 491.021L863.969 495.499"/>
<path class="l4" d="M863.969 508.039L863.969 512.517"/>
<path class="l4" d="M857.699 496.395L857.699 507.143"/>
<path class="l4" d="M859.49 508.039L863.969 508.039"/>
<path class="l4" d="M861.282 495.499L863.969 495.499"/>
<path class="l4" d="M849.638 501.769L854.116 501.769"/>
<path class="l4" d="M861.282 494.604L859.49 495.499L861.282 496.395L861.282 494.604"/>
<circle class="l4" cx="855.908" cy="501.769" r="1.79134" style="fill:none;" />
<path class="l4" d="M895.317 543.865L895.317 559.988"/>
<path class="l4" d="M885.465 551.927L893.526 551.927"/>
<path class="l4" d="M899.796 541.178L899.796 545.657"/>
<path class="l4" d="M899.796 558.196L899.796 562.675"/>
<path class="l4" d="M893.526 546.553L893.526 557.301"/>
<path class="l4" d="M895.317 545.657L899.796 545.657"/>
<path class="l4" d="M895.317 558.196L898.004 558.196"/>
<path class="l4" d="M898.004 557.301L899.796 558.196L898.004 559.092L898.004 557.301"/>
<path class="l4" d="M938.309 568.944L938.309 585.066"/>
<path class="l4" d="M928.457 577.005L936.518 577.005"/>
<path class="l4" d="M942.788 566.257L942.788 570.736"/>
<path class="l4" d="M942.788 583.275L942.788 587.753"/>
<path class="l4" d="M936.518 571.631L936.518 582.379"/>
<path class="l4" d="M938.309 570.736L942.788 570.736"/>
<path class="l4" d="M938.309 583.275L940.996 583.275"/>
<path class="l4" d="M940.996 582.379L942.788 583.275L940.996 584.171L940.996 582.379"/>
<path class="l4" d="M1078.93 582.379L1078.93 591.336"/>
<path class="l4" d="M1078.93 569.84L1078.93 578.797"/>
<path class="l4" d="M1075.35 578.797L1082.51 578.797"/>
<path class="l4" d="M1075.35 582.379L1082.51 582.379"/>
<path class="l4" d="M1079.83 572.527L1081.62 572.527"/>
<path class="l4" d="M1080.72 571.631L1080.72 573.423"/>
<path class="l4" d="M721.557 558.196L721.557 574.318"/>
<path class="l4" d="M717.079 555.509L717.079 559.988"/>
<path class="l4" d="M717.079 572.527L717.079 577.005"/>
<path class="l4" d="M723.349 560.883L723.349 571.631"/>
<path class="l4" d="M717.079 572.527L721.557 572.527"/>
<path class="l4" d="M717.079 559.988L719.766 559.988"/>
<path class="l4" d="M726.931 566.257L731.41 566.257"/>
<path class="l4" d="M719.766 559.092L721.557 559.988L719.766 560.883L719.766 559.092"/>
<circle class="l4" cx="725.14" cy="566.257" r="1.79134" style="fill:none;" />
<path class="l4" d="M472.561 540.283L472.561 556.405"/>
<path class="l4" d="M462.709 548.344L470.77 548.344"/>
<path class="l4" d="M477.039 537.596L477.039 542.074"/>
<path class="l4" d="M477.039 554.614L477.039 559.092"/>
<path class="l4" d="M470.77 542.97L470.77 553.718"/>
<path class="l4" d="M472.561 542.074L477.039 542.074"/>
<path class="l4" d="M472.561 554.614L475.248 554.614"/>
<path class="l4" d="M475.248 553.718L477.039 554.614L475.248 555.509L475.248 553.718"/>
<path class="l4" d="M399.116 658.511L400.907 658.511"/>
<path class="l4" d="M400.012 657.616L400.012 659.407"/>
<path class="l4" d="M398.22 655.824L398.22 677.32"/>
<circle class="l4" cx="398.22" cy="666.572" r="5.37402" style="fill:none;" />
<path class="l4" d="M1078.93 643.285L1078.93 652.242"/>
<path class="l4" d="M1078.93 630.745L1078.93 639.702"/>
<path class="l4" d="M1075.35 639.702L1082.51 639.702"/>
<path class="l4" d="M1075.35 643.285L1082.51 643.285"/>
<path class="l4" d="M1079.83 633.432L1081.62 633.432"/>
<path class="l4" d="M1080.72 632.537L1080.72 634.328"/>
<path class="l4" d="M32.7871 448.029L32.7871 455.194"/>
<path class="l4" d="M29.2044 448.029L36.3697 448.029"/>
<path class="l4" d="M613.181 537.596L613.181 544.761"/>
<path class="l4" d="M609.598 537.596L616.764 537.596"/>
<path class="l4" d="M620.346 526.848L620.346 534.013"/>
<path class="l4" d="M616.764 526.848L623.929 526.848"/>
<path class="l4" d="M684.835 519.682L684.835 526.848"/>
<path class="l4" d="M681.252 519.682L688.417 519.682"/>
<path class="l4" d="M677.669 508.934L677.669 516.1"/>
<path class="l4" d="M674.087 508.934L681.252 508.934"/>
<path class="l4" d="M756.488 512.517L756.488 519.682"/>
<path class="l4" d="M752.906 512.517L760.071 512.517"/>
<path class="l4" d="M763.654 501.769L763.654 508.934"/>
<path class="l4" d="M760.071 501.769L767.236 501.769"/>
<path class="l4" d="M820.977 487.438L820.977 494.604"/>
<path class="l4" d="M817.394 487.438L824.559 487.438"/>
<path class="l4" d="M813.811 476.69L813.811 483.856"/>
<path class="l4" d="M810.229 476.69L817.394 476.69"/>
<path class="l4" d="M856.803 505.352L856.803 512.517"/>
<path class="l4" d="M853.221 505.352L860.386 505.352"/>
<path class="l4" d="M863.969 494.604L863.969 501.769"/>
<path class="l4" d="M860.386 494.604L867.551 494.604"/>
<path class="l4" d="M724.244 569.84L724.244 577.005"/>
<path class="l4" d="M720.662 569.84L727.827 569.84"/>
<path class="l4" d="M717.079 559.092L717.079 566.257"/>
<path class="l4" d="M713.496 559.092L720.662 559.092"/>
<path class="l4" d="M32.7871 476.69L32.7871 481.169"/>
<path class="l4" d="M30.9957 481.169L34.5784 481.169"/>
<path class="l4" d="M32.7871 482.96L34.5784 481.169"/>
<path class="l4" d="M30.9957 481.169L32.7871 482.96"/>
<path class="l4" d="M22.039 551.927L22.039 556.405"/>
<path class="l4" d="M20.2477 556.405L23.8304 556.405"/>
<path class="l4" d="M22.039 558.196L23.8304 556.405"/>
<path class="l4" d="M20.2477 556.405L22.039 558.196"/>
<path class="l4" d="M398.22 555.509L398.22 559.988"/>
<path class="l4" d="M396.429 559.988L400.012 559.988"/>
<path class="l4" d="M398.22 561.779L400.012 559.988"/>
<path class="l4" d="M396.429 559.988L398.22 561.779"/>
<path class="l4" d="M398.22 677.32L398.22 681.799"/>
<path class="l4" d="M396.429 681.799L400.012 681.799"/>
<path class="l4" d="M398.22 683.59L400.012 681.799"/>
<path class="l4" d="M396.429 681.799L398.22 683.59"/>
<path class="l4" d="M22.039 530.43L22.039 534.909"/>
<path class="l4" d="M20.2477 534.909L23.8304 534.909"/>
<path class="l4" d="M22.039 536.7L23.8304 534.909"/>
<path class="l4" d="M20.2477 534.909L22.039 536.7"/>
<path class="l4" d="M846.055 551.927L846.055 556.405"/>
<path class="l4" d="M844.264 556.405L847.847 556.405"/>
<path class="l4" d="M846.055 558.196L847.847 556.405"/>
<path class="l4" d="M844.264 556.405L846.055 558.196"/>
<path class="l4" d="M541.528 559.092L541.528 563.57"/>
<path class="l4" d="M539.736 563.57L543.319 563.57"/>
<path class="l4" d="M541.528 565.362L543.319 563.57"/>
<path class="l4" d="M539.736 563.57L541.528 565.362"/>
<path class="l4" d="M534.362 548.344L534.362 552.822"/>
<path class="l4" d="M532.571 552.822L536.154 552.822"/>
<path class="l4" d="M534.362 554.614L536.154 552.822"/>
<path class="l4" d="M532.571 552.822L534.362 554.614"/>
<path class="l4" d="M885.465 451.612L885.465 456.09"/>
<path class="l4" d="M883.673 456.09L887.256 456.09"/>
<path class="l4" d="M885.465 457.881L887.256 456.09"/>
<path class="l4" d="M883.673 456.09L885.465 457.881"/>
<path class="l4" d="M734.992 473.108L734.992 477.586"/>
<path class="l4" d="M733.201 477.586L736.784 477.586"/>
<path class="l4" d="M734.992 479.377L736.784 477.586"/>
<path class="l4" d="M733.201 477.586L734.992 479.377"/>
<path class="l4" d="M742.158 462.36L742.158 466.838"/>
<path class="l4" d="M740.366 466.838L743.949 466.838"/>
<path class="l4" d="M742.158 468.629L743.949 466.838"/>
<path class="l4" d="M740.366 466.838L742.158 468.629"/>
<path class="l4" d="M932.04 501.769L932.04 506.247"/>
<path class="l4" d="M930.248 506.247L933.831 506.247"/>
<path class="l4" d="M932.04 508.039L933.831 506.247"/>
<path class="l4" d="M930.248 506.247L932.04 508.039"/>
<path class="l4" d="M788.732 591.336L788.732 595.814"/>
<path class="l4" d="M786.941 595.814L790.524 595.814"/>
<path class="l4" d="M788.732 597.606L790.524 595.814"/>
<path class="l4" d="M786.941 595.814L788.732 597.606"/>
<path class="l4" d="M795.898 580.588L795.898 585.066"/>
<path class="l4" d="M794.106 585.066L797.689 585.066"/>
<path class="l4" d="M795.898 586.858L797.689 585.066"/>
<path class="l4" d="M794.106 585.066L795.898 586.858"/>
<path class="l4" d="M982.197 505.352L982.197 509.83"/>
<path class="l4" d="M980.406 509.83L983.988 509.83"/>
<path class="l4" d="M982.197 511.621L983.988 509.83"/>
<path class="l4" d="M980.406 509.83L982.197 511.621"/>
<path class="l4" d="M820.977 616.415L820.977 620.893"/>
<path class="l4" d="M819.185 620.893L822.768 620.893"/>
<path class="l4" d="M820.977 622.684L822.768 620.893"/>
<path class="l4" d="M819.185 620.893L820.977 622.684"/>
<path class="l4" d="M828.142 605.667L828.142 610.145"/>
<path class="l4" d="M826.351 610.145L829.933 610.145"/>
<path class="l4" d="M828.142 611.936L829.933 610.145"/>
<path class="l4" d="M826.351 610.145L828.142 611.936"/>
<path class="l4" d="M899.796 551.927L899.796 556.405"/>
<path class="l4" d="M898.004 556.405L901.587 556.405"/>
<path class="l4" d="M899.796 558.196L901.587 556.405"/>
<path class="l4" d="M898.004 556.405L899.796 558.196"/>
<path class="l4" d="M935.622 587.753L935.622 592.232"/>
<path class="l4" d="M933.831 592.232L937.414 592.232"/>
<path class="l4" d="M935.622 594.023L937.414 592.232"/>
<path class="l4" d="M933.831 592.232L935.622 594.023"/>
<path class="l4" d="M942.788 577.005L942.788 581.484"/>
<path class="l4" d="M940.996 581.484L944.579 581.484"/>
<path class="l4" d="M942.788 583.275L944.579 581.484"/>
<path class="l4" d="M940.996 581.484L942.788 583.275"/>
<path class="l4" d="M469.874 559.092L469.874 563.57"/>
<path class="l4" d="M468.083 563.57L471.665 563.57"/>
<path class="l4" d="M469.874 565.362L471.665 563.57"/>
<path class="l4" d="M468.083 563.57L469.874 565.362"/>
<path class="l4" d="M477.039 548.344L477.039 552.822"/>
<path class="l4" d="M475.248 552.822L478.831 552.822"/>
<path class="l4" d="M477.039 554.614L478.831 552.822"/>
<path class="l4" d="M475.248 552.822L477.039 554.614"/>
<path class="l5" d="M31.8914 454.299L33.6827 454.299L33.6827 456.09L31.8914 456.09L31.8914 454.299z"/>
<path class="l5" d="M31.8914 475.795L33.6827 475.795L33.6827 477.586L31.8914 477.586L31.8914 475.795z"/>
<path class="l5" d="M21.1433 529.535L22.9347 529.535L22.9347 531.326L21.1433 531.326L21.1433 529.535z"/>
<path class="l5" d="M21.1433 551.031L22.9347 551.031L22.9347 552.822L21.1433 552.822L21.1433 551.031z"/>
<path class="l5" d="M397.325 533.117L399.116 533.117L399.116 534.909L397.325 534.909L397.325 533.117z"/>
<path class="l5" d="M397.325 554.614L399.116 554.614L399.116 556.405L397.325 556.405L397.325 554.614z"/>
<path class="l5" d="M618.555 533.117L620.346 534.013L618.555 534.909L618.555 533.117"/>
<path class="l5" d="M619.451 543.865L621.242 543.865L621.242 545.657L619.451 545.657L619.451 543.865z"/>
<path class="l5" d="M605.12 533.117L606.911 533.117L606.911 534.909L605.12 534.909L605.12 533.117z"/>
<path class="l5" d="M619.451 522.369L621.242 522.369L621.242 524.161L619.451 524.161L619.451 522.369z"/>
<path class="l5" d="M620.319 533.985L620.374 533.985L620.374 534.041L620.319 534.041L620.319 533.985z"/>
<path class="l5" d="M846.055 551.031L844.264 551.927L846.055 552.822L846.055 551.031"/>
<path class="l5" d="M845.16 540.283L846.951 540.283L846.951 542.074L845.16 542.074L845.16 540.283z"/>
<path class="l5" d="M830.829 551.031L832.62 551.031L832.62 552.822L830.829 552.822L830.829 551.031z"/>
<path class="l5" d="M845.16 561.779L846.951 561.779L846.951 563.57L845.16 563.57L845.16 561.779z"/>
<path class="l5" d="M846.027 551.899L846.083 551.899L846.083 551.955L846.027 551.955L846.027 551.899z"/>
<path class="l5" d="M534.362 547.448L536.154 548.344L534.362 549.24L534.362 547.448"/>
<path class="l5" d="M533.467 536.7L535.258 536.7L535.258 538.491L533.467 538.491L533.467 536.7z"/>
<path class="l5" d="M547.797 547.448L549.589 547.448L549.589 549.24L547.797 549.24L547.797 547.448z"/>
<path class="l5" d="M533.467 558.196L535.258 558.196L535.258 559.988L533.467 559.988L533.467 558.196z"/>
<path class="l5" d="M534.334 548.316L534.39 548.316L534.39 548.372L534.334 548.372L534.334 548.316z"/>
<path class="l5" d="M1078.03 414.889L1079.83 414.889L1079.83 416.68L1078.03 416.68L1078.03 414.889z"/>
<path class="l5" d="M1078.03 436.385L1079.83 436.385L1079.83 438.176L1078.03 438.176L1078.03 436.385z"/>
<path class="l5" d="M679.461 515.204L677.669 516.1L679.461 516.995L679.461 515.204"/>
<path class="l5" d="M676.774 525.952L678.565 525.952L678.565 527.743L676.774 527.743L676.774 525.952z"/>
<path class="l5" d="M691.104 515.204L692.896 515.204L692.896 516.995L691.104 516.995L691.104 515.204z"/>
<path class="l5" d="M676.774 504.456L678.565 504.456L678.565 506.247L676.774 506.247L676.774 504.456z"/>
<path class="l5" d="M677.641 516.072L677.697 516.072L677.697 516.128L677.641 516.128L677.641 516.072z"/>
<path class="l5" d="M885.465 450.716L883.673 451.612L885.465 452.507L885.465 450.716"/>
<path class="l5" d="M884.569 439.968L886.36 439.968L886.36 441.759L884.569 441.759L884.569 439.968z"/>
<path class="l5" d="M870.238 450.716L872.03 450.716L872.03 452.507L870.238 452.507L870.238 450.716z"/>
<path class="l5" d="M884.569 461.464L886.36 461.464L886.36 463.255L884.569 463.255L884.569 461.464z"/>
<path class="l5" d="M885.437 451.584L885.493 451.584L885.493 451.639L885.437 451.639L885.437 451.584z"/>
<path class="l5" d="M742.158 461.464L740.366 462.36L742.158 463.255L742.158 461.464"/>
<path class="l5" d="M741.262 450.716L743.053 450.716L743.053 452.507L741.262 452.507L741.262 450.716z"/>
<path class="l5" d="M726.931 461.464L728.723 461.464L728.723 463.255L726.931 463.255L726.931 461.464z"/>
<path class="l5" d="M741.262 472.212L743.053 472.212L743.053 474.003L741.262 474.003L741.262 472.212z"/>
<path class="l5" d="M742.13 462.332L742.186 462.332L742.186 462.388L742.13 462.388L742.13 462.332z"/>
<path class="l5" d="M1078.03 468.629L1079.83 468.629L1079.83 470.421L1078.03 470.421L1078.03 468.629z"/>
<path class="l5" d="M1078.03 490.125L1079.83 490.125L1079.83 491.917L1078.03 491.917L1078.03 490.125z"/>
<path class="l5" d="M761.862 508.039L763.654 508.934L761.862 509.83L761.862 508.039"/>
<path class="l5" d="M762.758 518.787L764.549 518.787L764.549 520.578L762.758 520.578L762.758 518.787z"/>
<path class="l5" d="M748.427 508.039L750.219 508.039L750.219 509.83L748.427 509.83L748.427 508.039z"/>
<path class="l5" d="M762.758 497.291L764.549 497.291L764.549 499.082L762.758 499.082L762.758 497.291z"/>
<path class="l5" d="M763.626 508.906L763.682 508.906L763.682 508.962L763.626 508.962L763.626 508.906z"/>
<path class="l5" d="M932.04 500.873L930.248 501.769L932.04 502.665L932.04 500.873"/>
<path class="l5" d="M931.144 490.125L932.935 490.125L932.935 491.917L931.144 491.917L931.144 490.125z"/>
<path class="l5" d="M916.813 500.873L918.605 500.873L918.605 502.665L916.813 502.665L916.813 500.873z"/>
<path class="l5" d="M931.144 511.621L932.935 511.621L932.935 513.413L931.144 513.413L931.144 511.621z"/>
<path class="l5" d="M932.012 501.741L932.068 501.741L932.068 501.797L932.012 501.797L932.012 501.741z"/>
<path class="l5" d="M795.898 579.692L794.106 580.588L795.898 581.484L795.898 579.692"/>
<path class="l5" d="M795.002 568.944L796.793 568.944L796.793 570.736L795.002 570.736L795.002 568.944z"/>
<path class="l5" d="M780.671 579.692L782.463 579.692L782.463 581.484L780.671 581.484L780.671 579.692z"/>
<path class="l5" d="M795.002 590.44L796.793 590.44L796.793 592.232L795.002 592.232L795.002 590.44z"/>
<path class="l5" d="M795.87 580.56L795.926 580.56L795.926 580.616L795.87 580.616L795.87 580.56z"/>
<path class="l5" d="M1078.03 493.708L1079.83 493.708L1079.83 495.499L1078.03 495.499L1078.03 493.708z"/>
<path class="l5" d="M1078.03 515.204L1079.83 515.204L1079.83 516.995L1078.03 516.995L1078.03 515.204z"/>
<path class="l5" d="M815.603 482.96L813.811 483.856L815.603 484.751L815.603 482.96"/>
<path class="l5" d="M812.916 493.708L814.707 493.708L814.707 495.499L812.916 495.499L812.916 493.708z"/>
<path class="l5" d="M827.246 482.96L829.038 482.96L829.038 484.751L827.246 484.751L827.246 482.96z"/>
<path class="l5" d="M812.916 472.212L814.707 472.212L814.707 474.003L812.916 474.003L812.916 472.212z"/>
<path class="l5" d="M813.783 483.828L813.839 483.828L813.839 483.884L813.783 483.884L813.783 483.828z"/>
<path class="l5" d="M982.197 504.456L980.406 505.352L982.197 506.247L982.197 504.456"/>
<path class="l5" d="M981.301 493.708L983.093 493.708L983.093 495.499L981.301 495.499L981.301 493.708z"/>
<path class="l5" d="M966.971 504.456L968.762 504.456L968.762 506.247L966.971 506.247L966.971 504.456z"/>
<path class="l5" d="M981.301 515.204L983.093 515.204L983.093 516.995L981.301 516.995L981.301 515.204z"/>
<path class="l5" d="M982.169 505.324L982.225 505.324L982.225 505.38L982.169 505.38L982.169 505.324z"/>
<path class="l5" d="M828.142 604.771L826.351 605.667L828.142 606.562L828.142 604.771"/>
<path class="l5" d="M827.246 594.023L829.038 594.023L829.038 595.814L827.246 595.814L827.246 594.023z"/>
<path class="l5" d="M812.916 604.771L814.707 604.771L814.707 606.562L812.916 606.562L812.916 604.771z"/>
<path class="l5" d="M827.246 615.519L829.038 615.519L829.038 617.31L827.246 617.31L827.246 615.519z"/>
<path class="l5" d="M828.114 605.639L828.17 605.639L828.17 605.695L828.114 605.695L828.114 605.639z"/>
<path class="l5" d="M1078.03 536.7L1079.83 536.7L1079.83 538.491L1078.03 538.491L1078.03 536.7z"/>
<path class="l5" d="M1078.03 558.196L1079.83 558.196L1079.83 559.988L1078.03 559.988L1078.03 558.196z"/>
<path class="l5" d="M862.177 500.873L863.969 501.769L862.177 502.665L862.177 500.873"/>
<path class="l5" d="M863.073 511.621L864.864 511.621L864.864 513.413L863.073 513.413L863.073 511.621z"/>
<path class="l5" d="M848.742 500.873L850.534 500.873L850.534 502.665L848.742 502.665L848.742 500.873z"/>
<path class="l5" d="M863.073 490.125L864.864 490.125L864.864 491.917L863.073 491.917L863.073 490.125z"/>
<path class="l5" d="M863.941 501.741L863.997 501.741L863.997 501.797L863.941 501.797L863.941 501.741z"/>
<path class="l5" d="M899.796 551.031L898.004 551.927L899.796 552.822L899.796 551.031"/>
<path class="l5" d="M898.9 540.283L900.691 540.283L900.691 542.074L898.9 542.074L898.9 540.283z"/>
<path class="l5" d="M884.569 551.031L886.36 551.031L886.36 552.822L884.569 552.822L884.569 551.031z"/>
<path class="l5" d="M898.9 561.779L900.691 561.779L900.691 563.57L898.9 563.57L898.9 561.779z"/>
<path class="l5" d="M899.768 551.899L899.823 551.899L899.823 551.955L899.768 551.955L899.768 551.899z"/>
<path class="l5" d="M942.788 576.11L940.996 577.005L942.788 577.901L942.788 576.11"/>
<path class="l5" d="M941.892 565.362L943.683 565.362L943.683 567.153L941.892 567.153L941.892 565.362z"/>
<path class="l5" d="M927.561 576.11L929.353 576.11L929.353 577.901L927.561 577.901L927.561 576.11z"/>
<path class="l5" d="M941.892 586.858L943.683 586.858L943.683 588.649L941.892 588.649L941.892 586.858z"/>
<path class="l5" d="M942.76 576.977L942.816 576.977L942.816 577.033L942.76 577.033L942.76 576.977z"/>
<path class="l5" d="M1078.03 568.944L1079.83 568.944L1079.83 570.736L1078.03 570.736L1078.03 568.944z"/>
<path class="l5" d="M1078.03 590.44L1079.83 590.44L1079.83 592.232L1078.03 592.232L1078.03 590.44z"/>
<path class="l5" d="M718.87 565.362L717.079 566.257L718.87 567.153L718.87 565.362"/>
<path class="l5" d="M716.183 576.11L717.975 576.11L717.975 577.901L716.183 577.901L716.183 576.11z"/>
<path class="l5" d="M730.514 565.362L732.305 565.362L732.305 567.153L730.514 567.153L730.514 565.362z"/>
<path class="l5" d="M716.183 554.614L717.975 554.614L717.975 556.405L716.183 556.405L716.183 554.614z"/>
<path class="l5" d="M717.051 566.229L717.107 566.229L717.107 566.285L717.051 566.285L717.051 566.229z"/>
<path class="l5" d="M477.039 547.448L475.248 548.344L477.039 549.24L477.039 547.448"/>
<path class="l5" d="M476.144 536.7L477.935 536.7L477.935 538.491L476.144 538.491L476.144 536.7z"/>
<path class="l5" d="M461.813 547.448L463.604 547.448L463.604 549.24L461.813 549.24L461.813 547.448z"/>
<path class="l5" d="M476.144 558.196L477.935 558.196L477.935 559.988L476.144 559.988L476.144 558.196z"/>
<path class="l5" d="M477.011 548.316L477.067 548.316L477.067 548.372L477.011 548.372L477.011 548.316z"/>
<path class="l5" d="M397.325 654.929L399.116 654.929L399.116 656.72L397.325 656.72L397.325 654.929z"/>
<path class="l5" d="M397.325 676.425L399.116 676.425L399.116 678.216L397.325 678.216L397.325 676.425z"/>
<path class="l5" d="M1078.03 629.85L1079.83 629.85L1079.83 631.641L1078.03 631.641L1078.03 629.85z"/>
<path class="l5" d="M1078.03 651.346L1079.83 651.346L1079.83 653.137L1078.03 653.137L1078.03 651.346z"/>
<path class="l5" d="M31.8914 454.299L33.6827 454.299L33.6827 456.09L31.8914 456.09L31.8914 454.299z"/>
<path class="l5" d="M612.285 543.865L614.077 543.865L614.077 545.657L612.285 545.657L612.285 543.865z"/>
<path class="l5" d="M619.451 533.117L621.242 533.117L621.242 534.909L619.451 534.909L619.451 533.117z"/>
<path class="l5" d="M683.939 525.952L685.73 525.952L685.73 527.743L683.939 527.743L683.939 525.952z"/>
<path class="l5" d="M676.774 515.204L678.565 515.204L678.565 516.995L676.774 516.995L676.774 515.204z"/>
<path class="l5" d="M755.593 518.787L757.384 518.787L757.384 520.578L755.593 520.578L755.593 518.787z"/>
<path class="l5" d="M762.758 508.039L764.549 508.039L764.549 509.83L762.758 509.83L762.758 508.039z"/>
<path class="l5" d="M820.081 493.708L821.872 493.708L821.872 495.499L820.081 495.499L820.081 493.708z"/>
<path class="l5" d="M812.916 482.96L814.707 482.96L814.707 484.751L812.916 484.751L812.916 482.96z"/>
<path class="l5" d="M855.908 511.621L857.699 511.621L857.699 513.413L855.908 513.413L855.908 511.621z"/>
<path class="l5" d="M863.073 500.873L864.864 500.873L864.864 502.665L863.073 502.665L863.073 500.873z"/>
<path class="l5" d="M723.349 576.11L725.14 576.11L725.14 577.901L723.349 577.901L723.349 576.11z"/>
<path class="l5" d="M716.183 565.362L717.975 565.362L717.975 567.153L716.183 567.153L716.183 565.362z"/>
<path class="l5" d="M31.8914 475.795L33.6827 475.795L33.6827 477.586L31.8914 477.586L31.8914 475.795z"/>
<path class="l5" d="M21.1433 551.031L22.9347 551.031L22.9347 552.822L21.1433 552.822L21.1433 551.031z"/>
<path class="l5" d="M397.325 554.614L399.116 554.614L399.116 556.405L397.325 556.405L397.325 554.614z"/>
<path class="l5" d="M397.325 676.425L399.116 676.425L399.116 678.216L397.325 678.216L397.325 676.425z"/>
<path class="l5" d="M21.1433 529.535L22.9347 529.535L22.9347 531.326L21.1433 531.326L21.1433 529.535z"/>
<path class="l5" d="M845.16 551.031L846.951 551.031L846.951 552.822L845.16 552.822L845.16 551.031z"/>
<path class="l5" d="M540.632 558.196L542.423 558.196L542.423 559.988L540.632 559.988L540.632 558.196z"/>
<path class="l5" d="M533.467 547.448L535.258 547.448L535.258 549.24L533.467 549.24L533.467 547.448z"/>
<path class="l5" d="M884.569 450.716L886.36 450.716L886.36 452.507L884.569 452.507L884.569 450.716z"/>
<path class="l5" d="M734.097 472.212L735.888 472.212L735.888 474.003L734.097 474.003L734.097 472.212z"/>
<path class="l5" d="M741.262 461.464L743.053 461.464L743.053 463.255L741.262 463.255L741.262 461.464z"/>
<path class="l5" d="M931.144 500.873L932.935 500.873L932.935 502.665L931.144 502.665L931.144 500.873z"/>
<path class="l5" d="M787.837 590.44L789.628 590.44L789.628 592.232L787.837 592.232L787.837 590.44z"/>
<path class="l5" d="M795.002 579.692L796.793 579.692L796.793 581.484L795.002 581.484L795.002 579.692z"/>
<path class="l5" d="M981.301 504.456L983.093 504.456L983.093 506.247L981.301 506.247L981.301 504.456z"/>
<path class="l5" d="M820.081 615.519L821.872 615.519L821.872 617.31L820.081 617.31L820.081 615.519z"/>
<path class="l5" d="M827.246 604.771L829.038 604.771L829.038 606.562L827.246 606.562L827.246 604.771z"/>
<path class="l5" d="M898.9 551.031L900.691 551.031L900.691 552.822L898.9 552.822L898.9 551.031z"/>
<path class="l5" d="M934.727 586.858L936.518 586.858L936.518 588.649L934.727 588.649L934.727 586.858z"/>
<path class="l5" d="M941.892 576.11L943.683 576.11L943.683 577.901L941.892 577.901L941.892 576.11z"/>
<path class="l5" d="M468.978 558.196L470.77 558.196L470.77 559.988L468.978 559.988L468.978 558.196z"/>
<path class="l5" d="M476.144 547.448L477.935 547.448L477.935 549.24L476.144 549.24L476.144 547.448z"/>
<path class="l5" d="M397.773 533.565L398.668 533.565L398.668 534.461L397.773 534.461L397.773 533.565z"/>
<path class="l5" d="M548.245 547.896L549.141 547.896L549.141 548.792L548.245 548.792L548.245 547.896z"/>
<path class="l5" d="M727.379 461.912L728.275 461.912L728.275 462.807L727.379 462.807L727.379 461.912z"/>
<path class="l5" d="M781.119 580.14L782.015 580.14L782.015 581.036L781.119 581.036L781.119 580.14z"/>
<path class="l5" d="M813.363 605.219L814.259 605.219L814.259 606.115L813.363 606.115L813.363 605.219z"/>
<path class="l5" d="M928.009 576.557L928.905 576.557L928.905 577.453L928.009 577.453L928.009 576.557z"/>
<path class="l5" d="M612.733 522.817L613.629 522.817L613.629 523.713L612.733 523.713L612.733 522.817z"/>
<path class="l5" d="M838.442 540.731L839.338 540.731L839.338 541.626L838.442 541.626L838.442 540.731z"/>
<path class="l5" d="M1078.48 415.337L1079.38 415.337L1079.38 416.233L1078.48 416.233L1078.48 415.337z"/>
<path class="l5" d="M691.552 515.652L692.448 515.652L692.448 516.548L691.552 516.548L691.552 515.652z"/>
<path class="l5" d="M870.686 451.164L871.582 451.164L871.582 452.059L870.686 452.059L870.686 451.164z"/>
<path class="l5" d="M1078.48 558.644L1079.38 558.644L1079.38 559.54L1078.48 559.54L1078.48 558.644z"/>
<path class="l5" d="M1078.48 630.298L1079.38 630.298L1079.38 631.193L1078.48 631.193L1078.48 630.298z"/>
<path class="l5" d="M605.568 533.565L606.464 533.565L606.464 534.461L605.568 534.461L605.568 533.565z"/>
<path class="l5" d="M831.277 551.479L832.172 551.479L832.172 552.374L831.277 552.374L831.277 551.479z"/>
<path class="l5" d="M1078.48 515.652L1079.38 515.652L1079.38 516.548L1078.48 516.548L1078.48 515.652z"/>
<path class="l5" d="M856.356 490.573L857.251 490.573L857.251 491.469L856.356 491.469L856.356 490.573z"/>
<path class="l5" d="M892.182 540.731L893.078 540.731L893.078 541.626L892.182 541.626L892.182 540.731z"/>
<path class="l5" d="M1078.48 569.392L1079.38 569.392L1079.38 570.288L1078.48 570.288L1078.48 569.392z"/>
<path class="l5" d="M730.962 565.809L731.857 565.809L731.857 566.705L730.962 566.705L730.962 565.809z"/>
<path class="l5" d="M462.261 547.896L463.156 547.896L463.156 548.792L462.261 548.792L462.261 547.896z"/>
<path class="l5" d="M838.442 562.227L839.338 562.227L839.338 563.122L838.442 563.122L838.442 562.227z"/>
<path class="l5" d="M541.08 537.148L541.975 537.148L541.975 538.044L541.08 538.044L541.08 537.148z"/>
<path class="l5" d="M1078.48 436.833L1079.38 436.833L1079.38 437.729L1078.48 437.729L1078.48 436.833z"/>
<path class="l5" d="M756.04 497.738L756.936 497.738L756.936 498.634L756.04 498.634L756.04 497.738z"/>
<path class="l5" d="M924.426 490.573L925.322 490.573L925.322 491.469L924.426 491.469L924.426 490.573z"/>
<path class="l5" d="M1078.48 494.156L1079.38 494.156L1079.38 495.051L1078.48 495.051L1078.48 494.156z"/>
<path class="l5" d="M827.694 483.408L828.59 483.408L828.59 484.303L827.694 484.303L827.694 483.408z"/>
<path class="l5" d="M967.419 504.904L968.314 504.904L968.314 505.8L967.419 505.8L967.419 504.904z"/>
<path class="l5" d="M684.387 504.904L685.283 504.904L685.283 505.8L684.387 505.8L684.387 504.904z"/>
<path class="l5" d="M877.852 440.416L878.747 440.416L878.747 441.311L877.852 441.311L877.852 440.416z"/>
<path class="l5" d="M1078.48 469.077L1079.38 469.077L1079.38 469.973L1078.48 469.973L1078.48 469.077z"/>
<path class="l5" d="M748.875 508.487L749.771 508.487L749.771 509.382L748.875 509.382L748.875 508.487z"/>
<path class="l5" d="M917.261 501.321L918.157 501.321L918.157 502.217L917.261 502.217L917.261 501.321z"/>
<path class="l5" d="M1078.48 590.888L1079.38 590.888L1079.38 591.784L1078.48 591.784L1078.48 590.888z"/>
<path class="l5" d="M1078.48 490.573L1079.38 490.573L1079.38 491.469L1078.48 491.469L1078.48 490.573z"/>
<path class="l5" d="M820.529 472.66L821.424 472.66L821.424 473.555L820.529 473.555L820.529 472.66z"/>
<path class="l5" d="M974.584 494.156L975.48 494.156L975.48 495.051L974.584 495.051L974.584 494.156z"/>
<path class="l5" d="M1078.48 537.148L1079.38 537.148L1079.38 538.044L1078.48 538.044L1078.48 537.148z"/>
<path class="l5" d="M849.19 501.321L850.086 501.321L850.086 502.217L849.19 502.217L849.19 501.321z"/>
<path class="l5" d="M885.017 551.479L885.913 551.479L885.913 552.374L885.017 552.374L885.017 551.479z"/>
<path class="l5" d="M397.773 655.376L398.668 655.376L398.668 656.272L397.773 656.272L397.773 655.376z"/>
<path class="l5" d="M1078.48 651.794L1079.38 651.794L1079.38 652.689L1078.48 652.689L1078.48 651.794z"/>
<text fill="#cccccc"  xml:space="preserve" font-size="3.72599" transform="translate(39.9524, 462.608)" >Vdd</text>
<text fill="#cccccc"  xml:space="preserve" font-size="3.72599" transform="translate(39.9524, 471.565)" >1.8</text>
<text fill="#cccccc"  xml:space="preserve" font-size="3.72599" transform="translate(29.2044, 537.844)" >Vss</text>
<text fill="#cccccc"  xml:space="preserve" font-size="3.72599" transform="translate(29.2044, 546.801)" >0</text>
<text fill="#cccccc"  xml:space="preserve" font-size="3.72599" transform="translate(405.386, 541.427)" >Vctrl</text>
<text fill="#cccccc"  xml:space="preserve" font-size="3.72599" transform="translate(405.386, 550.384)" >0.9</text>
<text fill="#cccccc"  xml:space="preserve" font-size="3.72599" transform="translate(603.972, 526.648)" >XMp1</text>
<text fill="#ff0000"  xml:space="preserve" font-size="2.79449" transform="translate(621.242, 542.82)" >D</text>
<text fill="#ff0000"  xml:space="preserve" font-size="2.79449" transform="translate(621.242, 527.076)" >S</text>
<text fill="#ff0000"  xml:space="preserve" font-size="2.79449" transform="translate(620.346, 532.968)" >B</text>
<text fill="#ff0000"  xml:space="preserve" font-size="2.79449" transform="translate(607.598, 532.968)" >G</text>
<text fill="#cccccc"  xml:space="preserve" font-size="3.72599" transform="translate(623.929, 529.988)" >pfet_01v8</text>
<text fill="#aaaa00"  xml:space="preserve" font-size="3.72599" transform="translate(624.377, 542.323)" >1 x {Wp / 0.15</text>
<text fill="#aaaa00"  xml:space="preserve" font-size="3.72599" transform="translate(624.377, 537.844)" >nf=1</text>
<text fill="#00ffcc"  xml:space="preserve" font-size="2.79449" transform="translate(623.929, 525.802)" >id=-</text>
<text fill="#ff7777"  xml:space="preserve" font-size="2.79449" transform="translate(623.929, 532.968)" >gm=-</text>
<text fill="#ff7777"  xml:space="preserve" font-size="1.3041" transform="translate(609.972, 541.467)" >vgs= -  </text>
<text fill="#ff7777"  xml:space="preserve" font-size="1.3041" transform="translate(609.972, 542.963)" >vds= -  </text>
<text fill="#cccccc"  xml:space="preserve" font-size="3.72599" transform="translate(829.681, 544.562)" >XMn1</text>
<text fill="#ff0000"  xml:space="preserve" font-size="2.79449" transform="translate(846.951, 560.734)" >S</text>
<text fill="#ff0000"  xml:space="preserve" font-size="2.79449" transform="translate(846.951, 544.989)" >D</text>
<text fill="#ff0000"  xml:space="preserve" font-size="2.79449" transform="translate(846.055, 550.881)" >B</text>
<text fill="#ff0000"  xml:space="preserve" font-size="2.79449" transform="translate(833.307, 550.881)" >G</text>
<text fill="#cccccc"  xml:space="preserve" font-size="3.72599" transform="translate(849.638, 547.901)" >nfet_01v8</text>
<text fill="#aaaa00"  xml:space="preserve" font-size="3.72599" transform="translate(850.086, 560.236)" >1 x {Wn / 0.15</text>
<text fill="#aaaa00"  xml:space="preserve" font-size="3.72599" transform="translate(850.086, 555.758)" >nf=1</text>
<text fill="#00ffcc"  xml:space="preserve" font-size="2.79449" transform="translate(849.638, 543.716)" >id=-</text>
<text fill="#ff7777"  xml:space="preserve" font-size="2.79449" transform="translate(849.638, 550.881)" >gm=-</text>
<text fill="#ff7777"  xml:space="preserve" font-size="1.3041" transform="translate(835.681, 559.38)" >vgs= -  </text>
<text fill="#ff7777"  xml:space="preserve" font-size="1.3041" transform="translate(835.681, 560.876)" >vds= -  </text>
<text fill="#cccccc"  xml:space="preserve" font-size="3.72599" transform="translate(539.736, 540.979)" >XMsn1</text>
<text fill="#ff0000"  xml:space="preserve" font-size="2.79449" transform="translate(531.467, 557.151)" >S</text>
<text fill="#ff0000"  xml:space="preserve" font-size="2.79449" transform="translate(531.467, 541.406)" >D</text>
<text fill="#ff0000"  xml:space="preserve" font-size="2.79449" transform="translate(532.362, 547.299)" >B</text>
<text fill="#ff0000"  xml:space="preserve" font-size="2.79449" transform="translate(545.11, 547.299)" >G</text>
<text fill="#cccccc"  xml:space="preserve" font-size="3.72599" transform="translate(513.78, 544.318)" >nfet_01v8</text>
<text fill="#aaaa00"  xml:space="preserve" font-size="3.72599" transform="translate(505.332, 556.653)" >1 x {Ws / 0.15</text>
<text fill="#aaaa00"  xml:space="preserve" font-size="3.72599" transform="translate(521.332, 552.175)" >nf=1</text>
<text fill="#00ffcc"  xml:space="preserve" font-size="2.79449" transform="translate(524.78, 540.133)" >id=-</text>
<text fill="#ff7777"  xml:space="preserve" font-size="2.79449" transform="translate(522.78, 547.299)" >gm=-</text>
<text fill="#ff7777"  xml:space="preserve" font-size="1.3041" transform="translate(539.736, 555.798)" >vgs= -  </text>
<text fill="#ff7777"  xml:space="preserve" font-size="1.3041" transform="translate(539.736, 557.293)" >vds= -  </text>
<text fill="#aaaa00"  xml:space="preserve" font-size="3.72599" transform="translate(1074.14, 420.511)" >1</text>
<text fill="#aaaa00"  xml:space="preserve" font-size="3.72599" transform="translate(1075.14, 435.738)" >2</text>
<text fill="#cccccc"  xml:space="preserve" font-size="3.72599" transform="translate(1084.3, 423.198)" >Cc1</text>
<text fill="#cccccc"  xml:space="preserve" font-size="3.72599" transform="translate(1084.3, 427.677)" >{Cc</text>
<text fill="#cccccc"  xml:space="preserve" font-size="3.72599" transform="translate(1084.3, 432.155)" >m=1</text>
<text fill="#cccccc"  xml:space="preserve" font-size="3.72599" transform="translate(683.043, 508.735)" >XMp2</text>
<text fill="#ff0000"  xml:space="preserve" font-size="2.79449" transform="translate(674.774, 524.907)" >D</text>
<text fill="#ff0000"  xml:space="preserve" font-size="2.79449" transform="translate(674.774, 509.162)" >S</text>
<text fill="#ff0000"  xml:space="preserve" font-size="2.79449" transform="translate(675.669, 515.054)" >B</text>
<text fill="#ff0000"  xml:space="preserve" font-size="2.79449" transform="translate(688.417, 515.054)" >G</text>
<text fill="#cccccc"  xml:space="preserve" font-size="3.72599" transform="translate(657.087, 512.074)" >pfet_01v8</text>
<text fill="#aaaa00"  xml:space="preserve" font-size="3.72599" transform="translate(648.639, 524.409)" >1 x {Wp / 0.15</text>
<text fill="#aaaa00"  xml:space="preserve" font-size="3.72599" transform="translate(664.639, 519.931)" >nf=1</text>
<text fill="#00ffcc"  xml:space="preserve" font-size="2.79449" transform="translate(668.087, 507.889)" >id=-</text>
<text fill="#ff7777"  xml:space="preserve" font-size="2.79449" transform="translate(666.087, 515.054)" >gm=-</text>
<text fill="#ff7777"  xml:space="preserve" font-size="1.3041" transform="translate(683.043, 523.554)" >vgs= -  </text>
<text fill="#ff7777"  xml:space="preserve" font-size="1.3041" transform="translate(683.043, 525.049)" >vds= -  </text>
<text fill="#cccccc"  xml:space="preserve" font-size="3.72599" transform="translate(870.091, 444.247)" >XMn2</text>
<text fill="#ff0000"  xml:space="preserve" font-size="2.79449" transform="translate(886.36, 460.419)" >S</text>
<text fill="#ff0000"  xml:space="preserve" font-size="2.79449" transform="translate(886.36, 444.674)" >D</text>
<text fill="#ff0000"  xml:space="preserve" font-size="2.79449" transform="translate(885.465, 450.566)" >B</text>
<text fill="#ff0000"  xml:space="preserve" font-size="2.79449" transform="translate(872.717, 450.566)" >G</text>
<text fill="#cccccc"  xml:space="preserve" font-size="3.72599" transform="translate(889.047, 447.586)" >nfet_01v8</text>
<text fill="#aaaa00"  xml:space="preserve" font-size="3.72599" transform="translate(889.495, 459.921)" >1 x {Wn / 0.15</text>
<text fill="#aaaa00"  xml:space="preserve" font-size="3.72599" transform="translate(889.495, 455.443)" >nf=1</text>
<text fill="#00ffcc"  xml:space="preserve" font-size="2.79449" transform="translate(889.047, 443.401)" >id=-</text>
<text fill="#ff7777"  xml:space="preserve" font-size="2.79449" transform="translate(889.047, 450.566)" >gm=-</text>
<text fill="#ff7777"  xml:space="preserve" font-size="1.3041" transform="translate(875.091, 459.065)" >vgs= -  </text>
<text fill="#ff7777"  xml:space="preserve" font-size="1.3041" transform="translate(875.091, 460.561)" >vds= -  </text>
<text fill="#cccccc"  xml:space="preserve" font-size="3.72599" transform="translate(724.784, 454.995)" >XMsn2</text>
<text fill="#ff0000"  xml:space="preserve" font-size="2.79449" transform="translate(743.053, 471.167)" >S</text>
<text fill="#ff0000"  xml:space="preserve" font-size="2.79449" transform="translate(743.053, 455.422)" >D</text>
<text fill="#ff0000"  xml:space="preserve" font-size="2.79449" transform="translate(742.158, 461.314)" >B</text>
<text fill="#ff0000"  xml:space="preserve" font-size="2.79449" transform="translate(729.41, 461.314)" >G</text>
<text fill="#cccccc"  xml:space="preserve" font-size="3.72599" transform="translate(745.74, 458.334)" >nfet_01v8</text>
<text fill="#aaaa00"  xml:space="preserve" font-size="3.72599" transform="translate(746.188, 470.669)" >1 x {Ws / 0.15</text>
<text fill="#aaaa00"  xml:space="preserve" font-size="3.72599" transform="translate(746.188, 466.191)" >nf=1</text>
<text fill="#00ffcc"  xml:space="preserve" font-size="2.79449" transform="translate(745.74, 454.149)" >id=-</text>
<text fill="#ff7777"  xml:space="preserve" font-size="2.79449" transform="translate(745.74, 461.314)" >gm=-</text>
<text fill="#ff7777"  xml:space="preserve" font-size="1.3041" transform="translate(731.784, 469.813)" >vgs= -  </text>
<text fill="#ff7777"  xml:space="preserve" font-size="1.3041" transform="translate(731.784, 471.309)" >vds= -  </text>
<text fill="#aaaa00"  xml:space="preserve" font-size="3.72599" transform="translate(1074.14, 474.252)" >1</text>
<text fill="#aaaa00"  xml:space="preserve" font-size="3.72599" transform="translate(1075.14, 489.478)" >2</text>
<text fill="#cccccc"  xml:space="preserve" font-size="3.72599" transform="translate(1084.3, 476.939)" >Cc2</text>
<text fill="#cccccc"  xml:space="preserve" font-size="3.72599" transform="translate(1084.3, 481.417)" >{Cc</text>
<text fill="#cccccc"  xml:space="preserve" font-size="3.72599" transform="translate(1084.3, 485.895)" >m=1</text>
<text fill="#cccccc"  xml:space="preserve" font-size="3.72599" transform="translate(747.28, 501.57)" >XMp3</text>
<text fill="#ff0000"  xml:space="preserve" font-size="2.79449" transform="translate(764.549, 517.741)" >D</text>
<text fill="#ff0000"  xml:space="preserve" font-size="2.79449" transform="translate(764.549, 501.997)" >S</text>
<text fill="#ff0000"  xml:space="preserve" font-size="2.79449" transform="translate(763.654, 507.889)" >B</text>
<text fill="#ff0000"  xml:space="preserve" font-size="2.79449" transform="translate(750.906, 507.889)" >G</text>
<text fill="#cccccc"  xml:space="preserve" font-size="3.72599" transform="translate(767.236, 504.909)" >pfet_01v8</text>
<text fill="#aaaa00"  xml:space="preserve" font-size="3.72599" transform="translate(767.684, 517.244)" >1 x {Wp / 0.15</text>
<text fill="#aaaa00"  xml:space="preserve" font-size="3.72599" transform="translate(767.684, 512.765)" >nf=1</text>
<text fill="#00ffcc"  xml:space="preserve" font-size="2.79449" transform="translate(767.236, 500.724)" >id=-</text>
<text fill="#ff7777"  xml:space="preserve" font-size="2.79449" transform="translate(767.236, 507.889)" >gm=-</text>
<text fill="#ff7777"  xml:space="preserve" font-size="1.3041" transform="translate(753.28, 516.388)" >vgs= -  </text>
<text fill="#ff7777"  xml:space="preserve" font-size="1.3041" transform="translate(753.28, 517.884)" >vds= -  </text>
<text fill="#cccccc"  xml:space="preserve" font-size="3.72599" transform="translate(915.666, 494.404)" >XMn3</text>
<text fill="#ff0000"  xml:space="preserve" font-size="2.79449" transform="translate(932.935, 510.576)" >S</text>
<text fill="#ff0000"  xml:space="preserve" font-size="2.79449" transform="translate(932.935, 494.831)" >D</text>
<text fill="#ff0000"  xml:space="preserve" font-size="2.79449" transform="translate(932.04, 500.724)" >B</text>
<text fill="#ff0000"  xml:space="preserve" font-size="2.79449" transform="translate(919.292, 500.724)" >G</text>
<text fill="#cccccc"  xml:space="preserve" font-size="3.72599" transform="translate(935.622, 497.744)" >nfet_01v8</text>
<text fill="#aaaa00"  xml:space="preserve" font-size="3.72599" transform="translate(936.07, 510.078)" >1 x {Wn / 0.15</text>
<text fill="#aaaa00"  xml:space="preserve" font-size="3.72599" transform="translate(936.07, 505.6)" >nf=1</text>
<text fill="#00ffcc"  xml:space="preserve" font-size="2.79449" transform="translate(935.622, 493.558)" >id=-</text>
<text fill="#ff7777"  xml:space="preserve" font-size="2.79449" transform="translate(935.622, 500.724)" >gm=-</text>
<text fill="#ff7777"  xml:space="preserve" font-size="1.3041" transform="translate(921.666, 509.223)" >vgs= -  </text>
<text fill="#ff7777"  xml:space="preserve" font-size="1.3041" transform="translate(921.666, 510.719)" >vds= -  </text>
<text fill="#cccccc"  xml:space="preserve" font-size="3.72599" transform="translate(777.524, 573.223)" >XMsn3</text>
<text fill="#ff0000"  xml:space="preserve" font-size="2.79449" transform="translate(796.793, 589.395)" >S</text>
<text fill="#ff0000"  xml:space="preserve" font-size="2.79449" transform="translate(796.793, 573.65)" >D</text>
<text fill="#ff0000"  xml:space="preserve" font-size="2.79449" transform="translate(795.898, 579.543)" >B</text>
<text fill="#ff0000"  xml:space="preserve" font-size="2.79449" transform="translate(783.15, 579.543)" >G</text>
<text fill="#cccccc"  xml:space="preserve" font-size="3.72599" transform="translate(799.48, 576.563)" >nfet_01v8</text>
<text fill="#aaaa00"  xml:space="preserve" font-size="3.72599" transform="translate(799.928, 588.897)" >1 x {Ws / 0.15</text>
<text fill="#aaaa00"  xml:space="preserve" font-size="3.72599" transform="translate(799.928, 584.419)" >nf=1</text>
<text fill="#00ffcc"  xml:space="preserve" font-size="2.79449" transform="translate(799.48, 572.377)" >id=-</text>
<text fill="#ff7777"  xml:space="preserve" font-size="2.79449" transform="translate(799.48, 579.543)" >gm=-</text>
<text fill="#ff7777"  xml:space="preserve" font-size="1.3041" transform="translate(785.524, 588.042)" >vgs= -  </text>
<text fill="#ff7777"  xml:space="preserve" font-size="1.3041" transform="translate(785.524, 589.538)" >vds= -  </text>
<text fill="#aaaa00"  xml:space="preserve" font-size="3.72599" transform="translate(1074.14, 499.33)" >1</text>
<text fill="#aaaa00"  xml:space="preserve" font-size="3.72599" transform="translate(1075.14, 514.557)" >2</text>
<text fill="#cccccc"  xml:space="preserve" font-size="3.72599" transform="translate(1084.3, 502.017)" >Cc3</text>
<text fill="#cccccc"  xml:space="preserve" font-size="3.72599" transform="translate(1084.3, 506.496)" >{Cc</text>
<text fill="#cccccc"  xml:space="preserve" font-size="3.72599" transform="translate(1084.3, 510.974)" >m=1</text>
<text fill="#cccccc"  xml:space="preserve" font-size="3.72599" transform="translate(819.185, 476.491)" >XMp4</text>
<text fill="#ff0000"  xml:space="preserve" font-size="2.79449" transform="translate(810.916, 492.663)" >D</text>
<text fill="#ff0000"  xml:space="preserve" font-size="2.79449" transform="translate(810.916, 476.918)" >S</text>
<text fill="#ff0000"  xml:space="preserve" font-size="2.79449" transform="translate(811.811, 482.81)" >B</text>
<text fill="#ff0000"  xml:space="preserve" font-size="2.79449" transform="translate(824.559, 482.81)" >G</text>
<text fill="#cccccc"  xml:space="preserve" font-size="3.72599" transform="translate(793.229, 479.83)" >pfet_01v8</text>
<text fill="#aaaa00"  xml:space="preserve" font-size="3.72599" transform="translate(784.781, 492.165)" >1 x {Wp / 0.15</text>
<text fill="#aaaa00"  xml:space="preserve" font-size="3.72599" transform="translate(800.781, 487.687)" >nf=1</text>
<text fill="#00ffcc"  xml:space="preserve" font-size="2.79449" transform="translate(804.229, 475.645)" >id=-</text>
<text fill="#ff7777"  xml:space="preserve" font-size="2.79449" transform="translate(802.229, 482.81)" >gm=-</text>
<text fill="#ff7777"  xml:space="preserve" font-size="1.3041" transform="translate(819.185, 491.309)" >vgs= -  </text>
<text fill="#ff7777"  xml:space="preserve" font-size="1.3041" transform="translate(819.185, 492.805)" >vds= -  </text>
<text fill="#cccccc"  xml:space="preserve" font-size="3.72599" transform="translate(965.823, 497.987)" >XMn4</text>
<text fill="#ff0000"  xml:space="preserve" font-size="2.79449" transform="translate(983.093, 514.159)" >S</text>
<text fill="#ff0000"  xml:space="preserve" font-size="2.79449" transform="translate(983.093, 498.414)" >D</text>
<text fill="#ff0000"  xml:space="preserve" font-size="2.79449" transform="translate(982.197, 504.306)" >B</text>
<text fill="#ff0000"  xml:space="preserve" font-size="2.79449" transform="translate(969.449, 504.306)" >G</text>
<text fill="#cccccc"  xml:space="preserve" font-size="3.72599" transform="translate(985.78, 501.326)" >nfet_01v8</text>
<text fill="#aaaa00"  xml:space="preserve" font-size="3.72599" transform="translate(986.228, 513.661)" >1 x {Wn / 0.15</text>
<text fill="#aaaa00"  xml:space="preserve" font-size="3.72599" transform="translate(986.228, 509.183)" >nf=1</text>
<text fill="#00ffcc"  xml:space="preserve" font-size="2.79449" transform="translate(985.78, 497.141)" >id=-</text>
<text fill="#ff7777"  xml:space="preserve" font-size="2.79449" transform="translate(985.78, 504.306)" >gm=-</text>
<text fill="#ff7777"  xml:space="preserve" font-size="1.3041" transform="translate(971.823, 512.806)" >vgs= -  </text>
<text fill="#ff7777"  xml:space="preserve" font-size="1.3041" transform="translate(971.823, 514.301)" >vds= -  </text>
<text fill="#cccccc"  xml:space="preserve" font-size="3.72599" transform="translate(809.768, 598.302)" >XMsn4</text>
<text fill="#ff0000"  xml:space="preserve" font-size="2.79449" transform="translate(829.038, 614.474)" >S</text>
<text fill="#ff0000"  xml:space="preserve" font-size="2.79449" transform="translate(829.038, 598.729)" >D</text>
<text fill="#ff0000"  xml:space="preserve" font-size="2.79449" transform="translate(828.142, 604.621)" >B</text>
<text fill="#ff0000"  xml:space="preserve" font-size="2.79449" transform="translate(815.394, 604.621)" >G</text>
<text fill="#cccccc"  xml:space="preserve" font-size="3.72599" transform="translate(831.725, 601.641)" >nfet_01v8</text>
<text fill="#aaaa00"  xml:space="preserve" font-size="3.72599" transform="translate(832.172, 613.976)" >1 x {Ws / 0.15</text>
<text fill="#aaaa00"  xml:space="preserve" font-size="3.72599" transform="translate(832.172, 609.498)" >nf=1</text>
<text fill="#00ffcc"  xml:space="preserve" font-size="2.79449" transform="translate(831.725, 597.456)" >id=-</text>
<text fill="#ff7777"  xml:space="preserve" font-size="2.79449" transform="translate(831.725, 604.621)" >gm=-</text>
<text fill="#ff7777"  xml:space="preserve" font-size="1.3041" transform="translate(817.768, 613.121)" >vgs= -  </text>
<text fill="#ff7777"  xml:space="preserve" font-size="1.3041" transform="translate(817.768, 614.616)" >vds= -  </text>
<text fill="#aaaa00"  xml:space="preserve" font-size="3.72599" transform="translate(1074.14, 542.323)" >1</text>
<text fill="#aaaa00"  xml:space="preserve" font-size="3.72599" transform="translate(1075.14, 557.549)" >2</text>
<text fill="#cccccc"  xml:space="preserve" font-size="3.72599" transform="translate(1084.3, 545.01)" >Cc4</text>
<text fill="#cccccc"  xml:space="preserve" font-size="3.72599" transform="translate(1084.3, 549.488)" >{Cc</text>
<text fill="#cccccc"  xml:space="preserve" font-size="3.72599" transform="translate(1084.3, 553.966)" >m=1</text>
<text fill="#cccccc"  xml:space="preserve" font-size="3.72599" transform="translate(847.595, 494.404)" >XMp5</text>
<text fill="#ff0000"  xml:space="preserve" font-size="2.79449" transform="translate(864.864, 510.576)" >D</text>
<text fill="#ff0000"  xml:space="preserve" font-size="2.79449" transform="translate(864.864, 494.831)" >S</text>
<text fill="#ff0000"  xml:space="preserve" font-size="2.79449" transform="translate(863.969, 500.724)" >B</text>
<text fill="#ff0000"  xml:space="preserve" font-size="2.79449" transform="translate(851.221, 500.724)" >G</text>
<text fill="#cccccc"  xml:space="preserve" font-size="3.72599" transform="translate(867.551, 497.744)" >pfet_01v8</text>
<text fill="#aaaa00"  xml:space="preserve" font-size="3.72599" transform="translate(867.999, 510.078)" >1 x {Wp / 0.15</text>
<text fill="#aaaa00"  xml:space="preserve" font-size="3.72599" transform="translate(867.999, 505.6)" >nf=1</text>
<text fill="#00ffcc"  xml:space="preserve" font-size="2.79449" transform="translate(867.551, 493.558)" >id=-</text>
<text fill="#ff7777"  xml:space="preserve" font-size="2.79449" transform="translate(867.551, 500.724)" >gm=-</text>
<text fill="#ff7777"  xml:space="preserve" font-size="1.3041" transform="translate(853.595, 509.223)" >vgs= -  </text>
<text fill="#ff7777"  xml:space="preserve" font-size="1.3041" transform="translate(853.595, 510.719)" >vds= -  </text>
<text fill="#cccccc"  xml:space="preserve" font-size="3.72599" transform="translate(883.421, 544.562)" >XMn5</text>
<text fill="#ff0000"  xml:space="preserve" font-size="2.79449" transform="translate(900.691, 560.734)" >S</text>
<text fill="#ff0000"  xml:space="preserve" font-size="2.79449" transform="translate(900.691, 544.989)" >D</text>
<text fill="#ff0000"  xml:space="preserve" font-size="2.79449" transform="translate(899.796, 550.881)" >B</text>
<text fill="#ff0000"  xml:space="preserve" font-size="2.79449" transform="translate(887.047, 550.881)" >G</text>
<text fill="#cccccc"  xml:space="preserve" font-size="3.72599" transform="translate(903.378, 547.901)" >nfet_01v8</text>
<text fill="#aaaa00"  xml:space="preserve" font-size="3.72599" transform="translate(903.826, 560.236)" >1 x {Wn / 0.15</text>
<text fill="#aaaa00"  xml:space="preserve" font-size="3.72599" transform="translate(903.826, 555.758)" >nf=1</text>
<text fill="#00ffcc"  xml:space="preserve" font-size="2.79449" transform="translate(903.378, 543.716)" >id=-</text>
<text fill="#ff7777"  xml:space="preserve" font-size="2.79449" transform="translate(903.378, 550.881)" >gm=-</text>
<text fill="#ff7777"  xml:space="preserve" font-size="1.3041" transform="translate(889.421, 559.38)" >vgs= -  </text>
<text fill="#ff7777"  xml:space="preserve" font-size="1.3041" transform="translate(889.421, 560.876)" >vds= -  </text>
<text fill="#cccccc"  xml:space="preserve" font-size="3.72599" transform="translate(924.414, 569.64)" >XMsn5</text>
<text fill="#ff0000"  xml:space="preserve" font-size="2.79449" transform="translate(943.683, 585.812)" >S</text>
<text fill="#ff0000"  xml:space="preserve" font-size="2.79449" transform="translate(943.683, 570.068)" >D</text>
<text fill="#ff0000"  xml:space="preserve" font-size="2.79449" transform="translate(942.788, 575.96)" >B</text>
<text fill="#ff0000"  xml:space="preserve" font-size="2.79449" transform="translate(930.04, 575.96)" >G</text>
<text fill="#cccccc"  xml:space="preserve" font-size="3.72599" transform="translate(946.37, 572.98)" >nfet_01v8</text>
<text fill="#aaaa00"  xml:space="preserve" font-size="3.72599" transform="translate(946.818, 585.315)" >1 x {Ws / 0.15</text>
<text fill="#aaaa00"  xml:space="preserve" font-size="3.72599" transform="translate(946.818, 580.836)" >nf=1</text>
<text fill="#00ffcc"  xml:space="preserve" font-size="2.79449" transform="translate(946.37, 568.795)" >id=-</text>
<text fill="#ff7777"  xml:space="preserve" font-size="2.79449" transform="translate(946.37, 575.96)" >gm=-</text>
<text fill="#ff7777"  xml:space="preserve" font-size="1.3041" transform="translate(932.414, 584.459)" >vgs= -  </text>
<text fill="#ff7777"  xml:space="preserve" font-size="1.3041" transform="translate(932.414, 585.955)" >vds= -  </text>
<text fill="#aaaa00"  xml:space="preserve" font-size="3.72599" transform="translate(1074.14, 574.567)" >1</text>
<text fill="#aaaa00"  xml:space="preserve" font-size="3.72599" transform="translate(1075.14, 589.793)" >2</text>
<text fill="#cccccc"  xml:space="preserve" font-size="3.72599" transform="translate(1084.3, 577.254)" >Cc5</text>
<text fill="#cccccc"  xml:space="preserve" font-size="3.72599" transform="translate(1084.3, 581.732)" >{Cc</text>
<text fill="#cccccc"  xml:space="preserve" font-size="3.72599" transform="translate(1084.3, 586.21)" >m=1</text>
<text fill="#cccccc"  xml:space="preserve" font-size="3.72599" transform="translate(722.453, 558.892)" >XMpout</text>
<text fill="#ff0000"  xml:space="preserve" font-size="2.79449" transform="translate(714.183, 575.064)" >D</text>
<text fill="#ff0000"  xml:space="preserve" font-size="2.79449" transform="translate(714.183, 559.32)" >S</text>
<text fill="#ff0000"  xml:space="preserve" font-size="2.79449" transform="translate(715.079, 565.212)" >B</text>
<text fill="#ff0000"  xml:space="preserve" font-size="2.79449" transform="translate(727.827, 565.212)" >G</text>
<text fill="#cccccc"  xml:space="preserve" font-size="3.72599" transform="translate(696.496, 562.232)" >pfet_01v8</text>
<text fill="#aaaa00"  xml:space="preserve" font-size="3.72599" transform="translate(690.048, 574.567)" >1 x 5u / 0.15u</text>
<text fill="#aaaa00"  xml:space="preserve" font-size="3.72599" transform="translate(704.048, 570.088)" >nf=1</text>
<text fill="#00ffcc"  xml:space="preserve" font-size="2.79449" transform="translate(707.496, 558.047)" >id=-</text>
<text fill="#ff7777"  xml:space="preserve" font-size="2.79449" transform="translate(705.496, 565.212)" >gm=-</text>
<text fill="#ff7777"  xml:space="preserve" font-size="1.3041" transform="translate(722.453, 573.711)" >vgs= -  </text>
<text fill="#ff7777"  xml:space="preserve" font-size="1.3041" transform="translate(722.453, 575.207)" >vds= -  </text>
<text fill="#cccccc"  xml:space="preserve" font-size="3.72599" transform="translate(457.665, 540.979)" >XMnout</text>
<text fill="#ff0000"  xml:space="preserve" font-size="2.79449" transform="translate(477.935, 557.151)" >S</text>
<text fill="#ff0000"  xml:space="preserve" font-size="2.79449" transform="translate(477.935, 541.406)" >D</text>
<text fill="#ff0000"  xml:space="preserve" font-size="2.79449" transform="translate(477.039, 547.299)" >B</text>
<text fill="#ff0000"  xml:space="preserve" font-size="2.79449" transform="translate(464.291, 547.299)" >G</text>
<text fill="#cccccc"  xml:space="preserve" font-size="3.72599" transform="translate(480.622, 544.318)" >nfet_01v8</text>
<text fill="#aaaa00"  xml:space="preserve" font-size="3.72599" transform="translate(481.07, 556.653)" >1 x 2.5u / 0.15u</text>
<text fill="#aaaa00"  xml:space="preserve" font-size="3.72599" transform="translate(481.07, 552.175)" >nf=1</text>
<text fill="#00ffcc"  xml:space="preserve" font-size="2.79449" transform="translate(480.622, 540.133)" >id=-</text>
<text fill="#ff7777"  xml:space="preserve" font-size="2.79449" transform="translate(480.622, 547.299)" >gm=-</text>
<text fill="#ff7777"  xml:space="preserve" font-size="1.3041" transform="translate(466.665, 555.798)" >vgs= -  </text>
<text fill="#ff7777"  xml:space="preserve" font-size="1.3041" transform="translate(466.665, 557.293)" >vds= -  </text>
<text fill="#cccccc"  xml:space="preserve" font-size="3.72599" transform="translate(405.386, 663.238)" >Vkick</text>
<text fill="#cccccc"  xml:space="preserve" font-size="3.72599" transform="translate(405.386, 672.195)" >pulse(0</text>
<text fill="#aaaa00"  xml:space="preserve" font-size="3.72599" transform="translate(1074.14, 635.472)" >1</text>
<text fill="#aaaa00"  xml:space="preserve" font-size="3.72599" transform="translate(1075.14, 650.699)" >2</text>
<text fill="#cccccc"  xml:space="preserve" font-size="3.72599" transform="translate(1084.3, 638.159)" >Ckick</text>
<text fill="#cccccc"  xml:space="preserve" font-size="3.72599" transform="translate(1084.3, 642.638)" >5f</text>
<text fill="#cccccc"  xml:space="preserve" font-size="3.72599" transform="translate(1084.3, 647.116)" >m=1</text>
<text fill="#00ddff"  xml:space="preserve" font-size="3.72599" transform="translate(28.3087, 446.038)" >VDD</text>
<text fill="#00ddff"  xml:space="preserve" font-size="3.72599" transform="translate(608.703, 535.605)" >VDD</text>
<text fill="#00ddff"  xml:space="preserve" font-size="3.72599" transform="translate(615.868, 524.857)" >VDD</text>
<text fill="#00ddff"  xml:space="preserve" font-size="3.72599" transform="translate(680.356, 517.692)" >VDD</text>
<text fill="#00ddff"  xml:space="preserve" font-size="3.72599" transform="translate(673.191, 506.944)" >VDD</text>
<text fill="#00ddff"  xml:space="preserve" font-size="3.72599" transform="translate(752.01, 510.526)" >VDD</text>
<text fill="#00ddff"  xml:space="preserve" font-size="3.72599" transform="translate(759.175, 499.778)" >VDD</text>
<text fill="#00ddff"  xml:space="preserve" font-size="3.72599" transform="translate(816.498, 485.447)" >VDD</text>
<text fill="#00ddff"  xml:space="preserve" font-size="3.72599" transform="translate(809.333, 474.699)" >VDD</text>
<text fill="#00ddff"  xml:space="preserve" font-size="3.72599" transform="translate(852.325, 503.361)" >VDD</text>
<text fill="#00ddff"  xml:space="preserve" font-size="3.72599" transform="translate(859.49, 492.613)" >VDD</text>
<text fill="#00ddff"  xml:space="preserve" font-size="3.72599" transform="translate(719.766, 567.849)" >VDD</text>
<text fill="#00ddff"  xml:space="preserve" font-size="3.72599" transform="translate(712.6, 557.101)" >VDD</text>
<text fill="#00ddff"  xml:space="preserve" font-size="3.72599" transform="translate(35.4741, 481.865)" >GND</text>
<text fill="#00ddff"  xml:space="preserve" font-size="3.72599" transform="translate(24.726, 557.101)" >GND</text>
<text fill="#00ddff"  xml:space="preserve" font-size="3.72599" transform="translate(400.907, 560.684)" >GND</text>
<text fill="#00ddff"  xml:space="preserve" font-size="3.72599" transform="translate(400.907, 682.495)" >GND</text>
<text fill="#00ddff"  xml:space="preserve" font-size="3.72599" transform="translate(24.726, 535.605)" >VSS</text>
<text fill="#00ddff"  xml:space="preserve" font-size="3.72599" transform="translate(848.742, 557.101)" >VSS</text>
<text fill="#00ddff"  xml:space="preserve" font-size="3.72599" transform="translate(544.215, 564.266)" >VSS</text>
<text fill="#00ddff"  xml:space="preserve" font-size="3.72599" transform="translate(537.049, 553.518)" >VSS</text>
<text fill="#00ddff"  xml:space="preserve" font-size="3.72599" transform="translate(888.152, 456.786)" >VSS</text>
<text fill="#00ddff"  xml:space="preserve" font-size="3.72599" transform="translate(737.679, 478.282)" >VSS</text>
<text fill="#00ddff"  xml:space="preserve" font-size="3.72599" transform="translate(744.845, 467.534)" >VSS</text>
<text fill="#00ddff"  xml:space="preserve" font-size="3.72599" transform="translate(934.727, 506.944)" >VSS</text>
<text fill="#00ddff"  xml:space="preserve" font-size="3.72599" transform="translate(791.419, 596.511)" >VSS</text>
<text fill="#00ddff"  xml:space="preserve" font-size="3.72599" transform="translate(798.585, 585.762)" >VSS</text>
<text fill="#00ddff"  xml:space="preserve" font-size="3.72599" transform="translate(984.884, 510.526)" >VSS</text>
<text fill="#00ddff"  xml:space="preserve" font-size="3.72599" transform="translate(823.664, 621.589)" >VSS</text>
<text fill="#00ddff"  xml:space="preserve" font-size="3.72599" transform="translate(830.829, 610.841)" >VSS</text>
<text fill="#00ddff"  xml:space="preserve" font-size="3.72599" transform="translate(902.483, 557.101)" >VSS</text>
<text fill="#00ddff"  xml:space="preserve" font-size="3.72599" transform="translate(938.309, 592.928)" >VSS</text>
<text fill="#00ddff"  xml:space="preserve" font-size="3.72599" transform="translate(945.475, 582.18)" >VSS</text>
<text fill="#00ddff"  xml:space="preserve" font-size="3.72599" transform="translate(472.561, 564.266)" >VSS</text>
<text fill="#00ddff"  xml:space="preserve" font-size="3.72599" transform="translate(479.726, 553.518)" >VSS</text>
<text fill="#00ddff"  xml:space="preserve" font-size="6.14788" transform="translate(381.533, 536.684)" >vctrl</text>
<text fill="#00ddff"  xml:space="preserve" font-size="6.14788" transform="translate(532.006, 551.015)" >vctrl</text>
<text fill="#00ddff"  xml:space="preserve" font-size="6.14788" transform="translate(711.14, 465.031)" >vctrl</text>
<text fill="#00ddff"  xml:space="preserve" font-size="6.14788" transform="translate(764.88, 583.259)" >vctrl</text>
<text fill="#00ddff"  xml:space="preserve" font-size="6.14788" transform="translate(797.124, 608.338)" >vctrl</text>
<text fill="#00ddff"  xml:space="preserve" font-size="6.14788" transform="translate(911.77, 579.677)" >vctrl</text>
<text fill="#00ddff"  xml:space="preserve" font-size="6.14788" transform="translate(602.494, 525.936)" >n1</text>
<text fill="#00ddff"  xml:space="preserve" font-size="6.14788" transform="translate(828.203, 543.85)" >n1</text>
<text fill="#00ddff"  xml:space="preserve" font-size="6.14788" transform="translate(1068.24, 418.456)" >n1</text>
<text fill="#00ddff"  xml:space="preserve" font-size="6.14788" transform="translate(681.313, 518.771)" >n1</text>
<text fill="#00ddff"  xml:space="preserve" font-size="6.14788" transform="translate(860.447, 454.283)" >n1</text>
<text fill="#00ddff"  xml:space="preserve" font-size="6.14788" transform="translate(1068.24, 561.763)" >n1</text>
<text fill="#00ddff"  xml:space="preserve" font-size="6.14788" transform="translate(1068.24, 633.417)" >n1</text>
<text fill="#00ddff"  xml:space="preserve" font-size="6.14788" transform="translate(595.329, 536.684)" >n5</text>
<text fill="#00ddff"  xml:space="preserve" font-size="6.14788" transform="translate(821.038, 554.598)" >n5</text>
<text fill="#00ddff"  xml:space="preserve" font-size="6.14788" transform="translate(1068.24, 518.771)" >n5</text>
<text fill="#00ddff"  xml:space="preserve" font-size="6.14788" transform="translate(846.116, 493.692)" >n5</text>
<text fill="#00ddff"  xml:space="preserve" font-size="6.14788" transform="translate(881.943, 543.85)" >n5</text>
<text fill="#00ddff"  xml:space="preserve" font-size="6.14788" transform="translate(1068.24, 572.511)" >n5</text>
<text fill="#00ddff"  xml:space="preserve" font-size="6.14788" transform="translate(720.723, 568.929)" >n5</text>
<text fill="#00ddff"  xml:space="preserve" font-size="6.14788" transform="translate(452.022, 551.015)" >n5</text>
<text fill="#00ddff"  xml:space="preserve" font-size="6.14788" transform="translate(825.203, 565.346)" >sn1</text>
<text fill="#00ddff"  xml:space="preserve" font-size="6.14788" transform="translate(527.841, 540.267)" >sn1</text>
<text fill="#00ddff"  xml:space="preserve" font-size="6.14788" transform="translate(1068.24, 439.952)" >n3</text>
<text fill="#00ddff"  xml:space="preserve" font-size="6.14788" transform="translate(745.801, 500.858)" >n3</text>
<text fill="#00ddff"  xml:space="preserve" font-size="6.14788" transform="translate(914.187, 493.692)" >n3</text>
<text fill="#00ddff"  xml:space="preserve" font-size="6.14788" transform="translate(1068.24, 497.275)" >n3</text>
<text fill="#00ddff"  xml:space="preserve" font-size="6.14788" transform="translate(817.455, 486.527)" >n3</text>
<text fill="#00ddff"  xml:space="preserve" font-size="6.14788" transform="translate(957.179, 508.023)" >n3</text>
<text fill="#00ddff"  xml:space="preserve" font-size="6.14788" transform="translate(674.148, 508.023)" >n2</text>
<text fill="#00ddff"  xml:space="preserve" font-size="6.14788" transform="translate(867.612, 443.535)" >n2</text>
<text fill="#00ddff"  xml:space="preserve" font-size="6.14788" transform="translate(1068.24, 472.196)" >n2</text>
<text fill="#00ddff"  xml:space="preserve" font-size="6.14788" transform="translate(738.636, 511.606)" >n2</text>
<text fill="#00ddff"  xml:space="preserve" font-size="6.14788" transform="translate(907.022, 504.44)" >n2</text>
<text fill="#00ddff"  xml:space="preserve" font-size="6.14788" transform="translate(1068.24, 594.007)" >n2</text>
<text fill="#00ddff"  xml:space="preserve" font-size="6.14788" transform="translate(1068.24, 493.692)" >n4</text>
<text fill="#00ddff"  xml:space="preserve" font-size="6.14788" transform="translate(810.29, 475.779)" >n4</text>
<text fill="#00ddff"  xml:space="preserve" font-size="6.14788" transform="translate(964.345, 497.275)" >n4</text>
<text fill="#00ddff"  xml:space="preserve" font-size="6.14788" transform="translate(1068.24, 540.267)" >n4</text>
<text fill="#00ddff"  xml:space="preserve" font-size="6.14788" transform="translate(838.951, 504.44)" >n4</text>
<text fill="#00ddff"  xml:space="preserve" font-size="6.14788" transform="translate(874.778, 554.598)" >n4</text>
<text fill="#00ddff"  xml:space="preserve" font-size="6.14788" transform="translate(382.533, 658.496)" >kick</text>
<text fill="#00ddff"  xml:space="preserve" font-size="6.14788" transform="translate(1063.24, 654.913)" >kick</text>
<path class="l1" d="M734.992 462.36L878.299 462.36"/>
<path class="l1" d="M734.992 451.612L734.992 462.36"/>
<path class="l1" d="M788.732 512.517L924.874 512.517"/>
<path class="l1" d="M788.732 512.517L788.732 569.84"/>
<path class="l1" d="M820.977 516.1L975.032 516.1"/>
<path class="l1" d="M820.977 516.1L820.977 594.919"/>
<path class="l1" d="M892.63 562.675L935.622 562.675"/>
<path class="l1" d="M935.622 562.675L935.622 566.257"/>
<path class="l1" d="M469.874 555.509L724.244 555.509"/>
<path class="l1" d="M469.874 537.596L469.874 555.509"/>
<text fill="#cccccc"  xml:space="preserve" font-size="11.178" transform="translate(22.039, 325.619)" >SKY130 5-Stage Current-Starved Ring Oscillator</text>
<text fill="#cccccc"  xml:space="preserve" font-size="7.45197" transform="translate(22.039, 336.567)" >=== Stage 1 ===</text>
<text fill="#cccccc"  xml:space="preserve" font-size="7.45197" transform="translate(22.039, 347.315)" >=== Stage 2 ===</text>
<text fill="#cccccc"  xml:space="preserve" font-size="7.45197" transform="translate(22.039, 358.063)" >=== Stage 3 ===</text>
<text fill="#cccccc"  xml:space="preserve" font-size="7.45197" transform="translate(22.039, 368.811)" >=== Stage 4 ===</text>
<text fill="#cccccc"  xml:space="preserve" font-size="7.45197" transform="translate(22.039, 379.559)" >=== Stage 5 ===</text>
</svg>
