<svg xmlns="http://www.w3.org/2000/svg" xmlns:xlink="http://www.w3.org/1999/xlink" width="1111" height="694" version="1.1">
<style type="text/css">
.l0{
  fill: #000000;
  stroke: #000000;
  stroke-linecap:round;
  stroke-linejoin:round;
  stroke-width: 0.724529;
}
.l1{
  fill: #00ddff;
  stroke: #00ddff;
  stroke-linecap:round;
  stroke-linejoin:round;
  stroke-width: 0.724529;
}
.l2{
  fill: #4f4f4f; fill-opacity: 0.2;
  stroke: #4f4f4f;
  stroke-linecap:round;
  stroke-linejoin:round;
  stroke-width: 0.724529;
}
.l3{
  fill: #cccccc; fill-opacity: 0.5;
  stroke: #cccccc;
  stroke-linecap:round;
  stroke-linejoin:round;
  stroke-width: 0.724529;
}
.l4{
  fill: #88dd00;
  stroke: #88dd00;
  stroke-linecap:round;
  stroke-linejoin:round;
  stroke-width: 0.724529;
}
.l5{
  fill: #bb2200;
  stroke: #bb2200;
  stroke-linecap:round;
  stroke-linejoin:round;
  stroke-width: 0.724529;
}
.l6{
  fill: #00aaff; fill-opacity: 0.5;
  stroke: #00aaff;
  stroke-linecap:round;
  stroke-linejoin:round;
  stroke-width: 0.724529;
}
.l7{
  fill: #ff0000; fill-opacity: 0.5;
  stroke: #ff0000;
  stroke-linecap:round;
  stroke-linejoin:round;
  stroke-width: 0.724529;
}
.l8{
  fill: #ffff00; fill-opacity: 0.5;
  stroke: #ffff00;
  stroke-linecap:round;
  stroke-linejoin:round;
  stroke-width: 0.724529;
}
.l9{
  fill: #ffffff; fill-opacity: 0.5;
  stroke: #ffffff;
  stroke-linecap:round;
  stroke-linejoin:round;
  stroke-width: 0.724529;
}
.l10{
  fill: #ff00ff;
  stroke: #ff00ff;
  stroke-linecap:round;
  stroke-linejoin:round;
  stroke-width: 0.724529;
}
.l11{
  fill: #00ff00; fill-opacity: 0.5;
  stroke: #00ff00;
  stroke-linecap:round;
  stroke-linejoin:round;
  stroke-width: 0.724529;
}
.l12{
  fill: #0044ff; fill-opacity: 0.5;
  stroke: #0044ff;
  stroke-linecap:round;
  stroke-linejoin:round;
  stroke-width: 0.724529;
}
.l13{
  fill: #aaaa00; fill-opacity: 0.5;
  stroke: #aaaa00;
  stroke-linecap:round;
  stroke-linejoin:round;
  stroke-width: 0.724529;
}
.l14{
  fill: #aaccaa; fill-opacity: 0.2;
  stroke: #aaccaa;
  stroke-linecap:round;
  stroke-linejoin:round;
  stroke-width: 0.724529;
}
.l15{
  fill: #ff7777; fill-opacity: 0.5;
  stroke: #ff7777;
  stroke-linecap:round;
  stroke-linejoin:round;
  stroke-width: 0.724529;
}
.l16{
  fill: #bfff81; fill-opacity: 0.5;
  stroke: #bfff81;
  stroke-linecap:round;
  stroke-linejoin:round;
  stroke-width: 0.724529;
}
.l17{
  fill: #00ffcc; fill-opacity: 0.2;
  stroke: #00ffcc;
  stroke-linecap:round;
  stroke-linejoin:round;
  stroke-width: 0.724529;
}
.l18{
  fill: #ce0097; fill-opacity: 0.5;
  stroke: #ce0097;
  stroke-linecap:round;
  stroke-linejoin:round;
  stroke-width: 0.724529;
}
.l19{
  fill: #d2d46b; fill-opacity: 0.2;
  stroke: #d2d46b;
  stroke-linecap:round;
  stroke-linejoin:round;
  stroke-width: 0.724529;
}
.l20{
  fill: #ef6158; fill-opacity: 0.2;
  stroke: #ef6158;
  stroke-linecap:round;
  stroke-linejoin:round;
  stroke-width: 0.724529;
}
.l21{
  fill: #fdb200; fill-opacity: 0.2;
  stroke: #fdb200;
  stroke-linecap:round;
  stroke-linejoin:round;
  stroke-width: 0.724529;
}
text {font-family: Sans-Serif;}
</style>
<rect class="l0" x="0" y="0" width="1111" height="694"/>
<path class="l4" d="M42.1577 474.282L44.8411 474.282"/>
<path class="l4" d="M43.4994 472.94L43.4994 475.623"/>
<path class="l4" d="M40.816 470.256L40.816 502.458"/>
<circle class="l4" cx="40.816" cy="486.357" r="8.05032" style="fill:none;" />
<path class="l4" d="M26.057 586.986L28.7405 586.986"/>
<path class="l4" d="M27.3988 585.644L27.3988 588.328"/>
<path class="l4" d="M24.7153 582.961L24.7153 615.162"/>
<circle class="l4" cx="24.7153" cy="599.062" r="8.05032" style="fill:none;" />
<path class="l4" d="M573.479 549.418L576.162 549.418"/>
<path class="l4" d="M574.821 548.076L574.821 550.76"/>
<path class="l4" d="M572.137 545.393L572.137 577.594"/>
<circle class="l4" cx="572.137" cy="561.493" r="8.05032" style="fill:none;" />
<path class="l4" d="M675.45 581.619L675.45 605.77"/>
<path class="l4" d="M678.133 593.695L690.209 593.695"/>
<path class="l4" d="M668.741 577.594L668.741 584.303"/>
<path class="l4" d="M668.741 603.087L668.741 609.795"/>
<path class="l4" d="M678.133 585.644L678.133 601.745"/>
<path class="l4" d="M668.741 584.303L675.45 584.303"/>
<path class="l4" d="M671.425 603.087L675.45 603.087"/>
<path class="l4" d="M671.425 601.745L668.741 603.087L671.425 604.428L671.425 601.745"/>
<path class="l4" d="M694.234 458.181L694.234 482.332"/>
<path class="l4" d="M700.943 454.156L700.943 460.864"/>
<path class="l4" d="M700.943 479.648L700.943 486.357"/>
<path class="l4" d="M691.55 462.206L691.55 478.307"/>
<path class="l4" d="M694.234 479.648L700.943 479.648"/>
<path class="l4" d="M696.917 460.864L700.943 460.864"/>
<path class="l4" d="M679.475 470.256L686.184 470.256"/>
<path class="l4" d="M696.917 459.523L694.234 460.864L696.917 462.206L696.917 459.523"/>
<circle class="l4" cx="688.867" cy="470.256" r="2.68344" style="fill:none;" />
<path class="l4" d="M769.37 409.879L769.37 434.03"/>
<path class="l4" d="M776.079 405.854L776.079 412.562"/>
<path class="l4" d="M776.079 431.347L776.079 438.055"/>
<path class="l4" d="M766.687 413.904L766.687 430.005"/>
<path class="l4" d="M769.37 431.347L776.079 431.347"/>
<path class="l4" d="M772.054 412.562L776.079 412.562"/>
<path class="l4" d="M754.611 421.954L761.32 421.954"/>
<path class="l4" d="M772.054 411.221L769.37 412.562L772.054 413.904L772.054 411.221"/>
<circle class="l4" cx="764.003" cy="421.954" r="2.68344" style="fill:none;" />
<path class="l4" d="M828.406 458.181L828.406 482.332"/>
<path class="l4" d="M813.647 470.256L825.723 470.256"/>
<path class="l4" d="M835.115 454.156L835.115 460.864"/>
<path class="l4" d="M835.115 479.648L835.115 486.357"/>
<path class="l4" d="M825.723 462.206L825.723 478.307"/>
<path class="l4" d="M828.406 460.864L835.115 460.864"/>
<path class="l4" d="M828.406 479.648L832.431 479.648"/>
<path class="l4" d="M832.431 478.307L835.115 479.648L832.431 480.99L832.431 478.307"/>
<path class="l4" d="M702.284 345.476L702.284 369.627"/>
<path class="l4" d="M695.576 341.451L695.576 348.16"/>
<path class="l4" d="M695.576 366.944L695.576 373.653"/>
<path class="l4" d="M704.968 349.502L704.968 365.602"/>
<path class="l4" d="M695.576 366.944L702.284 366.944"/>
<path class="l4" d="M695.576 348.16L699.601 348.16"/>
<path class="l4" d="M710.335 357.552L717.043 357.552"/>
<path class="l4" d="M699.601 346.818L702.284 348.16L699.601 349.502L699.601 346.818"/>
<circle class="l4" cx="707.651" cy="357.552" r="2.68344" style="fill:none;" />
<path class="l4" d="M764.003 608.454L764.003 632.605"/>
<path class="l4" d="M749.244 620.529L761.32 620.529"/>
<path class="l4" d="M770.712 604.428L770.712 611.137"/>
<path class="l4" d="M770.712 629.921L770.712 636.63"/>
<path class="l4" d="M761.32 612.479L761.32 628.579"/>
<path class="l4" d="M764.003 611.137L770.712 611.137"/>
<path class="l4" d="M764.003 629.921L768.029 629.921"/>
<path class="l4" d="M768.029 628.579L770.712 629.921L768.029 631.263L768.029 628.579"/>
<path class="l4" d="M833.773 372.311L833.773 396.462"/>
<path class="l4" d="M840.481 368.286L840.481 374.994"/>
<path class="l4" d="M840.481 393.778L840.481 400.487"/>
<path class="l4" d="M831.089 376.336L831.089 392.437"/>
<path class="l4" d="M833.773 393.778L840.481 393.778"/>
<path class="l4" d="M836.456 374.994L840.481 374.994"/>
<path class="l4" d="M819.014 384.386L825.723 384.386"/>
<path class="l4" d="M836.456 373.653L833.773 374.994L836.456 376.336L836.456 373.653"/>
<circle class="l4" cx="828.406" cy="384.386" r="2.68344" style="fill:none;" />
<path class="l4" d="M903.542 474.282L903.542 498.433"/>
<path class="l4" d="M888.783 486.357L900.859 486.357"/>
<path class="l4" d="M910.251 470.256L910.251 476.965"/>
<path class="l4" d="M910.251 495.749L910.251 502.458"/>
<path class="l4" d="M900.859 478.307L900.859 494.407"/>
<path class="l4" d="M903.542 476.965L910.251 476.965"/>
<path class="l4" d="M903.542 495.749L907.567 495.749"/>
<path class="l4" d="M907.567 494.407L910.251 495.749L907.567 497.091L907.567 494.407"/>
<path class="l4" d="M742.536 522.584L742.536 546.734"/>
<path class="l4" d="M749.244 518.558L749.244 525.267"/>
<path class="l4" d="M749.244 544.051L749.244 550.76"/>
<path class="l4" d="M739.852 526.609L739.852 542.709"/>
<path class="l4" d="M742.536 544.051L749.244 544.051"/>
<path class="l4" d="M745.219 525.267L749.244 525.267"/>
<path class="l4" d="M727.777 534.659L734.486 534.659"/>
<path class="l4" d="M745.219 523.925L742.536 525.267L745.219 526.609L745.219 523.925"/>
<circle class="l4" cx="737.169" cy="534.659" r="2.68344" style="fill:none;" />
<path class="l4" d="M865.974 629.921L865.974 654.072"/>
<path class="l4" d="M851.215 641.997L863.291 641.997"/>
<path class="l4" d="M872.683 625.896L872.683 632.605"/>
<path class="l4" d="M872.683 651.389L872.683 658.097"/>
<path class="l4" d="M863.291 633.946L863.291 650.047"/>
<path class="l4" d="M865.974 632.605L872.683 632.605"/>
<path class="l4" d="M865.974 651.389L869.999 651.389"/>
<path class="l4" d="M869.999 650.047L872.683 651.389L869.999 652.73L869.999 650.047"/>
<path class="l4" d="M908.909 361.577L908.909 385.728"/>
<path class="l4" d="M915.618 357.552L915.618 364.26"/>
<path class="l4" d="M915.618 383.045L915.618 389.753"/>
<path class="l4" d="M906.226 365.602L906.226 381.703"/>
<path class="l4" d="M908.909 383.045L915.618 383.045"/>
<path class="l4" d="M911.593 364.26L915.618 364.26"/>
<path class="l4" d="M894.15 373.653L900.859 373.653"/>
<path class="l4" d="M911.593 362.919L908.909 364.26L911.593 365.602L911.593 362.919"/>
<circle class="l4" cx="903.542" cy="373.653" r="2.68344" style="fill:none;" />
<path class="l4" d="M849.874 544.051L849.874 568.202"/>
<path class="l4" d="M835.115 556.127L847.19 556.127"/>
<path class="l4" d="M856.582 540.026L856.582 546.734"/>
<path class="l4" d="M856.582 565.519L856.582 572.227"/>
<path class="l4" d="M847.19 548.076L847.19 564.177"/>
<path class="l4" d="M849.874 546.734L856.582 546.734"/>
<path class="l4" d="M849.874 565.519L853.899 565.519"/>
<path class="l4" d="M853.899 564.177L856.582 565.519L853.899 566.86L853.899 564.177"/>
<path class="l4" d="M984.046 436.713L984.046 460.864"/>
<path class="l4" d="M990.754 432.688L990.754 439.397"/>
<path class="l4" d="M990.754 458.181L990.754 464.89"/>
<path class="l4" d="M981.362 440.739L981.362 456.839"/>
<path class="l4" d="M984.046 458.181L990.754 458.181"/>
<path class="l4" d="M986.729 439.397L990.754 439.397"/>
<path class="l4" d="M969.287 448.789L975.995 448.789"/>
<path class="l4" d="M986.729 438.055L984.046 439.397L986.729 440.739L986.729 438.055"/>
<circle class="l4" cx="978.679" cy="448.789" r="2.68344" style="fill:none;" />
<path class="l4" d="M935.744 570.885L935.744 595.036"/>
<path class="l4" d="M920.985 582.961L933.06 582.961"/>
<path class="l4" d="M942.452 566.86L942.452 573.569"/>
<path class="l4" d="M942.452 592.353L942.452 599.062"/>
<path class="l4" d="M933.06 574.911L933.06 591.011"/>
<path class="l4" d="M935.744 573.569L942.452 573.569"/>
<path class="l4" d="M935.744 592.353L939.769 592.353"/>
<path class="l4" d="M939.769 591.011L942.452 592.353L939.769 593.695L939.769 591.011"/>
<path class="l4" d="M613.731 404.512L613.731 428.663"/>
<path class="l4" d="M620.439 400.487L620.439 407.196"/>
<path class="l4" d="M620.439 425.98L620.439 432.688"/>
<path class="l4" d="M611.047 408.537L611.047 424.638"/>
<path class="l4" d="M613.731 425.98L620.439 425.98"/>
<path class="l4" d="M616.414 407.196L620.439 407.196"/>
<path class="l4" d="M598.972 416.588L605.68 416.588"/>
<path class="l4" d="M616.414 405.854L613.731 407.196L616.414 408.537L616.414 405.854"/>
<circle class="l4" cx="608.364" cy="416.588" r="2.68344" style="fill:none;" />
<path class="l4" d="M651.299 485.015L651.299 509.166"/>
<path class="l4" d="M636.54 497.091L648.615 497.091"/>
<path class="l4" d="M658.007 480.99L658.007 487.699"/>
<path class="l4" d="M658.007 506.483L658.007 513.191"/>
<path class="l4" d="M648.615 489.041L648.615 505.141"/>
<path class="l4" d="M651.299 487.699L658.007 487.699"/>
<path class="l4" d="M651.299 506.483L655.324 506.483"/>
<path class="l4" d="M655.324 505.141L658.007 506.483L655.324 507.825L655.324 505.141"/>
<path class="l4" d="M589.58 646.022L592.263 646.022"/>
<path class="l4" d="M590.921 644.68L590.921 647.364"/>
<path class="l4" d="M588.238 641.997L588.238 674.198"/>
<circle class="l4" cx="588.238" cy="658.097" r="8.05032" style="fill:none;" />
<path class="l4" d="M1071.26 489.041L1071.26 502.458"/>
<path class="l4" d="M1071.26 470.256L1071.26 483.674"/>
<path class="l4" d="M1065.89 483.674L1076.62 483.674"/>
<path class="l4" d="M1065.89 489.041L1076.62 489.041"/>
<path class="l4" d="M1072.6 474.282L1075.28 474.282"/>
<path class="l4" d="M1073.94 472.94L1073.94 475.623"/>
<path class="l4" d="M40.816 459.523L40.816 470.256"/>
<path class="l4" d="M35.4491 459.523L46.1829 459.523"/>
<path class="l4" d="M690.209 475.623L690.209 486.357"/>
<path class="l4" d="M684.842 475.623L695.576 475.623"/>
<path class="l4" d="M700.943 459.523L700.943 470.256"/>
<path class="l4" d="M695.576 459.523L706.309 459.523"/>
<path class="l4" d="M776.079 411.221L776.079 421.954"/>
<path class="l4" d="M770.712 411.221L781.446 411.221"/>
<path class="l4" d="M706.309 362.919L706.309 373.653"/>
<path class="l4" d="M700.943 362.919L711.676 362.919"/>
<path class="l4" d="M695.576 346.818L695.576 357.552"/>
<path class="l4" d="M690.209 346.818L700.943 346.818"/>
<path class="l4" d="M840.481 373.653L840.481 384.386"/>
<path class="l4" d="M835.115 373.653L845.848 373.653"/>
<path class="l4" d="M738.511 540.026L738.511 550.76"/>
<path class="l4" d="M733.144 540.026L743.878 540.026"/>
<path class="l4" d="M749.244 523.925L749.244 534.659"/>
<path class="l4" d="M743.878 523.925L754.611 523.925"/>
<path class="l4" d="M915.618 362.919L915.618 373.653"/>
<path class="l4" d="M910.251 362.919L920.985 362.919"/>
<path class="l4" d="M980.02 454.156L980.02 464.89"/>
<path class="l4" d="M974.654 454.156L985.387 454.156"/>
<path class="l4" d="M990.754 438.055L990.754 448.789"/>
<path class="l4" d="M985.387 438.055L996.121 438.055"/>
<path class="l4" d="M609.706 421.954L609.706 432.688"/>
<path class="l4" d="M604.339 421.954L615.072 421.954"/>
<path class="l4" d="M620.439 405.854L620.439 416.588"/>
<path class="l4" d="M615.072 405.854L625.806 405.854"/>
<path class="l4" d="M40.816 502.458L40.816 509.166"/>
<path class="l4" d="M38.1325 509.166L43.4994 509.166"/>
<path class="l4" d="M40.816 511.85L43.4994 509.166"/>
<path class="l4" d="M38.1325 509.166L40.816 511.85"/>
<path class="l4" d="M24.7153 615.162L24.7153 621.871"/>
<path class="l4" d="M22.0319 621.871L27.3988 621.871"/>
<path class="l4" d="M24.7153 624.554L27.3988 621.871"/>
<path class="l4" d="M22.0319 621.871L24.7153 624.554"/>
<path class="l4" d="M572.137 577.594L572.137 584.303"/>
<path class="l4" d="M569.454 584.303L574.821 584.303"/>
<path class="l4" d="M572.137 586.986L574.821 584.303"/>
<path class="l4" d="M569.454 584.303L572.137 586.986"/>
<path class="l4" d="M588.238 674.198L588.238 680.907"/>
<path class="l4" d="M585.555 680.907L590.921 680.907"/>
<path class="l4" d="M588.238 683.59L590.921 680.907"/>
<path class="l4" d="M585.555 680.907L588.238 683.59"/>
<path class="l4" d="M24.7153 582.961L24.7153 589.67"/>
<path class="l4" d="M22.0319 589.67L27.3988 589.67"/>
<path class="l4" d="M24.7153 592.353L27.3988 589.67"/>
<path class="l4" d="M22.0319 589.67L24.7153 592.353"/>
<path class="l4" d="M679.475 609.795L679.475 616.504"/>
<path class="l4" d="M676.792 616.504L682.158 616.504"/>
<path class="l4" d="M679.475 619.187L682.158 616.504"/>
<path class="l4" d="M676.792 616.504L679.475 619.187"/>
<path class="l4" d="M668.741 593.695L668.741 600.403"/>
<path class="l4" d="M666.058 600.403L671.425 600.403"/>
<path class="l4" d="M668.741 603.087L671.425 600.403"/>
<path class="l4" d="M666.058 600.403L668.741 603.087"/>
<path class="l4" d="M835.115 470.256L835.115 476.965"/>
<path class="l4" d="M832.431 476.965L837.798 476.965"/>
<path class="l4" d="M835.115 479.648L837.798 476.965"/>
<path class="l4" d="M832.431 476.965L835.115 479.648"/>
<path class="l4" d="M759.978 636.63L759.978 643.338"/>
<path class="l4" d="M757.295 643.338L762.662 643.338"/>
<path class="l4" d="M759.978 646.022L762.662 643.338"/>
<path class="l4" d="M757.295 643.338L759.978 646.022"/>
<path class="l4" d="M770.712 620.529L770.712 627.238"/>
<path class="l4" d="M768.029 627.238L773.395 627.238"/>
<path class="l4" d="M770.712 629.921L773.395 627.238"/>
<path class="l4" d="M768.029 627.238L770.712 629.921"/>
<path class="l4" d="M910.251 486.357L910.251 493.066"/>
<path class="l4" d="M907.567 493.066L912.934 493.066"/>
<path class="l4" d="M910.251 495.749L912.934 493.066"/>
<path class="l4" d="M907.567 493.066L910.251 495.749"/>
<path class="l4" d="M861.949 658.097L861.949 664.806"/>
<path class="l4" d="M859.266 664.806L864.632 664.806"/>
<path class="l4" d="M861.949 667.489L864.632 664.806"/>
<path class="l4" d="M859.266 664.806L861.949 667.489"/>
<path class="l4" d="M872.683 641.997L872.683 648.705"/>
<path class="l4" d="M869.999 648.705L875.366 648.705"/>
<path class="l4" d="M872.683 651.389L875.366 648.705"/>
<path class="l4" d="M869.999 648.705L872.683 651.389"/>
<path class="l4" d="M856.582 556.127L856.582 562.835"/>
<path class="l4" d="M853.899 562.835L859.266 562.835"/>
<path class="l4" d="M856.582 565.519L859.266 562.835"/>
<path class="l4" d="M853.899 562.835L856.582 565.519"/>
<path class="l4" d="M931.718 599.062L931.718 605.77"/>
<path class="l4" d="M929.035 605.77L934.402 605.77"/>
<path class="l4" d="M931.718 608.454L934.402 605.77"/>
<path class="l4" d="M929.035 605.77L931.718 608.454"/>
<path class="l4" d="M942.452 582.961L942.452 589.67"/>
<path class="l4" d="M939.769 589.67L945.136 589.67"/>
<path class="l4" d="M942.452 592.353L945.136 589.67"/>
<path class="l4" d="M939.769 589.67L942.452 592.353"/>
<path class="l4" d="M647.274 513.191L647.274 519.9"/>
<path class="l4" d="M644.59 519.9L649.957 519.9"/>
<path class="l4" d="M647.274 522.584L649.957 519.9"/>
<path class="l4" d="M644.59 519.9L647.274 522.584"/>
<path class="l4" d="M658.007 497.091L658.007 503.799"/>
<path class="l4" d="M655.324 503.799L660.691 503.799"/>
<path class="l4" d="M658.007 506.483L660.691 503.799"/>
<path class="l4" d="M655.324 503.799L658.007 506.483"/>
<path class="l5" d="M39.4743 468.915L42.1577 468.915L42.1577 471.598L39.4743 471.598L39.4743 468.915z"/>
<path class="l5" d="M39.4743 501.116L42.1577 501.116L42.1577 503.799L39.4743 503.799L39.4743 501.116z"/>
<path class="l5" d="M23.3736 581.619L26.057 581.619L26.057 584.303L23.3736 584.303L23.3736 581.619z"/>
<path class="l5" d="M23.3736 613.821L26.057 613.821L26.057 616.504L23.3736 616.504L23.3736 613.821z"/>
<path class="l5" d="M570.796 544.051L573.479 544.051L573.479 546.734L570.796 546.734L570.796 544.051z"/>
<path class="l5" d="M570.796 576.252L573.479 576.252L573.479 578.936L570.796 578.936L570.796 576.252z"/>
<path class="l5" d="M668.741 592.353L671.425 593.695L668.741 595.036L668.741 592.353"/>
<path class="l5" d="M667.399 576.252L670.083 576.252L670.083 578.936L667.399 578.936L667.399 576.252z"/>
<path class="l5" d="M688.867 592.353L691.55 592.353L691.55 595.036L688.867 595.036L688.867 592.353z"/>
<path class="l5" d="M667.399 608.454L670.083 608.454L670.083 611.137L667.399 611.137L667.399 608.454z"/>
<path class="l5" d="M668.699 593.653L668.783 593.653L668.783 593.737L668.699 593.737L668.699 593.653z"/>
<path class="l5" d="M698.259 468.915L700.943 470.256L698.259 471.598L698.259 468.915"/>
<path class="l5" d="M699.601 485.015L702.284 485.015L702.284 487.699L699.601 487.699L699.601 485.015z"/>
<path class="l5" d="M678.133 468.915L680.817 468.915L680.817 471.598L678.133 471.598L678.133 468.915z"/>
<path class="l5" d="M699.601 452.814L702.284 452.814L702.284 455.497L699.601 455.497L699.601 452.814z"/>
<path class="l5" d="M700.901 470.214L700.984 470.214L700.984 470.298L700.901 470.298L700.901 470.214z"/>
<path class="l5" d="M773.395 420.613L776.079 421.954L773.395 423.296L773.395 420.613"/>
<path class="l5" d="M774.737 436.713L777.421 436.713L777.421 439.397L774.737 439.397L774.737 436.713z"/>
<path class="l5" d="M753.27 420.613L755.953 420.613L755.953 423.296L753.27 423.296L753.27 420.613z"/>
<path class="l5" d="M774.737 404.512L777.421 404.512L777.421 407.196L774.737 407.196L774.737 404.512z"/>
<path class="l5" d="M776.037 421.913L776.121 421.913L776.121 421.996L776.037 421.996L776.037 421.913z"/>
<path class="l5" d="M835.115 468.915L832.431 470.256L835.115 471.598L835.115 468.915"/>
<path class="l5" d="M833.773 452.814L836.456 452.814L836.456 455.497L833.773 455.497L833.773 452.814z"/>
<path class="l5" d="M812.305 468.915L814.989 468.915L814.989 471.598L812.305 471.598L812.305 468.915z"/>
<path class="l5" d="M833.773 485.015L836.456 485.015L836.456 487.699L833.773 487.699L833.773 485.015z"/>
<path class="l5" d="M835.073 470.214L835.157 470.214L835.157 470.298L835.073 470.298L835.073 470.214z"/>
<path class="l5" d="M698.259 356.21L695.576 357.552L698.259 358.894L698.259 356.21"/>
<path class="l5" d="M694.234 372.311L696.917 372.311L696.917 374.994L694.234 374.994L694.234 372.311z"/>
<path class="l5" d="M715.701 356.21L718.385 356.21L718.385 358.894L715.701 358.894L715.701 356.21z"/>
<path class="l5" d="M694.234 340.11L696.917 340.11L696.917 342.793L694.234 342.793L694.234 340.11z"/>
<path class="l5" d="M695.534 357.51L695.618 357.51L695.618 357.594L695.534 357.594L695.534 357.51z"/>
<path class="l5" d="M770.712 619.187L768.029 620.529L770.712 621.871L770.712 619.187"/>
<path class="l5" d="M769.37 603.087L772.054 603.087L772.054 605.77L769.37 605.77L769.37 603.087z"/>
<path class="l5" d="M747.903 619.187L750.586 619.187L750.586 621.871L747.903 621.871L747.903 619.187z"/>
<path class="l5" d="M769.37 635.288L772.054 635.288L772.054 637.971L769.37 637.971L769.37 635.288z"/>
<path class="l5" d="M770.67 620.487L770.754 620.487L770.754 620.571L770.67 620.571L770.67 620.487z"/>
<path class="l5" d="M837.798 383.045L840.481 384.386L837.798 385.728L837.798 383.045"/>
<path class="l5" d="M839.14 399.145L841.823 399.145L841.823 401.829L839.14 401.829L839.14 399.145z"/>
<path class="l5" d="M817.672 383.045L820.356 383.045L820.356 385.728L817.672 385.728L817.672 383.045z"/>
<path class="l5" d="M839.14 366.944L841.823 366.944L841.823 369.627L839.14 369.627L839.14 366.944z"/>
<path class="l5" d="M840.44 384.344L840.523 384.344L840.523 384.428L840.44 384.428L840.44 384.344z"/>
<path class="l5" d="M910.251 485.015L907.567 486.357L910.251 487.699L910.251 485.015"/>
<path class="l5" d="M908.909 468.915L911.593 468.915L911.593 471.598L908.909 471.598L908.909 468.915z"/>
<path class="l5" d="M887.442 485.015L890.125 485.015L890.125 487.699L887.442 487.699L887.442 485.015z"/>
<path class="l5" d="M908.909 501.116L911.593 501.116L911.593 503.799L908.909 503.799L908.909 501.116z"/>
<path class="l5" d="M910.209 486.315L910.293 486.315L910.293 486.399L910.209 486.399L910.209 486.315z"/>
<path class="l5" d="M746.561 533.317L749.244 534.659L746.561 536.001L746.561 533.317"/>
<path class="l5" d="M747.903 549.418L750.586 549.418L750.586 552.101L747.903 552.101L747.903 549.418z"/>
<path class="l5" d="M726.435 533.317L729.119 533.317L729.119 536.001L726.435 536.001L726.435 533.317z"/>
<path class="l5" d="M747.903 517.217L750.586 517.217L750.586 519.9L747.903 519.9L747.903 517.217z"/>
<path class="l5" d="M749.203 534.617L749.286 534.617L749.286 534.701L749.203 534.701L749.203 534.617z"/>
<path class="l5" d="M872.683 640.655L869.999 641.997L872.683 643.338L872.683 640.655"/>
<path class="l5" d="M871.341 624.554L874.024 624.554L874.024 627.238L871.341 627.238L871.341 624.554z"/>
<path class="l5" d="M849.874 640.655L852.557 640.655L852.557 643.338L849.874 643.338L849.874 640.655z"/>
<path class="l5" d="M871.341 656.756L874.024 656.756L874.024 659.439L871.341 659.439L871.341 656.756z"/>
<path class="l5" d="M872.641 641.955L872.725 641.955L872.725 642.039L872.641 642.039L872.641 641.955z"/>
<path class="l5" d="M912.934 372.311L915.618 373.653L912.934 374.994L912.934 372.311"/>
<path class="l5" d="M914.276 388.411L916.96 388.411L916.96 391.095L914.276 391.095L914.276 388.411z"/>
<path class="l5" d="M892.809 372.311L895.492 372.311L895.492 374.994L892.809 374.994L892.809 372.311z"/>
<path class="l5" d="M914.276 356.21L916.96 356.21L916.96 358.894L914.276 358.894L914.276 356.21z"/>
<path class="l5" d="M915.576 373.611L915.66 373.611L915.66 373.694L915.576 373.694L915.576 373.611z"/>
<path class="l5" d="M856.582 554.785L853.899 556.127L856.582 557.468L856.582 554.785"/>
<path class="l5" d="M855.24 538.684L857.924 538.684L857.924 541.368L855.24 541.368L855.24 538.684z"/>
<path class="l5" d="M833.773 554.785L836.456 554.785L836.456 557.468L833.773 557.468L833.773 554.785z"/>
<path class="l5" d="M855.24 570.885L857.924 570.885L857.924 573.569L855.24 573.569L855.24 570.885z"/>
<path class="l5" d="M856.54 556.085L856.624 556.085L856.624 556.168L856.54 556.168L856.54 556.085z"/>
<path class="l5" d="M988.071 447.447L990.754 448.789L988.071 450.131L988.071 447.447"/>
<path class="l5" d="M989.412 463.548L992.096 463.548L992.096 466.231L989.412 466.231L989.412 463.548z"/>
<path class="l5" d="M967.945 447.447L970.628 447.447L970.628 450.131L967.945 450.131L967.945 447.447z"/>
<path class="l5" d="M989.412 431.347L992.096 431.347L992.096 434.03L989.412 434.03L989.412 431.347z"/>
<path class="l5" d="M990.712 448.747L990.796 448.747L990.796 448.831L990.712 448.831L990.712 448.747z"/>
<path class="l5" d="M942.452 581.619L939.769 582.961L942.452 584.303L942.452 581.619"/>
<path class="l5" d="M941.111 565.519L943.794 565.519L943.794 568.202L941.111 568.202L941.111 565.519z"/>
<path class="l5" d="M919.643 581.619L922.326 581.619L922.326 584.303L919.643 584.303L919.643 581.619z"/>
<path class="l5" d="M941.111 597.72L943.794 597.72L943.794 600.403L941.111 600.403L941.111 597.72z"/>
<path class="l5" d="M942.41 582.919L942.494 582.919L942.494 583.003L942.41 583.003L942.41 582.919z"/>
<path class="l5" d="M617.756 415.246L620.439 416.588L617.756 417.929L617.756 415.246"/>
<path class="l5" d="M619.098 431.347L621.781 431.347L621.781 434.03L619.098 434.03L619.098 431.347z"/>
<path class="l5" d="M597.63 415.246L600.313 415.246L600.313 417.929L597.63 417.929L597.63 415.246z"/>
<path class="l5" d="M619.098 399.145L621.781 399.145L621.781 401.829L619.098 401.829L619.098 399.145z"/>
<path class="l5" d="M620.397 416.546L620.481 416.546L620.481 416.63L620.397 416.63L620.397 416.546z"/>
<path class="l5" d="M658.007 495.749L655.324 497.091L658.007 498.433L658.007 495.749"/>
<path class="l5" d="M656.666 479.648L659.349 479.648L659.349 482.332L656.666 482.332L656.666 479.648z"/>
<path class="l5" d="M635.198 495.749L637.882 495.749L637.882 498.433L635.198 498.433L635.198 495.749z"/>
<path class="l5" d="M656.666 511.85L659.349 511.85L659.349 514.533L656.666 514.533L656.666 511.85z"/>
<path class="l5" d="M657.966 497.049L658.049 497.049L658.049 497.133L657.966 497.133L657.966 497.049z"/>
<path class="l5" d="M586.896 640.655L589.58 640.655L589.58 643.338L586.896 643.338L586.896 640.655z"/>
<path class="l5" d="M586.896 672.856L589.58 672.856L589.58 675.54L586.896 675.54L586.896 672.856z"/>
<path class="l5" d="M1069.92 468.915L1072.6 468.915L1072.6 471.598L1069.92 471.598L1069.92 468.915z"/>
<path class="l5" d="M1069.92 501.116L1072.6 501.116L1072.6 503.799L1069.92 503.799L1069.92 501.116z"/>
<path class="l5" d="M39.4743 468.915L42.1577 468.915L42.1577 471.598L39.4743 471.598L39.4743 468.915z"/>
<path class="l5" d="M688.867 485.015L691.55 485.015L691.55 487.699L688.867 487.699L688.867 485.015z"/>
<path class="l5" d="M699.601 468.915L702.284 468.915L702.284 471.598L699.601 471.598L699.601 468.915z"/>
<path class="l5" d="M774.737 420.613L777.421 420.613L777.421 423.296L774.737 423.296L774.737 420.613z"/>
<path class="l5" d="M704.968 372.311L707.651 372.311L707.651 374.994L704.968 374.994L704.968 372.311z"/>
<path class="l5" d="M694.234 356.21L696.917 356.21L696.917 358.894L694.234 358.894L694.234 356.21z"/>
<path class="l5" d="M839.14 383.045L841.823 383.045L841.823 385.728L839.14 385.728L839.14 383.045z"/>
<path class="l5" d="M737.169 549.418L739.852 549.418L739.852 552.101L737.169 552.101L737.169 549.418z"/>
<path class="l5" d="M747.903 533.317L750.586 533.317L750.586 536.001L747.903 536.001L747.903 533.317z"/>
<path class="l5" d="M914.276 372.311L916.96 372.311L916.96 374.994L914.276 374.994L914.276 372.311z"/>
<path class="l5" d="M978.679 463.548L981.362 463.548L981.362 466.231L978.679 466.231L978.679 463.548z"/>
<path class="l5" d="M989.412 447.447L992.096 447.447L992.096 450.131L989.412 450.131L989.412 447.447z"/>
<path class="l5" d="M608.364 431.347L611.047 431.347L611.047 434.03L608.364 434.03L608.364 431.347z"/>
<path class="l5" d="M619.098 415.246L621.781 415.246L621.781 417.929L619.098 417.929L619.098 415.246z"/>
<path class="l5" d="M39.4743 501.116L42.1577 501.116L42.1577 503.799L39.4743 503.799L39.4743 501.116z"/>
<path class="l5" d="M23.3736 613.821L26.057 613.821L26.057 616.504L23.3736 616.504L23.3736 613.821z"/>
<path class="l5" d="M570.796 576.252L573.479 576.252L573.479 578.936L570.796 578.936L570.796 576.252z"/>
<path class="l5" d="M586.896 672.856L589.58 672.856L589.58 675.54L586.896 675.54L586.896 672.856z"/>
<path class="l5" d="M23.3736 581.619L26.057 581.619L26.057 584.303L23.3736 584.303L23.3736 581.619z"/>
<path class="l5" d="M678.133 608.454L680.817 608.454L680.817 611.137L678.133 611.137L678.133 608.454z"/>
<path class="l5" d="M667.399 592.353L670.083 592.353L670.083 595.036L667.399 595.036L667.399 592.353z"/>
<path class="l5" d="M833.773 468.915L836.456 468.915L836.456 471.598L833.773 471.598L833.773 468.915z"/>
<path class="l5" d="M758.637 635.288L761.32 635.288L761.32 637.971L758.637 637.971L758.637 635.288z"/>
<path class="l5" d="M769.37 619.187L772.054 619.187L772.054 621.871L769.37 621.871L769.37 619.187z"/>
<path class="l5" d="M908.909 485.015L911.593 485.015L911.593 487.699L908.909 487.699L908.909 485.015z"/>
<path class="l5" d="M860.607 656.756L863.291 656.756L863.291 659.439L860.607 659.439L860.607 656.756z"/>
<path class="l5" d="M871.341 640.655L874.024 640.655L874.024 643.338L871.341 643.338L871.341 640.655z"/>
<path class="l5" d="M855.24 554.785L857.924 554.785L857.924 557.468L855.24 557.468L855.24 554.785z"/>
<path class="l5" d="M930.377 597.72L933.06 597.72L933.06 600.403L930.377 600.403L930.377 597.72z"/>
<path class="l5" d="M941.111 581.619L943.794 581.619L943.794 584.303L941.111 584.303L941.111 581.619z"/>
<path class="l5" d="M645.932 511.85L648.615 511.85L648.615 514.533L645.932 514.533L645.932 511.85z"/>
<path class="l5" d="M656.666 495.749L659.349 495.749L659.349 498.433L656.666 498.433L656.666 495.749z"/>
<path class="l5" d="M571.466 544.722L572.808 544.722L572.808 546.064L571.466 546.064L571.466 544.722z"/>
<path class="l5" d="M689.538 593.024L690.88 593.024L690.88 594.366L689.538 594.366L689.538 593.024z"/>
<path class="l5" d="M748.574 619.858L749.915 619.858L749.915 621.2L748.574 621.2L748.574 619.858z"/>
<path class="l5" d="M850.544 641.326L851.886 641.326L851.886 642.668L850.544 642.668L850.544 641.326z"/>
<path class="l5" d="M920.314 582.29L921.656 582.29L921.656 583.632L920.314 583.632L920.314 582.29z"/>
<path class="l5" d="M678.804 576.923L680.146 576.923L680.146 578.265L678.804 578.265L678.804 576.923z"/>
<path class="l5" d="M689.538 453.485L690.88 453.485L690.88 454.827L689.538 454.827L689.538 453.485z"/>
<path class="l5" d="M678.804 469.586L680.146 469.586L680.146 470.927L678.804 470.927L678.804 469.586z"/>
<path class="l5" d="M716.372 356.881L717.714 356.881L717.714 358.223L716.372 358.223L716.372 356.881z"/>
<path class="l5" d="M727.106 533.988L728.448 533.988L728.448 535.33L727.106 535.33L727.106 533.988z"/>
<path class="l5" d="M968.616 448.118L969.957 448.118L969.957 449.46L968.616 449.46L968.616 448.118z"/>
<path class="l5" d="M764.674 405.183L766.016 405.183L766.016 406.525L764.674 406.525L764.674 405.183z"/>
<path class="l5" d="M823.71 453.485L825.052 453.485L825.052 454.827L823.71 454.827L823.71 453.485z"/>
<path class="l5" d="M818.343 383.715L819.685 383.715L819.685 385.057L818.343 385.057L818.343 383.715z"/>
<path class="l5" d="M888.113 485.686L889.454 485.686L889.454 487.028L888.113 487.028L888.113 485.686z"/>
<path class="l5" d="M1070.59 469.586L1071.93 469.586L1071.93 470.927L1070.59 470.927L1070.59 469.586z"/>
<path class="l5" d="M753.94 421.284L755.282 421.284L755.282 422.625L753.94 422.625L753.94 421.284z"/>
<path class="l5" d="M812.976 469.586L814.318 469.586L814.318 470.927L812.976 470.927L812.976 469.586z"/>
<path class="l5" d="M904.213 356.881L905.555 356.881L905.555 358.223L904.213 358.223L904.213 356.881z"/>
<path class="l5" d="M845.177 539.355L846.519 539.355L846.519 540.697L845.177 540.697L845.177 539.355z"/>
<path class="l5" d="M598.301 415.917L599.643 415.917L599.643 417.258L598.301 417.258L598.301 415.917z"/>
<path class="l5" d="M635.869 496.42L637.211 496.42L637.211 497.762L635.869 497.762L635.869 496.42z"/>
<path class="l5" d="M587.567 641.326L588.909 641.326L588.909 642.668L587.567 642.668L587.567 641.326z"/>
<path class="l5" d="M1070.59 501.787L1071.93 501.787L1071.93 503.129L1070.59 503.129L1070.59 501.787z"/>
<text fill="#cccccc"  xml:space="preserve" font-size="5.58156" transform="translate(51.5497, 481.362)" >Vdd</text>
<text fill="#cccccc"  xml:space="preserve" font-size="5.58156" transform="translate(51.5497, 494.779)" >1.8</text>
<text fill="#cccccc"  xml:space="preserve" font-size="5.58156" transform="translate(35.4491, 594.067)" >Vss</text>
<text fill="#cccccc"  xml:space="preserve" font-size="5.58156" transform="translate(35.4491, 607.484)" >0</text>
<text fill="#cccccc"  xml:space="preserve" font-size="5.58156" transform="translate(582.871, 556.499)" >Vctrl</text>
<text fill="#cccccc"  xml:space="preserve" font-size="5.58156" transform="translate(582.871, 569.916)" >0.9</text>
<text fill="#cccccc"  xml:space="preserve" font-size="5.58156" transform="translate(676.792, 582.662)" >XMref_n</text>
<text fill="#ff0000"  xml:space="preserve" font-size="4.18617" transform="translate(664.399, 606.888)" >S</text>
<text fill="#ff0000"  xml:space="preserve" font-size="4.18617" transform="translate(664.399, 583.302)" >D</text>
<text fill="#ff0000"  xml:space="preserve" font-size="4.18617" transform="translate(665.741, 592.129)" >B</text>
<text fill="#ff0000"  xml:space="preserve" font-size="4.18617" transform="translate(684.842, 592.129)" >G</text>
<text fill="#cccccc"  xml:space="preserve" font-size="5.58156" transform="translate(634.374, 587.665)" >nfet_01v8</text>
<text fill="#aaaa00"  xml:space="preserve" font-size="5.58156" transform="translate(613.703, 606.142)" >1 x {Wbn / 0.15</text>
<text fill="#aaaa00"  xml:space="preserve" font-size="5.58156" transform="translate(647.703, 599.434)" >nf=1</text>
<text fill="#00ffcc"  xml:space="preserve" font-size="4.18617" transform="translate(653.374, 581.395)" >id=-</text>
<text fill="#ff7777"  xml:space="preserve" font-size="4.18617" transform="translate(650.374, 592.129)" >gm=-</text>
<text fill="#ff7777"  xml:space="preserve" font-size="1.95355" transform="translate(676.792, 604.861)" >vgs= -  </text>
<text fill="#ff7777"  xml:space="preserve" font-size="1.95355" transform="translate(676.792, 607.101)" >vds= -  </text>
<text fill="#cccccc"  xml:space="preserve" font-size="5.58156" transform="translate(669.892, 459.224)" >XMref_p</text>
<text fill="#ff0000"  xml:space="preserve" font-size="4.18617" transform="translate(702.284, 483.45)" >D</text>
<text fill="#ff0000"  xml:space="preserve" font-size="4.18617" transform="translate(702.284, 459.864)" >S</text>
<text fill="#ff0000"  xml:space="preserve" font-size="4.18617" transform="translate(700.943, 468.691)" >B</text>
<text fill="#ff0000"  xml:space="preserve" font-size="4.18617" transform="translate(681.842, 468.691)" >G</text>
<text fill="#cccccc"  xml:space="preserve" font-size="5.58156" transform="translate(706.309, 464.226)" >pfet_01v8</text>
<text fill="#aaaa00"  xml:space="preserve" font-size="5.58156" transform="translate(706.98, 482.704)" >1 x {Wbp / 0.15</text>
<text fill="#aaaa00"  xml:space="preserve" font-size="5.58156" transform="translate(706.98, 475.995)" >nf=1</text>
<text fill="#00ffcc"  xml:space="preserve" font-size="4.18617" transform="translate(706.309, 457.957)" >id=-</text>
<text fill="#ff7777"  xml:space="preserve" font-size="4.18617" transform="translate(706.309, 468.691)" >gm=-</text>
<text fill="#ff7777"  xml:space="preserve" font-size="1.95355" transform="translate(683.892, 481.422)" >vgs= -  </text>
<text fill="#ff7777"  xml:space="preserve" font-size="1.95355" transform="translate(683.892, 483.663)" >vds= -  </text>
<text fill="#cccccc"  xml:space="preserve" font-size="5.58156" transform="translate(751.029, 410.922)" >XMp1</text>
<text fill="#ff0000"  xml:space="preserve" font-size="4.18617" transform="translate(777.421, 435.148)" >D</text>
<text fill="#ff0000"  xml:space="preserve" font-size="4.18617" transform="translate(777.421, 411.562)" >S</text>
<text fill="#ff0000"  xml:space="preserve" font-size="4.18617" transform="translate(776.079, 420.389)" >B</text>
<text fill="#ff0000"  xml:space="preserve" font-size="4.18617" transform="translate(756.978, 420.389)" >G</text>
<text fill="#cccccc"  xml:space="preserve" font-size="5.58156" transform="translate(781.446, 415.924)" >pfet_01v8</text>
<text fill="#aaaa00"  xml:space="preserve" font-size="5.58156" transform="translate(782.117, 434.402)" >1 x {Wp / 0.15</text>
<text fill="#aaaa00"  xml:space="preserve" font-size="5.58156" transform="translate(782.117, 427.693)" >nf=1</text>
<text fill="#00ffcc"  xml:space="preserve" font-size="4.18617" transform="translate(781.446, 409.655)" >id=-</text>
<text fill="#ff7777"  xml:space="preserve" font-size="4.18617" transform="translate(781.446, 420.389)" >gm=-</text>
<text fill="#ff7777"  xml:space="preserve" font-size="1.95355" transform="translate(759.029, 433.12)" >vgs= -  </text>
<text fill="#ff7777"  xml:space="preserve" font-size="1.95355" transform="translate(759.029, 435.361)" >vds= -  </text>
<text fill="#cccccc"  xml:space="preserve" font-size="5.58156" transform="translate(810.064, 459.224)" >XMn1</text>
<text fill="#ff0000"  xml:space="preserve" font-size="4.18617" transform="translate(836.456, 483.45)" >S</text>
<text fill="#ff0000"  xml:space="preserve" font-size="4.18617" transform="translate(836.456, 459.864)" >D</text>
<text fill="#ff0000"  xml:space="preserve" font-size="4.18617" transform="translate(835.115, 468.691)" >B</text>
<text fill="#ff0000"  xml:space="preserve" font-size="4.18617" transform="translate(816.014, 468.691)" >G</text>
<text fill="#cccccc"  xml:space="preserve" font-size="5.58156" transform="translate(840.481, 464.226)" >nfet_01v8</text>
<text fill="#aaaa00"  xml:space="preserve" font-size="5.58156" transform="translate(841.152, 482.704)" >1 x {Wn / 0.15</text>
<text fill="#aaaa00"  xml:space="preserve" font-size="5.58156" transform="translate(841.152, 475.995)" >nf=1</text>
<text fill="#00ffcc"  xml:space="preserve" font-size="4.18617" transform="translate(840.481, 457.957)" >id=-</text>
<text fill="#ff7777"  xml:space="preserve" font-size="4.18617" transform="translate(840.481, 468.691)" >gm=-</text>
<text fill="#ff7777"  xml:space="preserve" font-size="1.95355" transform="translate(818.064, 481.422)" >vgs= -  </text>
<text fill="#ff7777"  xml:space="preserve" font-size="1.95355" transform="translate(818.064, 483.663)" >vds= -  </text>
<text fill="#cccccc"  xml:space="preserve" font-size="5.58156" transform="translate(703.626, 346.519)" >XMsp1</text>
<text fill="#ff0000"  xml:space="preserve" font-size="4.18617" transform="translate(691.234, 370.745)" >D</text>
<text fill="#ff0000"  xml:space="preserve" font-size="4.18617" transform="translate(691.234, 347.159)" >S</text>
<text fill="#ff0000"  xml:space="preserve" font-size="4.18617" transform="translate(692.576, 355.986)" >B</text>
<text fill="#ff0000"  xml:space="preserve" font-size="4.18617" transform="translate(711.676, 355.986)" >G</text>
<text fill="#cccccc"  xml:space="preserve" font-size="5.58156" transform="translate(661.209, 351.522)" >pfet_01v8</text>
<text fill="#aaaa00"  xml:space="preserve" font-size="5.58156" transform="translate(641.538, 369.999)" >1 x {Wsp / 0.15</text>
<text fill="#aaaa00"  xml:space="preserve" font-size="5.58156" transform="translate(674.538, 363.291)" >nf=1</text>
<text fill="#00ffcc"  xml:space="preserve" font-size="4.18617" transform="translate(680.209, 345.252)" >id=-</text>
<text fill="#ff7777"  xml:space="preserve" font-size="4.18617" transform="translate(677.209, 355.986)" >gm=-</text>
<text fill="#ff7777"  xml:space="preserve" font-size="1.95355" transform="translate(703.626, 368.718)" >vgs= -  </text>
<text fill="#ff7777"  xml:space="preserve" font-size="1.95355" transform="translate(703.626, 370.958)" >vds= -  </text>
<text fill="#cccccc"  xml:space="preserve" font-size="5.58156" transform="translate(742.662, 609.497)" >XMsn1</text>
<text fill="#ff0000"  xml:space="preserve" font-size="4.18617" transform="translate(772.054, 633.722)" >S</text>
<text fill="#ff0000"  xml:space="preserve" font-size="4.18617" transform="translate(772.054, 610.137)" >D</text>
<text fill="#ff0000"  xml:space="preserve" font-size="4.18617" transform="translate(770.712, 618.963)" >B</text>
<text fill="#ff0000"  xml:space="preserve" font-size="4.18617" transform="translate(751.611, 618.963)" >G</text>
<text fill="#cccccc"  xml:space="preserve" font-size="5.58156" transform="translate(776.079, 614.499)" >nfet_01v8</text>
<text fill="#aaaa00"  xml:space="preserve" font-size="5.58156" transform="translate(776.75, 632.977)" >1 x {Wsn / 0.15</text>
<text fill="#aaaa00"  xml:space="preserve" font-size="5.58156" transform="translate(776.75, 626.268)" >nf=1</text>
<text fill="#00ffcc"  xml:space="preserve" font-size="4.18617" transform="translate(776.079, 608.23)" >id=-</text>
<text fill="#ff7777"  xml:space="preserve" font-size="4.18617" transform="translate(776.079, 618.963)" >gm=-</text>
<text fill="#ff7777"  xml:space="preserve" font-size="1.95355" transform="translate(753.662, 631.695)" >vgs= -  </text>
<text fill="#ff7777"  xml:space="preserve" font-size="1.95355" transform="translate(753.662, 633.936)" >vds= -  </text>
<text fill="#cccccc"  xml:space="preserve" font-size="5.58156" transform="translate(815.431, 373.354)" >XMp2</text>
<text fill="#ff0000"  xml:space="preserve" font-size="4.18617" transform="translate(841.823, 397.579)" >D</text>
<text fill="#ff0000"  xml:space="preserve" font-size="4.18617" transform="translate(841.823, 373.994)" >S</text>
<text fill="#ff0000"  xml:space="preserve" font-size="4.18617" transform="translate(840.481, 382.82)" >B</text>
<text fill="#ff0000"  xml:space="preserve" font-size="4.18617" transform="translate(821.381, 382.82)" >G</text>
<text fill="#cccccc"  xml:space="preserve" font-size="5.58156" transform="translate(845.848, 378.356)" >pfet_01v8</text>
<text fill="#aaaa00"  xml:space="preserve" font-size="5.58156" transform="translate(846.519, 396.834)" >1 x {Wp / 0.15</text>
<text fill="#aaaa00"  xml:space="preserve" font-size="5.58156" transform="translate(846.519, 390.125)" >nf=1</text>
<text fill="#00ffcc"  xml:space="preserve" font-size="4.18617" transform="translate(845.848, 372.087)" >id=-</text>
<text fill="#ff7777"  xml:space="preserve" font-size="4.18617" transform="translate(845.848, 382.82)" >gm=-</text>
<text fill="#ff7777"  xml:space="preserve" font-size="1.95355" transform="translate(823.431, 395.552)" >vgs= -  </text>
<text fill="#ff7777"  xml:space="preserve" font-size="1.95355" transform="translate(823.431, 397.793)" >vds= -  </text>
<text fill="#cccccc"  xml:space="preserve" font-size="5.58156" transform="translate(885.201, 475.324)" >XMn2</text>
<text fill="#ff0000"  xml:space="preserve" font-size="4.18617" transform="translate(911.593, 499.55)" >S</text>
<text fill="#ff0000"  xml:space="preserve" font-size="4.18617" transform="translate(911.593, 475.965)" >D</text>
<text fill="#ff0000"  xml:space="preserve" font-size="4.18617" transform="translate(910.251, 484.791)" >B</text>
<text fill="#ff0000"  xml:space="preserve" font-size="4.18617" transform="translate(891.15, 484.791)" >G</text>
<text fill="#cccccc"  xml:space="preserve" font-size="5.58156" transform="translate(915.618, 480.327)" >nfet_01v8</text>
<text fill="#aaaa00"  xml:space="preserve" font-size="5.58156" transform="translate(916.289, 498.805)" >1 x {Wn / 0.15</text>
<text fill="#aaaa00"  xml:space="preserve" font-size="5.58156" transform="translate(916.289, 492.096)" >nf=1</text>
<text fill="#00ffcc"  xml:space="preserve" font-size="4.18617" transform="translate(915.618, 474.057)" >id=-</text>
<text fill="#ff7777"  xml:space="preserve" font-size="4.18617" transform="translate(915.618, 484.791)" >gm=-</text>
<text fill="#ff7777"  xml:space="preserve" font-size="1.95355" transform="translate(893.201, 497.523)" >vgs= -  </text>
<text fill="#ff7777"  xml:space="preserve" font-size="1.95355" transform="translate(893.201, 499.764)" >vds= -  </text>
<text fill="#cccccc"  xml:space="preserve" font-size="5.58156" transform="translate(721.194, 523.626)" >XMsp2</text>
<text fill="#ff0000"  xml:space="preserve" font-size="4.18617" transform="translate(750.586, 547.852)" >D</text>
<text fill="#ff0000"  xml:space="preserve" font-size="4.18617" transform="translate(750.586, 524.266)" >S</text>
<text fill="#ff0000"  xml:space="preserve" font-size="4.18617" transform="translate(749.244, 533.093)" >B</text>
<text fill="#ff0000"  xml:space="preserve" font-size="4.18617" transform="translate(730.144, 533.093)" >G</text>
<text fill="#cccccc"  xml:space="preserve" font-size="5.58156" transform="translate(754.611, 528.629)" >pfet_01v8</text>
<text fill="#aaaa00"  xml:space="preserve" font-size="5.58156" transform="translate(755.282, 547.107)" >1 x {Wsp / 0.15</text>
<text fill="#aaaa00"  xml:space="preserve" font-size="5.58156" transform="translate(755.282, 540.398)" >nf=1</text>
<text fill="#00ffcc"  xml:space="preserve" font-size="4.18617" transform="translate(754.611, 522.359)" >id=-</text>
<text fill="#ff7777"  xml:space="preserve" font-size="4.18617" transform="translate(754.611, 533.093)" >gm=-</text>
<text fill="#ff7777"  xml:space="preserve" font-size="1.95355" transform="translate(732.194, 545.825)" >vgs= -  </text>
<text fill="#ff7777"  xml:space="preserve" font-size="1.95355" transform="translate(732.194, 548.066)" >vds= -  </text>
<text fill="#cccccc"  xml:space="preserve" font-size="5.58156" transform="translate(844.632, 630.964)" >XMsn2</text>
<text fill="#ff0000"  xml:space="preserve" font-size="4.18617" transform="translate(874.024, 655.19)" >S</text>
<text fill="#ff0000"  xml:space="preserve" font-size="4.18617" transform="translate(874.024, 631.604)" >D</text>
<text fill="#ff0000"  xml:space="preserve" font-size="4.18617" transform="translate(872.683, 640.431)" >B</text>
<text fill="#ff0000"  xml:space="preserve" font-size="4.18617" transform="translate(853.582, 640.431)" >G</text>
<text fill="#cccccc"  xml:space="preserve" font-size="5.58156" transform="translate(878.05, 635.967)" >nfet_01v8</text>
<text fill="#aaaa00"  xml:space="preserve" font-size="5.58156" transform="translate(878.72, 654.444)" >1 x {Wsn / 0.15</text>
<text fill="#aaaa00"  xml:space="preserve" font-size="5.58156" transform="translate(878.72, 647.736)" >nf=1</text>
<text fill="#00ffcc"  xml:space="preserve" font-size="4.18617" transform="translate(878.05, 629.697)" >id=-</text>
<text fill="#ff7777"  xml:space="preserve" font-size="4.18617" transform="translate(878.05, 640.431)" >gm=-</text>
<text fill="#ff7777"  xml:space="preserve" font-size="1.95355" transform="translate(855.632, 653.163)" >vgs= -  </text>
<text fill="#ff7777"  xml:space="preserve" font-size="1.95355" transform="translate(855.632, 655.403)" >vds= -  </text>
<text fill="#cccccc"  xml:space="preserve" font-size="5.58156" transform="translate(890.567, 362.62)" >XMp3</text>
<text fill="#ff0000"  xml:space="preserve" font-size="4.18617" transform="translate(916.96, 386.846)" >D</text>
<text fill="#ff0000"  xml:space="preserve" font-size="4.18617" transform="translate(916.96, 363.26)" >S</text>
<text fill="#ff0000"  xml:space="preserve" font-size="4.18617" transform="translate(915.618, 372.087)" >B</text>
<text fill="#ff0000"  xml:space="preserve" font-size="4.18617" transform="translate(896.517, 372.087)" >G</text>
<text fill="#cccccc"  xml:space="preserve" font-size="5.58156" transform="translate(920.985, 367.623)" >pfet_01v8</text>
<text fill="#aaaa00"  xml:space="preserve" font-size="5.58156" transform="translate(921.656, 386.1)" >1 x {Wp / 0.15</text>
<text fill="#aaaa00"  xml:space="preserve" font-size="5.58156" transform="translate(921.656, 379.391)" >nf=1</text>
<text fill="#00ffcc"  xml:space="preserve" font-size="4.18617" transform="translate(920.985, 361.353)" >id=-</text>
<text fill="#ff7777"  xml:space="preserve" font-size="4.18617" transform="translate(920.985, 372.087)" >gm=-</text>
<text fill="#ff7777"  xml:space="preserve" font-size="1.95355" transform="translate(898.567, 384.818)" >vgs= -  </text>
<text fill="#ff7777"  xml:space="preserve" font-size="1.95355" transform="translate(898.567, 387.059)" >vds= -  </text>
<text fill="#cccccc"  xml:space="preserve" font-size="5.58156" transform="translate(831.532, 545.094)" >XMn3</text>
<text fill="#ff0000"  xml:space="preserve" font-size="4.18617" transform="translate(857.924, 569.32)" >S</text>
<text fill="#ff0000"  xml:space="preserve" font-size="4.18617" transform="translate(857.924, 545.734)" >D</text>
<text fill="#ff0000"  xml:space="preserve" font-size="4.18617" transform="translate(856.582, 554.561)" >B</text>
<text fill="#ff0000"  xml:space="preserve" font-size="4.18617" transform="translate(837.481, 554.561)" >G</text>
<text fill="#cccccc"  xml:space="preserve" font-size="5.58156" transform="translate(861.949, 550.097)" >nfet_01v8</text>
<text fill="#aaaa00"  xml:space="preserve" font-size="5.58156" transform="translate(862.62, 568.574)" >1 x {Wn / 0.15</text>
<text fill="#aaaa00"  xml:space="preserve" font-size="5.58156" transform="translate(862.62, 561.865)" >nf=1</text>
<text fill="#00ffcc"  xml:space="preserve" font-size="4.18617" transform="translate(861.949, 543.827)" >id=-</text>
<text fill="#ff7777"  xml:space="preserve" font-size="4.18617" transform="translate(861.949, 554.561)" >gm=-</text>
<text fill="#ff7777"  xml:space="preserve" font-size="1.95355" transform="translate(839.532, 567.292)" >vgs= -  </text>
<text fill="#ff7777"  xml:space="preserve" font-size="1.95355" transform="translate(839.532, 569.533)" >vds= -  </text>
<text fill="#cccccc"  xml:space="preserve" font-size="5.58156" transform="translate(962.704, 437.756)" >XMsp3</text>
<text fill="#ff0000"  xml:space="preserve" font-size="4.18617" transform="translate(992.096, 461.982)" >D</text>
<text fill="#ff0000"  xml:space="preserve" font-size="4.18617" transform="translate(992.096, 438.396)" >S</text>
<text fill="#ff0000"  xml:space="preserve" font-size="4.18617" transform="translate(990.754, 447.223)" >B</text>
<text fill="#ff0000"  xml:space="preserve" font-size="4.18617" transform="translate(971.654, 447.223)" >G</text>
<text fill="#cccccc"  xml:space="preserve" font-size="5.58156" transform="translate(996.121, 442.759)" >pfet_01v8</text>
<text fill="#aaaa00"  xml:space="preserve" font-size="5.58156" transform="translate(996.792, 461.236)" >1 x {Wsp / 0.15</text>
<text fill="#aaaa00"  xml:space="preserve" font-size="5.58156" transform="translate(996.792, 454.528)" >nf=1</text>
<text fill="#00ffcc"  xml:space="preserve" font-size="4.18617" transform="translate(996.121, 436.489)" >id=-</text>
<text fill="#ff7777"  xml:space="preserve" font-size="4.18617" transform="translate(996.121, 447.223)" >gm=-</text>
<text fill="#ff7777"  xml:space="preserve" font-size="1.95355" transform="translate(973.704, 459.955)" >vgs= -  </text>
<text fill="#ff7777"  xml:space="preserve" font-size="1.95355" transform="translate(973.704, 462.195)" >vds= -  </text>
<text fill="#cccccc"  xml:space="preserve" font-size="5.58156" transform="translate(914.402, 571.928)" >XMsn3</text>
<text fill="#ff0000"  xml:space="preserve" font-size="4.18617" transform="translate(943.794, 596.154)" >S</text>
<text fill="#ff0000"  xml:space="preserve" font-size="4.18617" transform="translate(943.794, 572.568)" >D</text>
<text fill="#ff0000"  xml:space="preserve" font-size="4.18617" transform="translate(942.452, 581.395)" >B</text>
<text fill="#ff0000"  xml:space="preserve" font-size="4.18617" transform="translate(923.352, 581.395)" >G</text>
<text fill="#cccccc"  xml:space="preserve" font-size="5.58156" transform="translate(947.819, 576.931)" >nfet_01v8</text>
<text fill="#aaaa00"  xml:space="preserve" font-size="5.58156" transform="translate(948.49, 595.408)" >1 x {Wsn / 0.15</text>
<text fill="#aaaa00"  xml:space="preserve" font-size="5.58156" transform="translate(948.49, 588.7)" >nf=1</text>
<text fill="#00ffcc"  xml:space="preserve" font-size="4.18617" transform="translate(947.819, 570.661)" >id=-</text>
<text fill="#ff7777"  xml:space="preserve" font-size="4.18617" transform="translate(947.819, 581.395)" >gm=-</text>
<text fill="#ff7777"  xml:space="preserve" font-size="1.95355" transform="translate(925.402, 594.127)" >vgs= -  </text>
<text fill="#ff7777"  xml:space="preserve" font-size="1.95355" transform="translate(925.402, 596.368)" >vds= -  </text>
<text fill="#cccccc"  xml:space="preserve" font-size="5.58156" transform="translate(589.389, 405.555)" >XMpout</text>
<text fill="#ff0000"  xml:space="preserve" font-size="4.18617" transform="translate(621.781, 429.781)" >D</text>
<text fill="#ff0000"  xml:space="preserve" font-size="4.18617" transform="translate(621.781, 406.195)" >S</text>
<text fill="#ff0000"  xml:space="preserve" font-size="4.18617" transform="translate(620.439, 415.022)" >B</text>
<text fill="#ff0000"  xml:space="preserve" font-size="4.18617" transform="translate(601.339, 415.022)" >G</text>
<text fill="#cccccc"  xml:space="preserve" font-size="5.58156" transform="translate(625.806, 410.558)" >pfet_01v8</text>
<text fill="#aaaa00"  xml:space="preserve" font-size="5.58156" transform="translate(626.477, 429.035)" >1 x 5u / 0.15u</text>
<text fill="#aaaa00"  xml:space="preserve" font-size="5.58156" transform="translate(626.477, 422.327)" >nf=1</text>
<text fill="#00ffcc"  xml:space="preserve" font-size="4.18617" transform="translate(625.806, 404.288)" >id=-</text>
<text fill="#ff7777"  xml:space="preserve" font-size="4.18617" transform="translate(625.806, 415.022)" >gm=-</text>
<text fill="#ff7777"  xml:space="preserve" font-size="1.95355" transform="translate(603.389, 427.753)" >vgs= -  </text>
<text fill="#ff7777"  xml:space="preserve" font-size="1.95355" transform="translate(603.389, 429.994)" >vds= -  </text>
<text fill="#cccccc"  xml:space="preserve" font-size="5.58156" transform="translate(626.957, 486.058)" >XMnout</text>
<text fill="#ff0000"  xml:space="preserve" font-size="4.18617" transform="translate(659.349, 510.284)" >S</text>
<text fill="#ff0000"  xml:space="preserve" font-size="4.18617" transform="translate(659.349, 486.698)" >D</text>
<text fill="#ff0000"  xml:space="preserve" font-size="4.18617" transform="translate(658.007, 495.525)" >B</text>
<text fill="#ff0000"  xml:space="preserve" font-size="4.18617" transform="translate(638.907, 495.525)" >G</text>
<text fill="#cccccc"  xml:space="preserve" font-size="5.58156" transform="translate(663.374, 491.061)" >nfet_01v8</text>
<text fill="#aaaa00"  xml:space="preserve" font-size="5.58156" transform="translate(664.045, 509.538)" >1 x 2.5u / 0.15u</text>
<text fill="#aaaa00"  xml:space="preserve" font-size="5.58156" transform="translate(664.045, 502.83)" >nf=1</text>
<text fill="#00ffcc"  xml:space="preserve" font-size="4.18617" transform="translate(663.374, 484.791)" >id=-</text>
<text fill="#ff7777"  xml:space="preserve" font-size="4.18617" transform="translate(663.374, 495.525)" >gm=-</text>
<text fill="#ff7777"  xml:space="preserve" font-size="1.95355" transform="translate(640.957, 508.257)" >vgs= -  </text>
<text fill="#ff7777"  xml:space="preserve" font-size="1.95355" transform="translate(640.957, 510.497)" >vds= -  </text>
<text fill="#cccccc"  xml:space="preserve" font-size="5.58156" transform="translate(598.972, 653.102)" >Vkick</text>
<text fill="#cccccc"  xml:space="preserve" font-size="5.58156" transform="translate(598.972, 666.52)" >pulse(0</text>
<text fill="#aaaa00"  xml:space="preserve" font-size="5.58156" transform="translate(1064.57, 477.337)" >1</text>
<text fill="#aaaa00"  xml:space="preserve" font-size="5.58156" transform="translate(1064.57, 500.146)" >2</text>
<text fill="#cccccc"  xml:space="preserve" font-size="5.58156" transform="translate(1079.31, 481.362)" >Ckick</text>
<text fill="#cccccc"  xml:space="preserve" font-size="5.58156" transform="translate(1079.31, 488.071)" >5f</text>
<text fill="#cccccc"  xml:space="preserve" font-size="5.58156" transform="translate(1079.31, 494.779)" >m=1</text>
<text fill="#00ddff"  xml:space="preserve" font-size="5.58156" transform="translate(34.1074, 456.54)" >VDD</text>
<text fill="#00ddff"  xml:space="preserve" font-size="5.58156" transform="translate(683.5, 472.641)" >VDD</text>
<text fill="#00ddff"  xml:space="preserve" font-size="5.58156" transform="translate(694.234, 456.54)" >VDD</text>
<text fill="#00ddff"  xml:space="preserve" font-size="5.58156" transform="translate(769.37, 408.238)" >VDD</text>
<text fill="#00ddff"  xml:space="preserve" font-size="5.58156" transform="translate(699.601, 359.937)" >VDD</text>
<text fill="#00ddff"  xml:space="preserve" font-size="5.58156" transform="translate(688.867, 343.836)" >VDD</text>
<text fill="#00ddff"  xml:space="preserve" font-size="5.58156" transform="translate(833.773, 370.67)" >VDD</text>
<text fill="#00ddff"  xml:space="preserve" font-size="5.58156" transform="translate(731.802, 537.044)" >VDD</text>
<text fill="#00ddff"  xml:space="preserve" font-size="5.58156" transform="translate(742.536, 520.943)" >VDD</text>
<text fill="#00ddff"  xml:space="preserve" font-size="5.58156" transform="translate(908.909, 359.937)" >VDD</text>
<text fill="#00ddff"  xml:space="preserve" font-size="5.58156" transform="translate(973.312, 451.174)" >VDD</text>
<text fill="#00ddff"  xml:space="preserve" font-size="5.58156" transform="translate(984.046, 435.073)" >VDD</text>
<text fill="#00ddff"  xml:space="preserve" font-size="5.58156" transform="translate(602.997, 418.972)" >VDD</text>
<text fill="#00ddff"  xml:space="preserve" font-size="5.58156" transform="translate(613.731, 402.872)" >VDD</text>
<text fill="#00ddff"  xml:space="preserve" font-size="5.58156" transform="translate(44.8411, 510.209)" >GND</text>
<text fill="#00ddff"  xml:space="preserve" font-size="5.58156" transform="translate(28.7405, 622.914)" >GND</text>
<text fill="#00ddff"  xml:space="preserve" font-size="5.58156" transform="translate(576.162, 585.346)" >GND</text>
<text fill="#00ddff"  xml:space="preserve" font-size="5.58156" transform="translate(592.263, 681.949)" >GND</text>
<text fill="#00ddff"  xml:space="preserve" font-size="5.58156" transform="translate(28.7405, 590.712)" >VSS</text>
<text fill="#00ddff"  xml:space="preserve" font-size="5.58156" transform="translate(683.5, 617.547)" >VSS</text>
<text fill="#00ddff"  xml:space="preserve" font-size="5.58156" transform="translate(672.766, 601.446)" >VSS</text>
<text fill="#00ddff"  xml:space="preserve" font-size="5.58156" transform="translate(839.14, 478.008)" >VSS</text>
<text fill="#00ddff"  xml:space="preserve" font-size="5.58156" transform="translate(764.003, 644.381)" >VSS</text>
<text fill="#00ddff"  xml:space="preserve" font-size="5.58156" transform="translate(774.737, 628.281)" >VSS</text>
<text fill="#00ddff"  xml:space="preserve" font-size="5.58156" transform="translate(914.276, 494.109)" >VSS</text>
<text fill="#00ddff"  xml:space="preserve" font-size="5.58156" transform="translate(865.974, 665.849)" >VSS</text>
<text fill="#00ddff"  xml:space="preserve" font-size="5.58156" transform="translate(876.708, 649.748)" >VSS</text>
<text fill="#00ddff"  xml:space="preserve" font-size="5.58156" transform="translate(860.607, 563.878)" >VSS</text>
<text fill="#00ddff"  xml:space="preserve" font-size="5.58156" transform="translate(935.744, 606.813)" >VSS</text>
<text fill="#00ddff"  xml:space="preserve" font-size="5.58156" transform="translate(946.477, 590.712)" >VSS</text>
<text fill="#00ddff"  xml:space="preserve" font-size="5.58156" transform="translate(651.299, 520.943)" >VSS</text>
<text fill="#00ddff"  xml:space="preserve" font-size="5.58156" transform="translate(662.033, 504.842)" >VSS</text>
<text fill="#00ddff"  xml:space="preserve" font-size="9.20957" transform="translate(547.112, 549.394)" >vctrl</text>
<text fill="#00ddff"  xml:space="preserve" font-size="9.20957" transform="translate(665.184, 597.696)" >vctrl</text>
<text fill="#00ddff"  xml:space="preserve" font-size="9.20957" transform="translate(724.219, 624.531)" >vctrl</text>
<text fill="#00ddff"  xml:space="preserve" font-size="9.20957" transform="translate(826.19, 645.998)" >vctrl</text>
<text fill="#00ddff"  xml:space="preserve" font-size="9.20957" transform="translate(895.96, 586.963)" >vctrl</text>
<text fill="#00ddff"  xml:space="preserve" font-size="9.20957" transform="translate(649.45, 581.596)" >pbias</text>
<text fill="#00ddff"  xml:space="preserve" font-size="9.20957" transform="translate(660.184, 458.157)" >pbias</text>
<text fill="#00ddff"  xml:space="preserve" font-size="9.20957" transform="translate(649.45, 474.258)" >pbias</text>
<text fill="#00ddff"  xml:space="preserve" font-size="9.20957" transform="translate(687.018, 361.554)" >pbias</text>
<text fill="#00ddff"  xml:space="preserve" font-size="9.20957" transform="translate(697.752, 538.661)" >pbias</text>
<text fill="#00ddff"  xml:space="preserve" font-size="9.20957" transform="translate(939.261, 452.791)" >pbias</text>
<text fill="#00ddff"  xml:space="preserve" font-size="9.20957" transform="translate(749.32, 409.856)" >n1</text>
<text fill="#00ddff"  xml:space="preserve" font-size="9.20957" transform="translate(808.356, 458.157)" >n1</text>
<text fill="#00ddff"  xml:space="preserve" font-size="9.20957" transform="translate(802.989, 388.388)" >n1</text>
<text fill="#00ddff"  xml:space="preserve" font-size="9.20957" transform="translate(872.758, 490.359)" >n1</text>
<text fill="#00ddff"  xml:space="preserve" font-size="9.20957" transform="translate(1055.23, 474.258)" >n1</text>
<text fill="#00ddff"  xml:space="preserve" font-size="9.20957" transform="translate(738.586, 425.956)" >n3</text>
<text fill="#00ddff"  xml:space="preserve" font-size="9.20957" transform="translate(797.622, 474.258)" >n3</text>
<text fill="#00ddff"  xml:space="preserve" font-size="9.20957" transform="translate(888.859, 361.554)" >n3</text>
<text fill="#00ddff"  xml:space="preserve" font-size="9.20957" transform="translate(829.823, 544.028)" >n3</text>
<text fill="#00ddff"  xml:space="preserve" font-size="9.20957" transform="translate(582.947, 420.589)" >n3</text>
<text fill="#00ddff"  xml:space="preserve" font-size="9.20957" transform="translate(620.515, 501.093)" >n3</text>
<text fill="#00ddff"  xml:space="preserve" font-size="9.20957" transform="translate(565.213, 645.998)" >kick</text>
<text fill="#00ddff"  xml:space="preserve" font-size="9.20957" transform="translate(1048.23, 506.459)" >kick</text>
<path class="l1" d="M706.309 438.055L765.345 438.055"/>
<path class="l1" d="M706.309 341.451L706.309 438.055"/>
<path class="l1" d="M759.978 486.357L824.381 486.357"/>
<path class="l1" d="M759.978 486.357L759.978 604.428"/>
<path class="l1" d="M829.748 368.286L867.316 368.286"/>
<path class="l1" d="M867.316 368.286L867.316 443.422"/>
<path class="l1" d="M867.316 470.256L899.517 470.256"/>
<path class="l1" d="M867.316 443.422L867.316 470.256"/>
<path class="l1" d="M867.316 373.653L894.15 373.653"/>
<path class="l1" d="M867.316 373.653L867.316 443.422"/>
<path class="l1" d="M835.115 556.127L867.316 556.127"/>
<path class="l1" d="M867.316 443.422L867.316 556.127"/>
<path class="l1" d="M738.511 400.487L829.748 400.487"/>
<path class="l1" d="M738.511 400.487L738.511 518.558"/>
<path class="l1" d="M861.949 502.458L899.517 502.458"/>
<path class="l1" d="M861.949 502.458L861.949 625.896"/>
<path class="l1" d="M904.884 389.753L980.02 389.753"/>
<path class="l1" d="M980.02 389.753L980.02 432.688"/>
<path class="l1" d="M845.848 572.227L931.718 572.227"/>
<path class="l1" d="M931.718 566.86L931.718 572.227"/>
<path class="l1" d="M609.706 400.487L647.274 400.487"/>
<path class="l1" d="M647.274 400.487L647.274 480.99"/>
<circle class="l1" cx="867.316" cy="373.653" r="1.98575"/>
<circle class="l1" cx="867.316" cy="443.422" r="1.98575"/>
<circle class="l1" cx="867.316" cy="373.653" r="1.98575"/>
<circle class="l1" cx="867.316" cy="443.422" r="1.98575"/>
<circle class="l1" cx="867.316" cy="443.422" r="1.98575"/>
<circle class="l1" cx="867.316" cy="443.422" r="1.98575"/>
<circle class="l1" cx="867.316" cy="470.256" r="1.98575"/>
<circle class="l1" cx="867.316" cy="470.256" r="1.98575"/>
<text fill="#cccccc"  xml:space="preserve" font-size="16.7447" transform="translate(24.7153, 276.152)" >SKY130 Complementary Current-Starved Ring Oscillator — 3-stage</text>
<text fill="#cccccc"  xml:space="preserve" font-size="11.1631" transform="translate(24.7153, 292.552)" >=== Current mirror bias ===</text>
<text fill="#cccccc"  xml:space="preserve" font-size="11.1631" transform="translate(24.7153, 308.652)" >=== Stage 1 ===</text>
<text fill="#cccccc"  xml:space="preserve" font-size="11.1631" transform="translate(24.7153, 324.753)" >=== Stage 2 ===</text>
<text fill="#cccccc"  xml:space="preserve" font-size="11.1631" transform="translate(24.7153, 340.854)" >=== Stage 3 ===</text>
</svg>
