<svg xmlns="http://www.w3.org/2000/svg" xmlns:xlink="http://www.w3.org/1999/xlink" width="1111" height="694" version="1.1">
<style type="text/css">
.l0{
  fill: #000000;
  stroke: #000000;
  stroke-linecap:round;
  stroke-linejoin:round;
  stroke-width: 0.811408;
}
.l1{
  fill: #00ddff;
  stroke: #00ddff;
  stroke-linecap:round;
  stroke-linejoin:round;
  stroke-width: 0.811408;
}
.l2{
  fill: #4f4f4f; fill-opacity: 0.2;
  stroke: #4f4f4f;
  stroke-linecap:round;
  stroke-linejoin:round;
  stroke-width: 0.811408;
}
.l3{
  fill: #cccccc; fill-opacity: 0.5;
  stroke: #cccccc;
  stroke-linecap:round;
  stroke-linejoin:round;
  stroke-width: 0.811408;
}
.l4{
  fill: #88dd00;
  stroke: #88dd00;
  stroke-linecap:round;
  stroke-linejoin:round;
  stroke-width: 0.811408;
}
.l5{
  fill: #bb2200;
  stroke: #bb2200;
  stroke-linecap:round;
  stroke-linejoin:round;
  stroke-width: 0.811408;
}
.l6{
  fill: #00aaff; fill-opacity: 0.5;
  stroke: #00aaff;
  stroke-linecap:round;
  stroke-linejoin:round;
  stroke-width: 0.811408;
}
.l7{
  fill: #ff0000; fill-opacity: 0.5;
  stroke: #ff0000;
  stroke-linecap:round;
  stroke-linejoin:round;
  stroke-width: 0.811408;
}
.l8{
  fill: #ffff00; fill-opacity: 0.5;
  stroke: #ffff00;
  stroke-linecap:round;
  stroke-linejoin:round;
  stroke-width: 0.811408;
}
.l9{
  fill: #ffffff; fill-opacity: 0.5;
  stroke: #ffffff;
  stroke-linecap:round;
  stroke-linejoin:round;
  stroke-width: 0.811408;
}
.l10{
  fill: #ff00ff;
  stroke: #ff00ff;
  stroke-linecap:round;
  stroke-linejoin:round;
  stroke-width: 0.811408;
}
.l11{
  fill: #00ff00; fill-opacity: 0.5;
  stroke: #00ff00;
  stroke-linecap:round;
  stroke-linejoin:round;
  stroke-width: 0.811408;
}
.l12{
  fill: #0044ff; fill-opacity: 0.5;
  stroke: #0044ff;
  stroke-linecap:round;
  stroke-linejoin:round;
  stroke-width: 0.811408;
}
.l13{
  fill: #aaaa00; fill-opacity: 0.5;
  stroke: #aaaa00;
  stroke-linecap:round;
  stroke-linejoin:round;
  stroke-width: 0.811408;
}
.l14{
  fill: #aaccaa; fill-opacity: 0.2;
  stroke: #aaccaa;
  stroke-linecap:round;
  stroke-linejoin:round;
  stroke-width: 0.811408;
}
.l15{
  fill: #ff7777; fill-opacity: 0.5;
  stroke: #ff7777;
  stroke-linecap:round;
  stroke-linejoin:round;
  stroke-width: 0.811408;
}
.l16{
  fill: #bfff81; fill-opacity: 0.5;
  stroke: #bfff81;
  stroke-linecap:round;
  stroke-linejoin:round;
  stroke-width: 0.811408;
}
.l17{
  fill: #00ffcc; fill-opacity: 0.2;
  stroke: #00ffcc;
  stroke-linecap:round;
  stroke-linejoin:round;
  stroke-width: 0.811408;
}
.l18{
  fill: #ce0097; fill-opacity: 0.5;
  stroke: #ce0097;
  stroke-linecap:round;
  stroke-linejoin:round;
  stroke-width: 0.811408;
}
.l19{
  fill: #d2d46b; fill-opacity: 0.2;
  stroke: #d2d46b;
  stroke-linecap:round;
  stroke-linejoin:round;
  stroke-width: 0.811408;
}
.l20{
  fill: #ef6158; fill-opacity: 0.2;
  stroke: #ef6158;
  stroke-linecap:round;
  stroke-linejoin:round;
  stroke-width: 0.811408;
}
.l21{
  fill: #fdb200; fill-opacity: 0.2;
  stroke: #fdb200;
  stroke-linecap:round;
  stroke-linejoin:round;
  stroke-width: 0.811408;
}
text {font-family: Sans-Serif;}
</style>
<rect class="l0" x="0" y="0" width="1111" height="694"/>
<path class="l4" d="M36.1989 407.11L39.2041 407.11"/>
<path class="l4" d="M37.7015 405.608L37.7015 408.613"/>
<path class="l4" d="M34.6963 402.602L34.6963 438.665"/>
<circle class="l4" cx="34.6963" cy="420.634" r="9.01564" style="fill:none;" />
<path class="l4" d="M30.1885 545.35L33.1937 545.35"/>
<path class="l4" d="M31.6911 543.848L31.6911 546.853"/>
<path class="l4" d="M28.6859 540.842L28.6859 576.905"/>
<circle class="l4" cx="28.6859" cy="558.874" r="9.01564" style="fill:none;" />
<path class="l4" d="M607.19 515.298L610.195 515.298"/>
<path class="l4" d="M608.692 513.795L608.692 516.801"/>
<path class="l4" d="M605.687 510.79L605.687 546.853"/>
<circle class="l4" cx="605.687" cy="528.821" r="9.01564" style="fill:none;" />
<path class="l4" d="M772.477 377.058L772.477 404.105"/>
<path class="l4" d="M779.99 372.55L779.99 380.063"/>
<path class="l4" d="M779.99 401.1L779.99 408.613"/>
<path class="l4" d="M769.471 381.566L769.471 399.597"/>
<path class="l4" d="M772.477 401.1L779.99 401.1"/>
<path class="l4" d="M775.482 380.063L779.99 380.063"/>
<path class="l4" d="M755.948 390.582L763.461 390.582"/>
<path class="l4" d="M775.482 378.561L772.477 380.063L775.482 381.566L775.482 378.561"/>
<circle class="l4" cx="766.466" cy="390.582" r="3.00521" style="fill:none;" />
<path class="l4" d="M808.539 467.215L808.539 494.261"/>
<path class="l4" d="M792.01 480.738L805.534 480.738"/>
<path class="l4" d="M816.052 462.707L816.052 470.22"/>
<path class="l4" d="M816.052 491.256L816.052 498.769"/>
<path class="l4" d="M805.534 471.722L805.534 489.754"/>
<path class="l4" d="M808.539 470.22L816.052 470.22"/>
<path class="l4" d="M808.539 491.256L813.047 491.256"/>
<path class="l4" d="M813.047 489.754L816.052 491.256L813.047 492.759L813.047 489.754"/>
<path class="l4" d="M709.367 563.381L709.367 590.428"/>
<path class="l4" d="M712.372 576.905L725.896 576.905"/>
<path class="l4" d="M701.854 558.874L701.854 566.387"/>
<path class="l4" d="M701.854 587.423L701.854 594.936"/>
<path class="l4" d="M712.372 567.889L712.372 585.921"/>
<path class="l4" d="M701.854 566.387L709.367 566.387"/>
<path class="l4" d="M704.859 587.423L709.367 587.423"/>
<path class="l4" d="M704.859 585.921L701.854 587.423L704.859 588.926L704.859 585.921"/>
<path class="l4" d="M853.617 371.048L853.617 398.095"/>
<path class="l4" d="M846.104 366.54L846.104 374.053"/>
<path class="l4" d="M846.104 395.089L846.104 402.602"/>
<path class="l4" d="M856.623 375.555L856.623 393.587"/>
<path class="l4" d="M846.104 395.089L853.617 395.089"/>
<path class="l4" d="M846.104 374.053L850.612 374.053"/>
<path class="l4" d="M862.633 384.571L870.146 384.571"/>
<path class="l4" d="M850.612 372.55L853.617 374.053L850.612 375.555L850.612 372.55"/>
<circle class="l4" cx="859.628" cy="384.571" r="3.00521" style="fill:none;" />
<path class="l4" d="M970.821 359.027L970.821 386.074"/>
<path class="l4" d="M954.292 372.55L967.815 372.55"/>
<path class="l4" d="M978.334 354.519L978.334 362.032"/>
<path class="l4" d="M978.334 383.069L978.334 390.582"/>
<path class="l4" d="M967.815 363.535L967.815 381.566"/>
<path class="l4" d="M970.821 362.032L978.334 362.032"/>
<path class="l4" d="M970.821 383.069L975.328 383.069"/>
<path class="l4" d="M975.328 381.566L978.334 383.069L975.328 384.571L975.328 381.566"/>
<path class="l4" d="M832.581 593.434L832.581 620.48"/>
<path class="l4" d="M816.052 606.957L829.576 606.957"/>
<path class="l4" d="M840.094 588.926L840.094 596.439"/>
<path class="l4" d="M840.094 617.475L840.094 624.988"/>
<path class="l4" d="M829.576 597.941L829.576 615.973"/>
<path class="l4" d="M832.581 596.439L840.094 596.439"/>
<path class="l4" d="M832.581 617.475L837.089 617.475"/>
<path class="l4" d="M837.089 615.973L840.094 617.475L837.089 618.978L837.089 615.973"/>
<path class="l4" d="M826.57 298.923L826.57 325.969"/>
<path class="l4" d="M834.083 294.415L834.083 301.928"/>
<path class="l4" d="M834.083 322.964L834.083 330.477"/>
<path class="l4" d="M823.565 303.43L823.565 321.462"/>
<path class="l4" d="M826.57 322.964L834.083 322.964"/>
<path class="l4" d="M829.576 301.928L834.083 301.928"/>
<path class="l4" d="M810.042 312.446L817.555 312.446"/>
<path class="l4" d="M829.576 300.425L826.57 301.928L829.576 303.43L829.576 300.425"/>
<circle class="l4" cx="820.56" cy="312.446" r="3.00521" style="fill:none;" />
<path class="l4" d="M922.737 473.225L922.737 500.272"/>
<path class="l4" d="M906.209 486.748L919.732 486.748"/>
<path class="l4" d="M930.25 468.717L930.25 476.23"/>
<path class="l4" d="M930.25 497.267L930.25 504.78"/>
<path class="l4" d="M919.732 477.733L919.732 495.764"/>
<path class="l4" d="M922.737 476.23L930.25 476.23"/>
<path class="l4" d="M922.737 497.267L927.245 497.267"/>
<path class="l4" d="M927.245 495.764L930.25 497.267L927.245 498.769L927.245 495.764"/>
<path class="l4" d="M922.737 575.402L922.737 602.449"/>
<path class="l4" d="M906.209 588.926L919.732 588.926"/>
<path class="l4" d="M930.25 570.894L930.25 578.407"/>
<path class="l4" d="M930.25 599.444L930.25 606.957"/>
<path class="l4" d="M919.732 579.91L919.732 597.941"/>
<path class="l4" d="M922.737 578.407L930.25 578.407"/>
<path class="l4" d="M922.737 599.444L927.245 599.444"/>
<path class="l4" d="M927.245 597.941L930.25 599.444L927.245 600.947L927.245 597.941"/>
<path class="l4" d="M715.377 467.215L715.377 494.261"/>
<path class="l4" d="M707.864 462.707L707.864 470.22"/>
<path class="l4" d="M707.864 491.256L707.864 498.769"/>
<path class="l4" d="M718.383 471.722L718.383 489.754"/>
<path class="l4" d="M707.864 491.256L715.377 491.256"/>
<path class="l4" d="M707.864 470.22L712.372 470.22"/>
<path class="l4" d="M724.393 480.738L731.906 480.738"/>
<path class="l4" d="M712.372 468.717L715.377 470.22L712.372 471.722L712.372 468.717"/>
<circle class="l4" cx="721.388" cy="480.738" r="3.00521" style="fill:none;" />
<path class="l4" d="M652.268 371.048L652.268 398.095"/>
<path class="l4" d="M635.739 384.571L649.263 384.571"/>
<path class="l4" d="M659.781 366.54L659.781 374.053"/>
<path class="l4" d="M659.781 395.089L659.781 402.602"/>
<path class="l4" d="M649.263 375.555L649.263 393.587"/>
<path class="l4" d="M652.268 374.053L659.781 374.053"/>
<path class="l4" d="M652.268 395.089L656.776 395.089"/>
<path class="l4" d="M656.776 393.587L659.781 395.089L656.776 396.592L656.776 393.587"/>
<path class="l4" d="M619.211 641.517L622.216 641.517"/>
<path class="l4" d="M620.713 640.014L620.713 643.02"/>
<path class="l4" d="M617.708 637.009L617.708 673.072"/>
<circle class="l4" cx="617.708" cy="655.04" r="9.01564" style="fill:none;" />
<path class="l4" d="M1068.49 459.702L1068.49 474.728"/>
<path class="l4" d="M1068.49 438.665L1068.49 453.691"/>
<path class="l4" d="M1062.48 453.691L1074.5 453.691"/>
<path class="l4" d="M1062.48 459.702L1074.5 459.702"/>
<path class="l4" d="M1069.99 443.173L1073 443.173"/>
<path class="l4" d="M1071.5 441.67L1071.5 444.675"/>
<path class="l4" d="M34.6963 390.582L34.6963 402.602"/>
<path class="l4" d="M28.6859 390.582L40.7067 390.582"/>
<path class="l4" d="M767.969 396.592L767.969 408.613"/>
<path class="l4" d="M761.958 396.592L773.979 396.592"/>
<path class="l4" d="M779.99 378.561L779.99 390.582"/>
<path class="l4" d="M773.979 378.561L786 378.561"/>
<path class="l4" d="M858.125 390.582L858.125 402.602"/>
<path class="l4" d="M852.115 390.582L864.136 390.582"/>
<path class="l4" d="M846.104 372.55L846.104 384.571"/>
<path class="l4" d="M840.094 372.55L852.115 372.55"/>
<path class="l4" d="M822.063 318.456L822.063 330.477"/>
<path class="l4" d="M816.052 318.456L828.073 318.456"/>
<path class="l4" d="M834.083 300.425L834.083 312.446"/>
<path class="l4" d="M828.073 300.425L840.094 300.425"/>
<path class="l4" d="M719.885 486.748L719.885 498.769"/>
<path class="l4" d="M713.875 486.748L725.896 486.748"/>
<path class="l4" d="M707.864 468.717L707.864 480.738"/>
<path class="l4" d="M701.854 468.717L713.875 468.717"/>
<path class="l4" d="M34.6963 438.665L34.6963 446.178"/>
<path class="l4" d="M31.6911 446.178L37.7015 446.178"/>
<path class="l4" d="M34.6963 449.183L37.7015 446.178"/>
<path class="l4" d="M31.6911 446.178L34.6963 449.183"/>
<path class="l4" d="M28.6859 576.905L28.6859 584.418"/>
<path class="l4" d="M25.6806 584.418L31.6911 584.418"/>
<path class="l4" d="M28.6859 587.423L31.6911 584.418"/>
<path class="l4" d="M25.6806 584.418L28.6859 587.423"/>
<path class="l4" d="M605.687 546.853L605.687 554.366"/>
<path class="l4" d="M602.682 554.366L608.692 554.366"/>
<path class="l4" d="M605.687 557.371L608.692 554.366"/>
<path class="l4" d="M602.682 554.366L605.687 557.371"/>
<path class="l4" d="M617.708 673.072L617.708 680.585"/>
<path class="l4" d="M614.703 680.585L620.713 680.585"/>
<path class="l4" d="M617.708 683.59L620.713 680.585"/>
<path class="l4" d="M614.703 680.585L617.708 683.59"/>
<path class="l4" d="M28.6859 540.842L28.6859 548.355"/>
<path class="l4" d="M25.6806 548.355L31.6911 548.355"/>
<path class="l4" d="M28.6859 551.361L31.6911 548.355"/>
<path class="l4" d="M25.6806 548.355L28.6859 551.361"/>
<path class="l4" d="M816.052 480.738L816.052 488.251"/>
<path class="l4" d="M813.047 488.251L819.057 488.251"/>
<path class="l4" d="M816.052 491.256L819.057 488.251"/>
<path class="l4" d="M813.047 488.251L816.052 491.256"/>
<path class="l4" d="M713.875 594.936L713.875 602.449"/>
<path class="l4" d="M710.87 602.449L716.88 602.449"/>
<path class="l4" d="M713.875 605.454L716.88 602.449"/>
<path class="l4" d="M710.87 602.449L713.875 605.454"/>
<path class="l4" d="M701.854 576.905L701.854 584.418"/>
<path class="l4" d="M698.849 584.418L704.859 584.418"/>
<path class="l4" d="M701.854 587.423L704.859 584.418"/>
<path class="l4" d="M698.849 584.418L701.854 587.423"/>
<path class="l4" d="M978.334 372.55L978.334 380.063"/>
<path class="l4" d="M975.328 380.063L981.339 380.063"/>
<path class="l4" d="M978.334 383.069L981.339 380.063"/>
<path class="l4" d="M975.328 380.063L978.334 383.069"/>
<path class="l4" d="M828.073 624.988L828.073 632.501"/>
<path class="l4" d="M825.068 632.501L831.078 632.501"/>
<path class="l4" d="M828.073 635.507L831.078 632.501"/>
<path class="l4" d="M825.068 632.501L828.073 635.507"/>
<path class="l4" d="M840.094 606.957L840.094 614.47"/>
<path class="l4" d="M837.089 614.47L843.099 614.47"/>
<path class="l4" d="M840.094 617.475L843.099 614.47"/>
<path class="l4" d="M837.089 614.47L840.094 617.475"/>
<path class="l4" d="M930.25 486.748L930.25 494.261"/>
<path class="l4" d="M927.245 494.261L933.255 494.261"/>
<path class="l4" d="M930.25 497.267L933.255 494.261"/>
<path class="l4" d="M927.245 494.261L930.25 497.267"/>
<path class="l4" d="M918.229 606.957L918.229 614.47"/>
<path class="l4" d="M915.224 614.47L921.235 614.47"/>
<path class="l4" d="M918.229 617.475L921.235 614.47"/>
<path class="l4" d="M915.224 614.47L918.229 617.475"/>
<path class="l4" d="M930.25 588.926L930.25 596.439"/>
<path class="l4" d="M927.245 596.439L933.255 596.439"/>
<path class="l4" d="M930.25 599.444L933.255 596.439"/>
<path class="l4" d="M927.245 596.439L930.25 599.444"/>
<path class="l4" d="M647.76 402.602L647.76 410.115"/>
<path class="l4" d="M644.755 410.115L650.765 410.115"/>
<path class="l4" d="M647.76 413.121L650.765 410.115"/>
<path class="l4" d="M644.755 410.115L647.76 413.121"/>
<path class="l4" d="M659.781 384.571L659.781 392.084"/>
<path class="l4" d="M656.776 392.084L662.786 392.084"/>
<path class="l4" d="M659.781 395.089L662.786 392.084"/>
<path class="l4" d="M656.776 392.084L659.781 395.089"/>
<path class="l5" d="M33.1937 401.1L36.1989 401.1L36.1989 404.105L33.1937 404.105L33.1937 401.1z"/>
<path class="l5" d="M33.1937 437.162L36.1989 437.162L36.1989 440.168L33.1937 440.168L33.1937 437.162z"/>
<path class="l5" d="M27.1833 539.34L30.1885 539.34L30.1885 542.345L27.1833 542.345L27.1833 539.34z"/>
<path class="l5" d="M27.1833 575.402L30.1885 575.402L30.1885 578.407L27.1833 578.407L27.1833 575.402z"/>
<path class="l5" d="M604.184 509.288L607.19 509.288L607.19 512.293L604.184 512.293L604.184 509.288z"/>
<path class="l5" d="M604.184 545.35L607.19 545.35L607.19 548.355L604.184 548.355L604.184 545.35z"/>
<path class="l5" d="M776.984 389.079L779.99 390.582L776.984 392.084L776.984 389.079"/>
<path class="l5" d="M778.487 407.11L781.492 407.11L781.492 410.115L778.487 410.115L778.487 407.11z"/>
<path class="l5" d="M754.445 389.079L757.45 389.079L757.45 392.084L754.445 392.084L754.445 389.079z"/>
<path class="l5" d="M778.487 371.048L781.492 371.048L781.492 374.053L778.487 374.053L778.487 371.048z"/>
<path class="l5" d="M779.943 390.535L780.036 390.535L780.036 390.629L779.943 390.629L779.943 390.535z"/>
<path class="l5" d="M816.052 479.235L813.047 480.738L816.052 482.241L816.052 479.235"/>
<path class="l5" d="M814.55 461.204L817.555 461.204L817.555 464.209L814.55 464.209L814.55 461.204z"/>
<path class="l5" d="M790.508 479.235L793.513 479.235L793.513 482.241L790.508 482.241L790.508 479.235z"/>
<path class="l5" d="M814.55 497.267L817.555 497.267L817.555 500.272L814.55 500.272L814.55 497.267z"/>
<path class="l5" d="M816.005 480.691L816.099 480.691L816.099 480.785L816.005 480.785L816.005 480.691z"/>
<path class="l5" d="M701.854 575.402L704.859 576.905L701.854 578.407L701.854 575.402"/>
<path class="l5" d="M700.351 557.371L703.357 557.371L703.357 560.376L700.351 560.376L700.351 557.371z"/>
<path class="l5" d="M724.393 575.402L727.398 575.402L727.398 578.407L724.393 578.407L724.393 575.402z"/>
<path class="l5" d="M700.351 593.434L703.357 593.434L703.357 596.439L700.351 596.439L700.351 593.434z"/>
<path class="l5" d="M701.807 576.858L701.901 576.858L701.901 576.952L701.807 576.952L701.807 576.858z"/>
<path class="l5" d="M849.109 383.069L846.104 384.571L849.109 386.074L849.109 383.069"/>
<path class="l5" d="M844.602 401.1L847.607 401.1L847.607 404.105L844.602 404.105L844.602 401.1z"/>
<path class="l5" d="M868.643 383.069L871.649 383.069L871.649 386.074L868.643 386.074L868.643 383.069z"/>
<path class="l5" d="M844.602 365.037L847.607 365.037L847.607 368.042L844.602 368.042L844.602 365.037z"/>
<path class="l5" d="M846.057 384.524L846.151 384.524L846.151 384.618L846.057 384.618L846.057 384.524z"/>
<path class="l5" d="M978.334 371.048L975.328 372.55L978.334 374.053L978.334 371.048"/>
<path class="l5" d="M976.831 353.016L979.836 353.016L979.836 356.022L976.831 356.022L976.831 353.016z"/>
<path class="l5" d="M952.789 371.048L955.795 371.048L955.795 374.053L952.789 374.053L952.789 371.048z"/>
<path class="l5" d="M976.831 389.079L979.836 389.079L979.836 392.084L976.831 392.084L976.831 389.079z"/>
<path class="l5" d="M978.287 372.503L978.381 372.503L978.381 372.597L978.287 372.597L978.287 372.503z"/>
<path class="l5" d="M840.094 605.454L837.089 606.957L840.094 608.46L840.094 605.454"/>
<path class="l5" d="M838.591 587.423L841.596 587.423L841.596 590.428L838.591 590.428L838.591 587.423z"/>
<path class="l5" d="M814.55 605.454L817.555 605.454L817.555 608.46L814.55 608.46L814.55 605.454z"/>
<path class="l5" d="M838.591 623.486L841.596 623.486L841.596 626.491L838.591 626.491L838.591 623.486z"/>
<path class="l5" d="M840.047 606.91L840.141 606.91L840.141 607.004L840.047 607.004L840.047 606.91z"/>
<path class="l5" d="M831.078 310.943L834.083 312.446L831.078 313.949L831.078 310.943"/>
<path class="l5" d="M832.581 328.975L835.586 328.975L835.586 331.98L832.581 331.98L832.581 328.975z"/>
<path class="l5" d="M808.539 310.943L811.544 310.943L811.544 313.949L808.539 313.949L808.539 310.943z"/>
<path class="l5" d="M832.581 292.912L835.586 292.912L835.586 295.917L832.581 295.917L832.581 292.912z"/>
<path class="l5" d="M834.036 312.399L834.13 312.399L834.13 312.493L834.036 312.493L834.036 312.399z"/>
<path class="l5" d="M930.25 485.246L927.245 486.748L930.25 488.251L930.25 485.246"/>
<path class="l5" d="M928.748 467.215L931.753 467.215L931.753 470.22L928.748 470.22L928.748 467.215z"/>
<path class="l5" d="M904.706 485.246L907.711 485.246L907.711 488.251L904.706 488.251L904.706 485.246z"/>
<path class="l5" d="M928.748 503.277L931.753 503.277L931.753 506.282L928.748 506.282L928.748 503.277z"/>
<path class="l5" d="M930.203 486.701L930.297 486.701L930.297 486.795L930.203 486.795L930.203 486.701z"/>
<path class="l5" d="M930.25 587.423L927.245 588.926L930.25 590.428L930.25 587.423"/>
<path class="l5" d="M928.748 569.392L931.753 569.392L931.753 572.397L928.748 572.397L928.748 569.392z"/>
<path class="l5" d="M904.706 587.423L907.711 587.423L907.711 590.428L904.706 590.428L904.706 587.423z"/>
<path class="l5" d="M928.748 605.454L931.753 605.454L931.753 608.46L928.748 608.46L928.748 605.454z"/>
<path class="l5" d="M930.203 588.879L930.297 588.879L930.297 588.973L930.203 588.973L930.203 588.879z"/>
<path class="l5" d="M710.87 479.235L707.864 480.738L710.87 482.241L710.87 479.235"/>
<path class="l5" d="M706.362 497.267L709.367 497.267L709.367 500.272L706.362 500.272L706.362 497.267z"/>
<path class="l5" d="M730.403 479.235L733.409 479.235L733.409 482.241L730.403 482.241L730.403 479.235z"/>
<path class="l5" d="M706.362 461.204L709.367 461.204L709.367 464.209L706.362 464.209L706.362 461.204z"/>
<path class="l5" d="M707.817 480.691L707.911 480.691L707.911 480.785L707.817 480.785L707.817 480.691z"/>
<path class="l5" d="M659.781 383.069L656.776 384.571L659.781 386.074L659.781 383.069"/>
<path class="l5" d="M658.278 365.037L661.284 365.037L661.284 368.042L658.278 368.042L658.278 365.037z"/>
<path class="l5" d="M634.237 383.069L637.242 383.069L637.242 386.074L634.237 386.074L634.237 383.069z"/>
<path class="l5" d="M658.278 401.1L661.284 401.1L661.284 404.105L658.278 404.105L658.278 401.1z"/>
<path class="l5" d="M659.734 384.524L659.828 384.524L659.828 384.618L659.734 384.618L659.734 384.524z"/>
<path class="l5" d="M616.205 635.507L619.211 635.507L619.211 638.512L616.205 638.512L616.205 635.507z"/>
<path class="l5" d="M616.205 671.569L619.211 671.569L619.211 674.574L616.205 674.574L616.205 671.569z"/>
<path class="l5" d="M1066.99 437.162L1069.99 437.162L1069.99 440.168L1066.99 440.168L1066.99 437.162z"/>
<path class="l5" d="M1066.99 473.225L1069.99 473.225L1069.99 476.23L1066.99 476.23L1066.99 473.225z"/>
<path class="l5" d="M33.1937 401.1L36.1989 401.1L36.1989 404.105L33.1937 404.105L33.1937 401.1z"/>
<path class="l5" d="M766.466 407.11L769.471 407.11L769.471 410.115L766.466 410.115L766.466 407.11z"/>
<path class="l5" d="M778.487 389.079L781.492 389.079L781.492 392.084L778.487 392.084L778.487 389.079z"/>
<path class="l5" d="M856.623 401.1L859.628 401.1L859.628 404.105L856.623 404.105L856.623 401.1z"/>
<path class="l5" d="M844.602 383.069L847.607 383.069L847.607 386.074L844.602 386.074L844.602 383.069z"/>
<path class="l5" d="M820.56 328.975L823.565 328.975L823.565 331.98L820.56 331.98L820.56 328.975z"/>
<path class="l5" d="M832.581 310.943L835.586 310.943L835.586 313.949L832.581 313.949L832.581 310.943z"/>
<path class="l5" d="M718.383 497.267L721.388 497.267L721.388 500.272L718.383 500.272L718.383 497.267z"/>
<path class="l5" d="M706.362 479.235L709.367 479.235L709.367 482.241L706.362 482.241L706.362 479.235z"/>
<path class="l5" d="M33.1937 437.162L36.1989 437.162L36.1989 440.168L33.1937 440.168L33.1937 437.162z"/>
<path class="l5" d="M27.1833 575.402L30.1885 575.402L30.1885 578.407L27.1833 578.407L27.1833 575.402z"/>
<path class="l5" d="M604.184 545.35L607.19 545.35L607.19 548.355L604.184 548.355L604.184 545.35z"/>
<path class="l5" d="M616.205 671.569L619.211 671.569L619.211 674.574L616.205 674.574L616.205 671.569z"/>
<path class="l5" d="M27.1833 539.34L30.1885 539.34L30.1885 542.345L27.1833 542.345L27.1833 539.34z"/>
<path class="l5" d="M814.55 479.235L817.555 479.235L817.555 482.241L814.55 482.241L814.55 479.235z"/>
<path class="l5" d="M712.372 593.434L715.377 593.434L715.377 596.439L712.372 596.439L712.372 593.434z"/>
<path class="l5" d="M700.351 575.402L703.357 575.402L703.357 578.407L700.351 578.407L700.351 575.402z"/>
<path class="l5" d="M976.831 371.048L979.836 371.048L979.836 374.053L976.831 374.053L976.831 371.048z"/>
<path class="l5" d="M826.57 623.486L829.576 623.486L829.576 626.491L826.57 626.491L826.57 623.486z"/>
<path class="l5" d="M838.591 605.454L841.596 605.454L841.596 608.46L838.591 608.46L838.591 605.454z"/>
<path class="l5" d="M928.748 485.246L931.753 485.246L931.753 488.251L928.748 488.251L928.748 485.246z"/>
<path class="l5" d="M916.727 605.454L919.732 605.454L919.732 608.46L916.727 608.46L916.727 605.454z"/>
<path class="l5" d="M928.748 587.423L931.753 587.423L931.753 590.428L928.748 590.428L928.748 587.423z"/>
<path class="l5" d="M646.257 401.1L649.263 401.1L649.263 404.105L646.257 404.105L646.257 401.1z"/>
<path class="l5" d="M658.278 383.069L661.284 383.069L661.284 386.074L658.278 386.074L658.278 383.069z"/>
<path class="l5" d="M767.217 371.799L768.72 371.799L768.72 373.302L767.217 373.302L767.217 371.799z"/>
<path class="l5" d="M803.28 461.955L804.783 461.955L804.783 463.458L803.28 463.458L803.28 461.955z"/>
<path class="l5" d="M869.395 383.82L870.897 383.82L870.897 385.322L869.395 385.322L869.395 383.82z"/>
<path class="l5" d="M953.541 371.799L955.043 371.799L955.043 373.302L953.541 373.302L953.541 371.799z"/>
<path class="l5" d="M1067.74 437.914L1069.24 437.914L1069.24 439.416L1067.74 439.416L1067.74 437.914z"/>
<path class="l5" d="M755.197 389.83L756.699 389.83L756.699 391.333L755.197 391.333L755.197 389.83z"/>
<path class="l5" d="M791.259 479.987L792.762 479.987L792.762 481.489L791.259 481.489L791.259 479.987z"/>
<path class="l5" d="M821.311 293.663L822.814 293.663L822.814 295.166L821.311 295.166L821.311 293.663z"/>
<path class="l5" d="M917.478 467.966L918.981 467.966L918.981 469.468L917.478 469.468L917.478 467.966z"/>
<path class="l5" d="M731.155 479.987L732.657 479.987L732.657 481.489L731.155 481.489L731.155 479.987z"/>
<path class="l5" d="M634.988 383.82L636.491 383.82L636.491 385.322L634.988 385.322L634.988 383.82z"/>
<path class="l5" d="M616.957 636.258L618.459 636.258L618.459 637.76L616.957 637.76L616.957 636.258z"/>
<path class="l5" d="M1067.74 473.976L1069.24 473.976L1069.24 475.479L1067.74 475.479L1067.74 473.976z"/>
<text fill="#cccccc"  xml:space="preserve" font-size="6.25085" transform="translate(46.7171, 415.04)" >Vdd</text>
<text fill="#cccccc"  xml:space="preserve" font-size="6.25085" transform="translate(46.7171, 430.066)" >1.8</text>
<text fill="#cccccc"  xml:space="preserve" font-size="6.25085" transform="translate(40.7067, 553.28)" >Vss</text>
<text fill="#cccccc"  xml:space="preserve" font-size="6.25085" transform="translate(40.7067, 568.306)" >0</text>
<text fill="#cccccc"  xml:space="preserve" font-size="6.25085" transform="translate(617.708, 523.228)" >Vctrl</text>
<text fill="#cccccc"  xml:space="preserve" font-size="6.25085" transform="translate(617.708, 538.254)" >0.9</text>
<text fill="#cccccc"  xml:space="preserve" font-size="6.25085" transform="translate(753.974, 378.226)" >XMp1</text>
<text fill="#ff0000"  xml:space="preserve" font-size="4.68813" transform="translate(781.492, 405.357)" >D</text>
<text fill="#ff0000"  xml:space="preserve" font-size="4.68813" transform="translate(781.492, 378.943)" >S</text>
<text fill="#ff0000"  xml:space="preserve" font-size="4.68813" transform="translate(779.99, 388.828)" >B</text>
<text fill="#ff0000"  xml:space="preserve" font-size="4.68813" transform="translate(757.958, 388.828)" >G</text>
<text fill="#cccccc"  xml:space="preserve" font-size="6.25085" transform="translate(786, 383.828)" >pfet_01v8</text>
<text fill="#aaaa00"  xml:space="preserve" font-size="6.25085" transform="translate(786.751, 404.522)" >1 x {Wp / 0.15</text>
<text fill="#aaaa00"  xml:space="preserve" font-size="6.25085" transform="translate(786.751, 397.009)" >nf=1</text>
<text fill="#00ffcc"  xml:space="preserve" font-size="4.68813" transform="translate(786, 376.807)" >id=-</text>
<text fill="#ff7777"  xml:space="preserve" font-size="4.68813" transform="translate(786, 388.828)" >gm=-</text>
<text fill="#ff7777"  xml:space="preserve" font-size="2.1878" transform="translate(761.974, 403.086)" >vgs= -  </text>
<text fill="#ff7777"  xml:space="preserve" font-size="2.1878" transform="translate(761.974, 405.596)" >vds= -  </text>
<text fill="#cccccc"  xml:space="preserve" font-size="6.25085" transform="translate(790.036, 468.382)" >XMn1</text>
<text fill="#ff0000"  xml:space="preserve" font-size="4.68813" transform="translate(817.555, 495.513)" >S</text>
<text fill="#ff0000"  xml:space="preserve" font-size="4.68813" transform="translate(817.555, 469.099)" >D</text>
<text fill="#ff0000"  xml:space="preserve" font-size="4.68813" transform="translate(816.052, 478.984)" >B</text>
<text fill="#ff0000"  xml:space="preserve" font-size="4.68813" transform="translate(794.021, 478.984)" >G</text>
<text fill="#cccccc"  xml:space="preserve" font-size="6.25085" transform="translate(822.063, 473.985)" >nfet_01v8</text>
<text fill="#aaaa00"  xml:space="preserve" font-size="6.25085" transform="translate(822.814, 494.678)" >1 x {Wn / 0.15</text>
<text fill="#aaaa00"  xml:space="preserve" font-size="6.25085" transform="translate(822.814, 487.165)" >nf=1</text>
<text fill="#00ffcc"  xml:space="preserve" font-size="4.68813" transform="translate(822.063, 466.964)" >id=-</text>
<text fill="#ff7777"  xml:space="preserve" font-size="4.68813" transform="translate(822.063, 478.984)" >gm=-</text>
<text fill="#ff7777"  xml:space="preserve" font-size="2.1878" transform="translate(798.036, 493.243)" >vgs= -  </text>
<text fill="#ff7777"  xml:space="preserve" font-size="2.1878" transform="translate(798.036, 495.752)" >vds= -  </text>
<text fill="#cccccc"  xml:space="preserve" font-size="6.25085" transform="translate(710.87, 564.549)" >XMs1</text>
<text fill="#ff0000"  xml:space="preserve" font-size="4.68813" transform="translate(697.351, 591.68)" >S</text>
<text fill="#ff0000"  xml:space="preserve" font-size="4.68813" transform="translate(696.351, 565.266)" >D</text>
<text fill="#ff0000"  xml:space="preserve" font-size="4.68813" transform="translate(698.854, 575.151)" >B</text>
<text fill="#ff0000"  xml:space="preserve" font-size="4.68813" transform="translate(719.885, 575.151)" >G</text>
<text fill="#cccccc"  xml:space="preserve" font-size="6.25085" transform="translate(664.844, 570.152)" >nfet_01v8</text>
<text fill="#aaaa00"  xml:space="preserve" font-size="6.25085" transform="translate(650.092, 590.845)" >1 x {Ws / 0.15</text>
<text fill="#aaaa00"  xml:space="preserve" font-size="6.25085" transform="translate(680.092, 583.332)" >nf=1</text>
<text fill="#00ffcc"  xml:space="preserve" font-size="4.68813" transform="translate(685.844, 563.13)" >id=-</text>
<text fill="#ff7777"  xml:space="preserve" font-size="4.68813" transform="translate(681.844, 575.151)" >gm=-</text>
<text fill="#ff7777"  xml:space="preserve" font-size="2.1878" transform="translate(710.87, 589.41)" >vgs= -  </text>
<text fill="#ff7777"  xml:space="preserve" font-size="2.1878" transform="translate(710.87, 591.919)" >vds= -  </text>
<text fill="#cccccc"  xml:space="preserve" font-size="6.25085" transform="translate(855.12, 372.216)" >XMp2</text>
<text fill="#ff0000"  xml:space="preserve" font-size="4.68813" transform="translate(840.602, 399.346)" >D</text>
<text fill="#ff0000"  xml:space="preserve" font-size="4.68813" transform="translate(841.602, 372.932)" >S</text>
<text fill="#ff0000"  xml:space="preserve" font-size="4.68813" transform="translate(843.104, 382.818)" >B</text>
<text fill="#ff0000"  xml:space="preserve" font-size="4.68813" transform="translate(864.136, 382.818)" >G</text>
<text fill="#cccccc"  xml:space="preserve" font-size="6.25085" transform="translate(809.094, 377.818)" >pfet_01v8</text>
<text fill="#aaaa00"  xml:space="preserve" font-size="6.25085" transform="translate(793.343, 398.511)" >1 x {Wp / 0.15</text>
<text fill="#aaaa00"  xml:space="preserve" font-size="6.25085" transform="translate(824.343, 390.998)" >nf=1</text>
<text fill="#00ffcc"  xml:space="preserve" font-size="4.68813" transform="translate(830.094, 370.797)" >id=-</text>
<text fill="#ff7777"  xml:space="preserve" font-size="4.68813" transform="translate(826.094, 382.818)" >gm=-</text>
<text fill="#ff7777"  xml:space="preserve" font-size="2.1878" transform="translate(855.12, 397.076)" >vgs= -  </text>
<text fill="#ff7777"  xml:space="preserve" font-size="2.1878" transform="translate(855.12, 399.585)" >vds= -  </text>
<text fill="#cccccc"  xml:space="preserve" font-size="6.25085" transform="translate(952.318, 360.195)" >XMn2</text>
<text fill="#ff0000"  xml:space="preserve" font-size="4.68813" transform="translate(979.836, 387.325)" >S</text>
<text fill="#ff0000"  xml:space="preserve" font-size="4.68813" transform="translate(979.836, 360.912)" >D</text>
<text fill="#ff0000"  xml:space="preserve" font-size="4.68813" transform="translate(978.334, 370.797)" >B</text>
<text fill="#ff0000"  xml:space="preserve" font-size="4.68813" transform="translate(956.302, 370.797)" >G</text>
<text fill="#cccccc"  xml:space="preserve" font-size="6.25085" transform="translate(984.344, 365.797)" >nfet_01v8</text>
<text fill="#aaaa00"  xml:space="preserve" font-size="6.25085" transform="translate(985.095, 386.49)" >1 x {Wn / 0.15</text>
<text fill="#aaaa00"  xml:space="preserve" font-size="6.25085" transform="translate(985.095, 378.977)" >nf=1</text>
<text fill="#00ffcc"  xml:space="preserve" font-size="4.68813" transform="translate(984.344, 358.776)" >id=-</text>
<text fill="#ff7777"  xml:space="preserve" font-size="4.68813" transform="translate(984.344, 370.797)" >gm=-</text>
<text fill="#ff7777"  xml:space="preserve" font-size="2.1878" transform="translate(960.318, 385.055)" >vgs= -  </text>
<text fill="#ff7777"  xml:space="preserve" font-size="2.1878" transform="translate(960.318, 387.564)" >vds= -  </text>
<text fill="#cccccc"  xml:space="preserve" font-size="6.25085" transform="translate(815.078, 594.602)" >XMs2</text>
<text fill="#ff0000"  xml:space="preserve" font-size="4.68813" transform="translate(841.596, 621.732)" >S</text>
<text fill="#ff0000"  xml:space="preserve" font-size="4.68813" transform="translate(841.596, 595.318)" >D</text>
<text fill="#ff0000"  xml:space="preserve" font-size="4.68813" transform="translate(840.094, 605.203)" >B</text>
<text fill="#ff0000"  xml:space="preserve" font-size="4.68813" transform="translate(818.063, 605.203)" >G</text>
<text fill="#cccccc"  xml:space="preserve" font-size="6.25085" transform="translate(846.104, 600.204)" >nfet_01v8</text>
<text fill="#aaaa00"  xml:space="preserve" font-size="6.25085" transform="translate(846.856, 620.897)" >1 x {Ws / 0.15</text>
<text fill="#aaaa00"  xml:space="preserve" font-size="6.25085" transform="translate(846.856, 613.384)" >nf=1</text>
<text fill="#00ffcc"  xml:space="preserve" font-size="4.68813" transform="translate(846.104, 593.183)" >id=-</text>
<text fill="#ff7777"  xml:space="preserve" font-size="4.68813" transform="translate(846.104, 605.203)" >gm=-</text>
<text fill="#ff7777"  xml:space="preserve" font-size="2.1878" transform="translate(822.078, 619.462)" >vgs= -  </text>
<text fill="#ff7777"  xml:space="preserve" font-size="2.1878" transform="translate(822.078, 621.971)" >vds= -  </text>
<text fill="#cccccc"  xml:space="preserve" font-size="6.25085" transform="translate(808.068, 300.09)" >XMp3</text>
<text fill="#ff0000"  xml:space="preserve" font-size="4.68813" transform="translate(835.586, 327.221)" >D</text>
<text fill="#ff0000"  xml:space="preserve" font-size="4.68813" transform="translate(835.586, 300.807)" >S</text>
<text fill="#ff0000"  xml:space="preserve" font-size="4.68813" transform="translate(834.083, 310.692)" >B</text>
<text fill="#ff0000"  xml:space="preserve" font-size="4.68813" transform="translate(812.052, 310.692)" >G</text>
<text fill="#cccccc"  xml:space="preserve" font-size="6.25085" transform="translate(840.094, 305.693)" >pfet_01v8</text>
<text fill="#aaaa00"  xml:space="preserve" font-size="6.25085" transform="translate(840.845, 326.386)" >1 x {Wp / 0.15</text>
<text fill="#aaaa00"  xml:space="preserve" font-size="6.25085" transform="translate(840.845, 318.873)" >nf=1</text>
<text fill="#00ffcc"  xml:space="preserve" font-size="4.68813" transform="translate(840.094, 298.672)" >id=-</text>
<text fill="#ff7777"  xml:space="preserve" font-size="4.68813" transform="translate(840.094, 310.692)" >gm=-</text>
<text fill="#ff7777"  xml:space="preserve" font-size="2.1878" transform="translate(816.068, 324.951)" >vgs= -  </text>
<text fill="#ff7777"  xml:space="preserve" font-size="2.1878" transform="translate(816.068, 327.46)" >vds= -  </text>
<text fill="#cccccc"  xml:space="preserve" font-size="6.25085" transform="translate(904.235, 474.393)" >XMn3</text>
<text fill="#ff0000"  xml:space="preserve" font-size="4.68813" transform="translate(931.753, 501.524)" >S</text>
<text fill="#ff0000"  xml:space="preserve" font-size="4.68813" transform="translate(931.753, 475.11)" >D</text>
<text fill="#ff0000"  xml:space="preserve" font-size="4.68813" transform="translate(930.25, 484.995)" >B</text>
<text fill="#ff0000"  xml:space="preserve" font-size="4.68813" transform="translate(908.219, 484.995)" >G</text>
<text fill="#cccccc"  xml:space="preserve" font-size="6.25085" transform="translate(936.261, 479.995)" >nfet_01v8</text>
<text fill="#aaaa00"  xml:space="preserve" font-size="6.25085" transform="translate(937.012, 500.689)" >1 x {Wn / 0.15</text>
<text fill="#aaaa00"  xml:space="preserve" font-size="6.25085" transform="translate(937.012, 493.176)" >nf=1</text>
<text fill="#00ffcc"  xml:space="preserve" font-size="4.68813" transform="translate(936.261, 472.974)" >id=-</text>
<text fill="#ff7777"  xml:space="preserve" font-size="4.68813" transform="translate(936.261, 484.995)" >gm=-</text>
<text fill="#ff7777"  xml:space="preserve" font-size="2.1878" transform="translate(912.235, 499.253)" >vgs= -  </text>
<text fill="#ff7777"  xml:space="preserve" font-size="2.1878" transform="translate(912.235, 501.763)" >vds= -  </text>
<text fill="#cccccc"  xml:space="preserve" font-size="6.25085" transform="translate(905.235, 576.57)" >XMs3</text>
<text fill="#ff0000"  xml:space="preserve" font-size="4.68813" transform="translate(931.753, 603.701)" >S</text>
<text fill="#ff0000"  xml:space="preserve" font-size="4.68813" transform="translate(931.753, 577.287)" >D</text>
<text fill="#ff0000"  xml:space="preserve" font-size="4.68813" transform="translate(930.25, 587.172)" >B</text>
<text fill="#ff0000"  xml:space="preserve" font-size="4.68813" transform="translate(908.219, 587.172)" >G</text>
<text fill="#cccccc"  xml:space="preserve" font-size="6.25085" transform="translate(936.261, 582.173)" >nfet_01v8</text>
<text fill="#aaaa00"  xml:space="preserve" font-size="6.25085" transform="translate(937.012, 602.866)" >1 x {Ws / 0.15</text>
<text fill="#aaaa00"  xml:space="preserve" font-size="6.25085" transform="translate(937.012, 595.353)" >nf=1</text>
<text fill="#00ffcc"  xml:space="preserve" font-size="4.68813" transform="translate(936.261, 575.151)" >id=-</text>
<text fill="#ff7777"  xml:space="preserve" font-size="4.68813" transform="translate(936.261, 587.172)" >gm=-</text>
<text fill="#ff7777"  xml:space="preserve" font-size="2.1878" transform="translate(912.235, 601.431)" >vgs= -  </text>
<text fill="#ff7777"  xml:space="preserve" font-size="2.1878" transform="translate(912.235, 603.94)" >vds= -  </text>
<text fill="#cccccc"  xml:space="preserve" font-size="6.25085" transform="translate(716.88, 468.382)" >XMpout</text>
<text fill="#ff0000"  xml:space="preserve" font-size="4.68813" transform="translate(702.362, 495.513)" >D</text>
<text fill="#ff0000"  xml:space="preserve" font-size="4.68813" transform="translate(703.362, 469.099)" >S</text>
<text fill="#ff0000"  xml:space="preserve" font-size="4.68813" transform="translate(704.864, 478.984)" >B</text>
<text fill="#ff0000"  xml:space="preserve" font-size="4.68813" transform="translate(725.896, 478.984)" >G</text>
<text fill="#cccccc"  xml:space="preserve" font-size="6.25085" transform="translate(670.854, 473.985)" >pfet_01v8</text>
<text fill="#aaaa00"  xml:space="preserve" font-size="6.25085" transform="translate(657.103, 494.678)" >1 x 5u / 0.15u</text>
<text fill="#aaaa00"  xml:space="preserve" font-size="6.25085" transform="translate(686.103, 487.165)" >nf=1</text>
<text fill="#00ffcc"  xml:space="preserve" font-size="4.68813" transform="translate(691.854, 466.964)" >id=-</text>
<text fill="#ff7777"  xml:space="preserve" font-size="4.68813" transform="translate(687.854, 478.984)" >gm=-</text>
<text fill="#ff7777"  xml:space="preserve" font-size="2.1878" transform="translate(716.88, 493.243)" >vgs= -  </text>
<text fill="#ff7777"  xml:space="preserve" font-size="2.1878" transform="translate(716.88, 495.752)" >vds= -  </text>
<text fill="#cccccc"  xml:space="preserve" font-size="6.25085" transform="translate(626.765, 372.216)" >XMnout</text>
<text fill="#ff0000"  xml:space="preserve" font-size="4.68813" transform="translate(661.284, 399.346)" >S</text>
<text fill="#ff0000"  xml:space="preserve" font-size="4.68813" transform="translate(661.284, 372.932)" >D</text>
<text fill="#ff0000"  xml:space="preserve" font-size="4.68813" transform="translate(659.781, 382.818)" >B</text>
<text fill="#ff0000"  xml:space="preserve" font-size="4.68813" transform="translate(637.75, 382.818)" >G</text>
<text fill="#cccccc"  xml:space="preserve" font-size="6.25085" transform="translate(665.791, 377.818)" >nfet_01v8</text>
<text fill="#aaaa00"  xml:space="preserve" font-size="6.25085" transform="translate(666.543, 398.511)" >1 x 2.5u / 0.15u</text>
<text fill="#aaaa00"  xml:space="preserve" font-size="6.25085" transform="translate(666.543, 390.998)" >nf=1</text>
<text fill="#00ffcc"  xml:space="preserve" font-size="4.68813" transform="translate(665.791, 370.797)" >id=-</text>
<text fill="#ff7777"  xml:space="preserve" font-size="4.68813" transform="translate(665.791, 382.818)" >gm=-</text>
<text fill="#ff7777"  xml:space="preserve" font-size="2.1878" transform="translate(641.765, 397.076)" >vgs= -  </text>
<text fill="#ff7777"  xml:space="preserve" font-size="2.1878" transform="translate(641.765, 399.585)" >vds= -  </text>
<text fill="#cccccc"  xml:space="preserve" font-size="6.25085" transform="translate(629.729, 649.447)" >Vkick</text>
<text fill="#cccccc"  xml:space="preserve" font-size="6.25085" transform="translate(629.729, 664.473)" >pulse(0</text>
<text fill="#aaaa00"  xml:space="preserve" font-size="6.25085" transform="translate(1061.48, 446.595)" >1</text>
<text fill="#aaaa00"  xml:space="preserve" font-size="6.25085" transform="translate(1061.48, 472.139)" >2</text>
<text fill="#cccccc"  xml:space="preserve" font-size="6.25085" transform="translate(1077.51, 451.103)" >Ckick</text>
<text fill="#cccccc"  xml:space="preserve" font-size="6.25085" transform="translate(1077.51, 458.616)" >5f</text>
<text fill="#cccccc"  xml:space="preserve" font-size="6.25085" transform="translate(1077.51, 466.129)" >m=1</text>
<text fill="#00ddff"  xml:space="preserve" font-size="6.25085" transform="translate(27.1833, 387.242)" >VDD</text>
<text fill="#00ddff"  xml:space="preserve" font-size="6.25085" transform="translate(760.456, 393.252)" >VDD</text>
<text fill="#00ddff"  xml:space="preserve" font-size="6.25085" transform="translate(772.477, 375.221)" >VDD</text>
<text fill="#00ddff"  xml:space="preserve" font-size="6.25085" transform="translate(850.612, 387.242)" >VDD</text>
<text fill="#00ddff"  xml:space="preserve" font-size="6.25085" transform="translate(838.591, 369.21)" >VDD</text>
<text fill="#00ddff"  xml:space="preserve" font-size="6.25085" transform="translate(814.55, 315.117)" >VDD</text>
<text fill="#00ddff"  xml:space="preserve" font-size="6.25085" transform="translate(826.57, 297.085)" >VDD</text>
<text fill="#00ddff"  xml:space="preserve" font-size="6.25085" transform="translate(712.372, 483.409)" >VDD</text>
<text fill="#00ddff"  xml:space="preserve" font-size="6.25085" transform="translate(700.351, 465.377)" >VDD</text>
<text fill="#00ddff"  xml:space="preserve" font-size="6.25085" transform="translate(39.2041, 447.346)" >GND</text>
<text fill="#00ddff"  xml:space="preserve" font-size="6.25085" transform="translate(33.1937, 585.586)" >GND</text>
<text fill="#00ddff"  xml:space="preserve" font-size="6.25085" transform="translate(610.195, 555.534)" >GND</text>
<text fill="#00ddff"  xml:space="preserve" font-size="6.25085" transform="translate(622.216, 681.753)" >GND</text>
<text fill="#00ddff"  xml:space="preserve" font-size="6.25085" transform="translate(33.1937, 549.523)" >VSS</text>
<text fill="#00ddff"  xml:space="preserve" font-size="6.25085" transform="translate(820.56, 489.419)" >VSS</text>
<text fill="#00ddff"  xml:space="preserve" font-size="6.25085" transform="translate(718.383, 603.617)" >VSS</text>
<text fill="#00ddff"  xml:space="preserve" font-size="6.25085" transform="translate(706.362, 585.586)" >VSS</text>
<text fill="#00ddff"  xml:space="preserve" font-size="6.25085" transform="translate(982.842, 381.231)" >VSS</text>
<text fill="#00ddff"  xml:space="preserve" font-size="6.25085" transform="translate(832.581, 633.669)" >VSS</text>
<text fill="#00ddff"  xml:space="preserve" font-size="6.25085" transform="translate(844.602, 615.638)" >VSS</text>
<text fill="#00ddff"  xml:space="preserve" font-size="6.25085" transform="translate(934.758, 495.429)" >VSS</text>
<text fill="#00ddff"  xml:space="preserve" font-size="6.25085" transform="translate(922.737, 615.638)" >VSS</text>
<text fill="#00ddff"  xml:space="preserve" font-size="6.25085" transform="translate(934.758, 597.607)" >VSS</text>
<text fill="#00ddff"  xml:space="preserve" font-size="6.25085" transform="translate(652.268, 411.283)" >VSS</text>
<text fill="#00ddff"  xml:space="preserve" font-size="6.25085" transform="translate(664.289, 393.252)" >VSS</text>
<text fill="#00ddff"  xml:space="preserve" font-size="10.3139" transform="translate(749.461, 377.032)" >n1</text>
<text fill="#00ddff"  xml:space="preserve" font-size="10.3139" transform="translate(785.523, 467.188)" >n1</text>
<text fill="#00ddff"  xml:space="preserve" font-size="10.3139" transform="translate(851.638, 389.053)" >n1</text>
<text fill="#00ddff"  xml:space="preserve" font-size="10.3139" transform="translate(935.784, 377.032)" >n1</text>
<text fill="#00ddff"  xml:space="preserve" font-size="10.3139" transform="translate(1049.98, 443.147)" >n1</text>
<text fill="#00ddff"  xml:space="preserve" font-size="10.3139" transform="translate(737.44, 395.063)" >n3</text>
<text fill="#00ddff"  xml:space="preserve" font-size="10.3139" transform="translate(773.503, 485.22)" >n3</text>
<text fill="#00ddff"  xml:space="preserve" font-size="10.3139" transform="translate(803.555, 298.896)" >n3</text>
<text fill="#00ddff"  xml:space="preserve" font-size="10.3139" transform="translate(899.722, 473.199)" >n3</text>
<text fill="#00ddff"  xml:space="preserve" font-size="10.3139" transform="translate(713.398, 485.22)" >n3</text>
<text fill="#00ddff"  xml:space="preserve" font-size="10.3139" transform="translate(617.231, 389.053)" >n3</text>
<text fill="#00ddff"  xml:space="preserve" font-size="10.3139" transform="translate(592.2, 641.491)" >kick</text>
<text fill="#00ddff"  xml:space="preserve" font-size="10.3139" transform="translate(1042.98, 479.209)" >kick</text>
<path class="l1" d="M605.687 510.79L761.958 510.79"/>
<path class="l1" d="M761.958 510.79L761.958 570.894"/>
<path class="l1" d="M725.896 576.905L761.958 576.905"/>
<path class="l1" d="M761.958 570.894L761.958 576.905"/>
<path class="l1" d="M761.958 606.957L816.052 606.957"/>
<path class="l1" d="M761.958 570.894L761.958 606.957"/>
<path class="l1" d="M761.958 588.926L906.209 588.926"/>
<path class="l1" d="M761.958 570.894L761.958 588.926"/>
<path class="l1" d="M713.875 498.769L804.031 498.769"/>
<path class="l1" d="M713.875 498.769L713.875 558.874"/>
<path class="l1" d="M858.125 366.54L888.177 366.54"/>
<path class="l1" d="M888.177 366.54L888.177 378.561"/>
<path class="l1" d="M888.177 354.519L966.313 354.519"/>
<path class="l1" d="M888.177 354.519L888.177 378.561"/>
<path class="l1" d="M810.042 312.446L888.177 312.446"/>
<path class="l1" d="M888.177 312.446L888.177 378.561"/>
<path class="l1" d="M888.177 486.748L906.209 486.748"/>
<path class="l1" d="M888.177 378.561L888.177 486.748"/>
<path class="l1" d="M828.073 390.582L966.313 390.582"/>
<path class="l1" d="M828.073 390.582L828.073 588.926"/>
<path class="l1" d="M918.229 504.78L918.229 570.894"/>
<path class="l1" d="M647.76 462.707L719.885 462.707"/>
<path class="l1" d="M647.76 366.54L647.76 462.707"/>
<circle class="l1" cx="888.177" cy="378.561" r="2.22386"/>
<circle class="l1" cx="828.073" cy="588.926" r="2.22386"/>
<circle class="l1" cx="888.177" cy="378.561" r="2.22386"/>
<circle class="l1" cx="888.177" cy="354.519" r="2.22386"/>
<circle class="l1" cx="888.177" cy="378.561" r="2.22386"/>
<circle class="l1" cx="888.177" cy="354.519" r="2.22386"/>
<circle class="l1" cx="888.177" cy="366.54" r="2.22386"/>
<circle class="l1" cx="888.177" cy="378.561" r="2.22386"/>
<circle class="l1" cx="888.177" cy="366.54" r="2.22386"/>
<circle class="l1" cx="761.958" cy="570.894" r="2.22386"/>
<circle class="l1" cx="761.958" cy="588.926" r="2.22386"/>
<circle class="l1" cx="761.958" cy="570.894" r="2.22386"/>
<circle class="l1" cx="761.958" cy="570.894" r="2.22386"/>
<circle class="l1" cx="761.958" cy="576.905" r="2.22386"/>
<circle class="l1" cx="761.958" cy="576.905" r="2.22386"/>
<circle class="l1" cx="761.958" cy="570.894" r="2.22386"/>
<circle class="l1" cx="761.958" cy="588.926" r="2.22386"/>
<text fill="#cccccc"  xml:space="preserve" font-size="18.7525" transform="translate(16.665, 185.223)" >SKY130 Current-Starved Ring Oscillator — 3-stage, NMOS starving</text>
<text fill="#cccccc"  xml:space="preserve" font-size="12.5017" transform="translate(16.665, 203.589)" >=== Stage 1 ===</text>
<text fill="#cccccc"  xml:space="preserve" font-size="12.5017" transform="translate(16.665, 221.62)" >=== Stage 2 ===</text>
<text fill="#cccccc"  xml:space="preserve" font-size="12.5017" transform="translate(16.665, 239.652)" >=== Stage 3 ===</text>
</svg>
